<svg fill="#fff" xmlns="http://www.w3.org/2000/svg" viewBox="-549 551 100 125"><path d="M-463.057 600.75l-.186-1.844a2.412 2.412 0 0 1 1.467-2.46 74.86 74.86 0 0 0 4.323-2.023c.994-.504 1.506-1.643 1.253-2.728-.45-1.936-1.116-3.834-1.74-5.734-.355-1.074-1.413-1.78-2.54-1.66-1.58.167-3.14.383-4.68.644a2.412 2.412 0 0 1-2.538-1.218l-1.025-1.888c-.304-.614-.726-1.148-1.17-1.667-.703-.825-.748-2.01-.144-2.91.873-1.3 1.71-2.64 2.513-4.02.555-.956.374-2.176-.41-2.954-1.42-1.41-3.043-2.624-4.616-3.88-.87-.697-2.115-.722-2.987-.027a71.382 71.382 0 0 0-3.594 3.072c-.77.7-1.886.85-2.798.354l-1.888-1.025c-.563-.38-1.19-.6-1.832-.79a2.426 2.426 0 0 1-1.745-2.386c.03-1.57.008-3.155-.067-4.753a2.44 2.44 0 0 0-1.886-2.25c-1.99-.452-4.052-.53-6.092-.704-1.09-.094-2.124.54-2.482 1.573a59.663 59.663 0 0 0-1.363 4.503 2.43 2.43 0 0 1-2.1 1.82l-2.18.22c-.725.043-1.445.12-2.152.26-1.02.205-2.04-.215-2.586-1.098a70.796 70.796 0 0 0-2.597-3.904c-.63-.88-1.785-1.223-2.808-.865-1.936.68-3.754 1.634-5.556 2.628a2.42 2.42 0 0 0-1.2 2.668c.367 1.537.77 3.03 1.255 4.54.305.954.023 2-.75 2.636l-1.714 1.414c-.592.5-1.217.97-1.784 1.497-.72.668-1.78.774-2.666.352a71.614 71.614 0 0 0-4.276-1.873c-1.005-.4-2.16-.066-2.826.787-1.263 1.617-2.3 3.39-3.274 5.205-.51.95-.343 2.135.435 2.883a67.126 67.126 0 0 0 3.52 3.16 2.432 2.432 0 0 1 .782 2.59l-.67 2.153c-.183.762-.496 1.5-.715 2.255-.268.926-1.065 1.578-2.02 1.7a70.77 70.77 0 0 0-4.606.745c-1.02.2-1.827 1.048-1.933 2.083a30.983 30.983 0 0 0 0 6.342c.106 1.034.912 1.882 1.932 2.082 1.543.303 3.082.55 4.61.747.955.122 1.75.774 2.02 1.697.22.756.532 1.493.715 2.258l.668 2.15a2.43 2.43 0 0 1-.785 2.59 65.787 65.787 0 0 0-3.52 3.16c-.78.75-.945 1.935-.435 2.886.973 1.816 2.01 3.587 3.273 5.203.666.853 1.822 1.188 2.826.787a71.4 71.4 0 0 0 4.28-1.87c.885-.424 1.946-.32 2.665.35.566.526 1.192.995 1.785 1.497l1.718 1.418c.772.637 1.053 1.682.748 2.635a61.6 61.6 0 0 0-1.256 4.54 2.42 2.42 0 0 0 1.198 2.667c1.803.995 3.622 1.95 5.56 2.628 1.022.358 2.18.016 2.807-.867a71.757 71.757 0 0 0 2.594-3.904c.547-.882 1.567-1.302 2.584-1.1.707.142 1.427.218 2.156.262l2.175.22a2.432 2.432 0 0 1 2.1 1.82 59.726 59.726 0 0 0 1.367 4.506c.36 1.03 1.394 1.666 2.482 1.572 2.04-.176 4.1-.252 6.09-.703a2.44 2.44 0 0 0 1.89-2.25c.074-1.6.095-3.185.065-4.754a2.424 2.424 0 0 1 1.74-2.385c.642-.19 1.27-.412 1.834-.79l1.89-1.022a2.425 2.425 0 0 1 2.794.354 71.058 71.058 0 0 0 3.6 3.074c.872.693 2.115.667 2.985-.028 1.573-1.257 3.194-2.47 4.615-3.884.782-.778.962-1.998.408-2.952-.8-1.38-1.64-2.72-2.513-4.02-.605-.9-.56-2.085.144-2.91.443-.52.864-1.056 1.168-1.67l1.024-1.886a2.41 2.41 0 0 1 2.54-1.217c1.537.26 3.1.476 4.68.642 1.123.118 2.18-.585 2.534-1.66.62-1.89 1.284-3.78 1.735-5.707.256-1.095-.24-2.247-1.245-2.756a74.594 74.594 0 0 0-4.324-2.025 2.413 2.413 0 0 1-1.467-2.46l.186-1.855a2.266 2.266 0 0 0 0-.487zm-24.285 24.756c-4.694 1.774-9.917 3.196-15.016 2.087-5.007-.798-10.017-2.703-13.757-6.29-3.83-3.352-6.97-7.74-8.177-12.736a24.97 24.97 0 0 1 0-15.136c1.208-4.996 4.35-9.38 8.177-12.734 3.74-3.585 8.752-5.493 13.754-6.29 5.1-1.112 10.32.312 15.016 2.087 4.74 2.07 8.533 5.79 11.492 9.938 2.797 4.29 3.952 9.306 4.324 14.363.01.137.01.275 0 .412-.37 5.058-1.527 10.074-4.325 14.362-2.96 4.147-6.75 7.87-11.492 9.94z"/><path d="M-499 609.867a1.28 1.28 0 0 0-1.28 1.28v4.49a1.28 1.28 0 0 0 2.56 0v-4.49a1.28 1.28 0 0 0-1.28-1.28z"/><path d="M-485.25 594.416a13.696 13.696 0 0 0-9.6-13.108 1.278 1.278 0 0 0-1.665 1.22v12.056L-499 596.49l-2.486-1.906v-12.057a1.277 1.277 0 0 0-1.666-1.22 13.697 13.697 0 0 0-9.597 13.11c0 5.51 3.27 10.26 7.96 12.452v12.6a1.28 1.28 0 0 0 2.56 0v-11.705c1.04.25 2.117.4 3.23.4s2.195-.15 3.234-.4v11.705a1.28 1.28 0 0 0 2.56 0v-12.6c4.69-2.193 7.956-6.943 7.956-12.454zm-15.946 10.98c-4.517-.865-8.115-4.582-8.845-9.123-.81-5.024 1.725-9.706 5.994-11.85v10.79c0 .4.185.775.502 1.017l3.766 2.886c.46.352 1.097.352 1.556 0l3.765-2.886a1.28 1.28 0 0 0 .502-1.016v-10.79a11.143 11.143 0 0 1 6.145 9.99c-.002 6.89-6.26 12.345-13.388 10.98z"/></svg>