<svg fill="#fff" xmlns="http://www.w3.org/2000/svg" viewBox="0 0 20 25"><path d="M-123-20c-16.568 0-30 13.435-30 30.002S-139.568 40-123 40s30-13.43 30-29.998S-106.432-20-123-20zm19.177 34.607h-14.57v14.57h-9.215v-14.57h-14.57V5.392h14.57v-14.57h9.216v14.57h14.57v9.215zM-64-11c-11.045 0-20 8.957-20 20 0 11.047 8.955 20 20 20s20-8.953 20-20c0-11.043-8.955-20-20-20zm12.785 23.072h-9.713v9.712h-6.144v-9.712h-9.713V5.928h9.713v-9.713h6.144v9.713h9.713v6.144zM-21-4c-8.284 0-15 6.717-15 15 0 8.285 6.716 15 15 15s15-6.715 15-15c0-8.283-6.716-15-15-15zm9.588 17.304h-7.285v7.284h-4.607v-7.284h-7.285V8.696h7.286V1.412h4.607v7.285h7.285v4.607zM10 0C4.477 0 0 4.478 0 10c0 5.523 4.477 10 10 10s10-4.477 10-10c0-5.522-4.477-10-10-10zm6.392 11.536h-4.856v4.856H8.464v-4.856H3.608V8.464h4.856V3.608h3.07v4.856h4.857v3.072z"/></svg>