<svg fill="#fff" xmlns="http://www.w3.org/2000/svg" viewBox="0 0 100 125"><path d="M50 5C25.145 5 5 25.146 5 50s20.146 45 45 45c24.852 0 45-20.146 45-45S74.852 5 50 5zm31.177 71.282c-7.49 8.872-18.685 14.52-31.178 14.52-12.493 0-23.687-5.647-31.177-14.52v-6.597c0-7.738 6.248-13.987 13.973-13.987h8.058c-5.845-3.232-9.81-9.45-9.81-16.596 0-10.46 8.492-18.953 18.955-18.953 10.46 0 18.953 8.492 18.953 18.952 0 7.145-3.965 13.363-9.807 16.596h8.04v.003l.015-.002c7.703 0 13.977 6.25 13.977 13.987v6.597z"/></svg>