<svg xmlns="http://www.w3.org/2000/svg" viewBox="0 0 100 140"><path d="M96.446 13.385H3.556a3.555 3.555 0 0 0 0 7.108h.534l8.56 91.46h74.7l8.56-91.46h.537a3.554 3.554 0 0 0 0-7.108zm-64.67 78.09a3.52 3.52 0 0 1-3.728-3.3l-3.142-51.41a3.52 3.52 0 0 1 7.028-.428l3.14 51.408a3.52 3.52 0 0 1-3.298 3.73zm21.967-3.467a3.52 3.52 0 0 1-7.042 0V36.503a3.52 3.52 0 0 1 7.043 0v51.505zm21.352-51.242l-3.145 51.41a3.52 3.52 0 1 1-7.027-.43l3.145-51.41a3.52 3.52 0 1 1 7.027.43zM94.203 4.107H57.978c.016-.166.026-.335.026-.508 0-1.964-1.027-3.555-2.292-3.555H44.29c-1.267 0-2.293 1.59-2.293 3.554 0 .172.01.34.026.507H5.797a3.383 3.383 0 0 0 0 6.766h88.406c1.868 0 3.384-1.515 3.384-3.383s-1.516-3.383-3.384-3.383z"/></svg>