<?xml version="1.0" standalone="no"?>
<!DOCTYPE svg PUBLIC "-//W3C//DTD SVG 1.1//EN" "http://www.w3.org/Graphics/SVG/1.1/DTD/svg11.dtd" >
<svg xmlns="http://www.w3.org/2000/svg" xmlns:xlink="http://www.w3.org/1999/xlink" version="1.1">
<metadata></metadata>
<defs>
<font id="braxtonregular" horiz-adv-x="2072" >
<font-face units-per-em="2048" ascent="1434" descent="-614" />
<missing-glyph horiz-adv-x="444" />
<glyph unicode="&#xfb01;" d="M92.5 81.5q-14.5 53.5 3.5 94.5q7 24 20.5 61.5t23.5 62.5l10 26l49 -39q-48 -133 -56 -160q-15 -48 -2 -102q107 41 148 157q-36 17 -40.5 54.5t25.5 74.5l17 13l33 -41q0 -38 -11 -95q30 -10 68 0q15 43 51.5 79.5t85.5 58.5l33 -43q-46 -13 -79 -49.5t-44 -83.5 q64 23 106 69t48 109l12 6q9 -7 35 -39q-16 -56 -74.5 -99t-130.5 -61q-13 -55 10 -110q82 19 182 141l11 -4q-92 -126 -185 -160q-95 69 -67 174q-38 -9 -66 -2q-42 -124 -157 -172q-45 26 -59.5 79.5zM223 657q6 25 24 74t33 85l15 36l49 -41q-45 -119 -57 -154 q-21 -73 -21 -110q88 49 160 143l59 162l45 -39q-61 -144 -81 -197l4 -2q83 148 176 232q6 6 16.5 6t18.5 -6l28 -29q8 -6 10 -18t-2 -23q-40 -87 -49 -117q-29 -66 -24 -110q85 43 168 143l10 -2q-74 -108 -164 -164q-41 19 -58.5 55t-0.5 76q30 66 67 154q4 12 -2 12 q-16 0 -65.5 -57.5t-95.5 -130.5t-54 -111l-51 41l31 82q-77 -85 -136 -121q-35 12 -48.5 49t-4.5 82zM283 236q-4 -25 12 -39q13 45 18 77q-26 -13 -30 -38zM319 924l3 6q79 15 106 86l8 -4q-1 -35 -17.5 -68.5t-41.5 -52.5h-12zM465 1158q-13 49 2.5 95t49 86t75.5 60 l33 -53q-68 -25 -100.5 -102.5t-4.5 -145.5q50 12 92 56.5t62 105.5q-35 19 -41 54.5t24 74.5l17 10l26 -39q2 -39 -6 -94q28 -11 74 0l49 133l47 -39q-63 -144 -86 -197l4 -4q72 132 176 236q7 3 17.5 3.5t17.5 -3.5l31 -29q17 -21 6 -43q-6 -14 -17 -40.5t-19.5 -46.5 t-12.5 -32q-30 -65 -23 -106q80 37 158 129l135 356l52 -39q-18 -46 -77.5 -192t-62.5 -154q-19 -56 -12 -100q76 38 158 133l67 172l47 -39q-51 -121 -63 -154q-27 -75 -8 -114q87 59 143 159l49 142l47 -37q-33 -101 -94 -275q39 14 91 60.5t89 93.5l11 -4 q-76 -112 -199 -170q-28 -76 -66.5 -131t-81.5 -55q-33 0 -44.5 17t-0.5 44q9 26 22 44.5t35 32.5t35 20.5t44 19.5q27 81 49 131l-6 2q-62 -76 -115 -117q-37 13 -56 48.5t-10 72.5q-58 -73 -133 -119q-35 10 -51.5 43.5t-7.5 69.5q-60 -70 -131 -113q-40 18 -56.5 51.5 t0.5 77.5q14 37 66 154q3 14 -2 14q-16 0 -65.5 -58.5t-96 -131t-53.5 -107.5l-49 35l47 141q-39 -8 -70 2q-20 -76 -64 -121.5t-104 -56.5q-46 34 -59 83zM610 43l109 283l45 -39q-23 -36 -43 -99h2q20 32 55 78t47 53q21 14 35 0q16 -13 25 -28q14 -28 -13.5 -60.5 t-66.5 -42.5l-8 7q57 38 47 108q-86 -58 -156 -213q-21 -56 -29 -88zM665.5 1307.5q-2.5 -22.5 12.5 -33.5q8 24 12 72q-22 -16 -24.5 -38.5zM823 422q19 46 140 385q-9 1 -27 2t-25 2l-18 23l8 10q34 -10 70 -13l28 72q16 45 46.5 81.5t64.5 43.5l41 -35l12 37l8 2 q13 -15 23 -33q-9 -22 -27.5 -43t-36.5 -30l-4 4l23 59q-11 -2 -20 -5t-16.5 -6.5t-14.5 -9.5t-11.5 -10t-10 -12t-8.5 -12t-7.5 -14t-5.5 -13.5t-5.5 -14t-5.5 -13.5l-18 -52q39 -3 80 7l6 -13q-30 -11 -94 -14l-152 -412q-28 12 -43 27zM868 84q12 33 47 57q9 -10 11 -14 q-32 -22 -35 -53q0 -32 20 -35q31 -4 57.5 13t35.5 44q9 28 -2.5 53t-30 41t-31 37.5t-4.5 44.5q10 30 44 42t69 1l24 -30l12 28l11 6q12 -16 24 -34q-19 -52 -69 -82l-7 4l27 72q-34 10 -58 2t-30 -29q-9 -24 2.5 -47.5t30.5 -39t32.5 -37t8.5 -42.5q-12 -41 -44.5 -63.5 t-72.5 -22.5q-36 0 -57 25.5t-15 58.5zM1085 664q7 24 24 72t31 84l13 36l43 -43q-43 -118 -53 -149q-17 -47 -17 -117q120 83 185 246l20 63l43 -43q-43 -118 -55 -149q-16 -66 -16 -117q73 37 141 112l141 377l51 -41q-11 -27 -44.5 -111.5t-60 -151t-30.5 -81.5 q-21 -53 -14 -104q76 43 141 121l144 368l47 -41q-16 -44 -73.5 -186.5t-62.5 -157.5q-20 -59 -14 -104q86 46 162 145l10 -4q-72 -106 -160 -164q-34 10 -52 42t-13 69q-56 -66 -119 -111q-33 10 -49.5 40t-13.5 65q-48 -57 -119 -109q-43 13 -52.5 57t13.5 101l-4 2 q-48 -79 -131 -154q-40 14 -54.5 53.5t-1.5 84.5zM1133 133l71 191l49 -39q-47 -121 -57 -152q-18 -63 -18 -110q87 50 151 133q10 54 47.5 101t87.5 69l33 -54q-70 -25 -103 -102t-5 -145q52 15 92.5 57t60.5 104q-32 19 -37.5 55t21.5 72l16 13l27 -39q0 -53 -6 -97 q32 -8 75 0l-6 -12q-41 -11 -71 2q-20 -75 -63 -120.5t-101 -57.5q-73 50 -70 129q-69 -86 -141 -129q-37 13 -50 49.5t-3 81.5zM1227 397l6 6q78 19 104 86l6 -6q0 -31 -16 -64t-39 -54l-10 -3zM1320 905q4 -14 19 -14q33 0 84 143q-68 -31 -102 -106q-5 -9 -1 -23z M1532.5 235q-1.5 -23 13.5 -34q10 38 10 71q-22 -14 -23.5 -37zM1585 41l107 285l43 -37q-62 -144 -82 -195l2 -4q36 63 84.5 126t93.5 103q5 5 16 5.5t17 -5.5l30 -24q16 -19 9 -43q-49 -113 -52 -119q-29 -64 -22 -108q85 42 166 141l10 -6q-73 -100 -162 -158 q-40 18 -57.5 54t0.5 77q34 73 65 152q3 14 -2 14q-16 0 -65.5 -58t-95.5 -131t-54 -110z" />
<glyph horiz-adv-x="0" />
<glyph horiz-adv-x="682" />
<glyph d="M92.5 81.5q-14.5 53.5 3.5 94.5q7 24 20.5 61.5t23.5 62.5l10 26l49 -39q-48 -133 -56 -160q-15 -48 -2 -102q107 41 148 157q-36 17 -40.5 54.5t25.5 74.5l17 13l33 -41q0 -38 -11 -95q30 -10 68 0q15 43 51.5 79.5t85.5 58.5l33 -43q-46 -13 -79 -49.5t-44 -83.5 q64 23 106 69t48 109l12 6q9 -7 35 -39q-16 -56 -74.5 -99t-130.5 -61q-13 -55 10 -110q82 19 182 141l11 -4q-92 -126 -185 -160q-95 69 -67 174q-38 -9 -66 -2q-42 -124 -157 -172q-45 26 -59.5 79.5zM223 657q6 25 24 74t33 85l15 36l49 -41q-45 -119 -57 -154 q-21 -73 -21 -110q88 49 160 143l59 162l45 -39q-61 -144 -81 -197l4 -2q83 148 176 232q6 6 16.5 6t18.5 -6l28 -29q8 -6 10 -18t-2 -23q-40 -87 -49 -117q-29 -66 -24 -110q85 43 168 143l10 -2q-74 -108 -164 -164q-41 19 -58.5 55t-0.5 76q30 66 67 154q4 12 -2 12 q-16 0 -65.5 -57.5t-95.5 -130.5t-54 -111l-51 41l31 82q-77 -85 -136 -121q-35 12 -48.5 49t-4.5 82zM283 236q-4 -25 12 -39q13 45 18 77q-26 -13 -30 -38zM319 924l3 6q79 15 106 86l8 -4q-1 -35 -17.5 -68.5t-41.5 -52.5h-12zM465 1158q-13 49 2.5 95t49 86t75.5 60 l33 -53q-68 -25 -100.5 -102.5t-4.5 -145.5q50 12 92 56.5t62 105.5q-35 19 -41 54.5t24 74.5l17 10l26 -39q2 -39 -6 -94q28 -11 74 0l49 133l47 -39q-63 -144 -86 -197l4 -4q72 132 176 236q7 3 17.5 3.5t17.5 -3.5l31 -29q17 -21 6 -43q-6 -14 -17 -40.5t-19.5 -46.5 t-12.5 -32q-30 -65 -23 -106q80 37 158 129l135 356l52 -39q-18 -46 -77.5 -192t-62.5 -154q-19 -56 -12 -100q76 38 158 133l67 172l47 -39q-51 -121 -63 -154q-27 -75 -8 -114q87 59 143 159l49 142l47 -37q-33 -101 -94 -275q39 14 91 60.5t89 93.5l11 -4 q-76 -112 -199 -170q-28 -76 -66.5 -131t-81.5 -55q-33 0 -44.5 17t-0.5 44q9 26 22 44.5t35 32.5t35 20.5t44 19.5q27 81 49 131l-6 2q-62 -76 -115 -117q-37 13 -56 48.5t-10 72.5q-58 -73 -133 -119q-35 10 -51.5 43.5t-7.5 69.5q-60 -70 -131 -113q-40 18 -56.5 51.5 t0.5 77.5q14 37 66 154q3 14 -2 14q-16 0 -65.5 -58.5t-96 -131t-53.5 -107.5l-49 35l47 141q-39 -8 -70 2q-20 -76 -64 -121.5t-104 -56.5q-46 34 -59 83zM610 43l109 283l45 -39q-23 -36 -43 -99h2q20 32 55 78t47 53q21 14 35 0q16 -13 25 -28q14 -28 -13.5 -60.5 t-66.5 -42.5l-8 7q57 38 47 108q-86 -58 -156 -213q-21 -56 -29 -88zM665.5 1307.5q-2.5 -22.5 12.5 -33.5q8 24 12 72q-22 -16 -24.5 -38.5zM823 422q19 46 140 385q-9 1 -27 2t-25 2l-18 23l8 10q34 -10 70 -13l28 72q16 45 46.5 81.5t64.5 43.5l41 -35l12 37l8 2 q13 -15 23 -33q-9 -22 -27.5 -43t-36.5 -30l-4 4l23 59q-11 -2 -20 -5t-16.5 -6.5t-14.5 -9.5t-11.5 -10t-10 -12t-8.5 -12t-7.5 -14t-5.5 -13.5t-5.5 -14t-5.5 -13.5l-18 -52q39 -3 80 7l6 -13q-30 -11 -94 -14l-152 -412q-28 12 -43 27zM868 84q12 33 47 57q9 -10 11 -14 q-32 -22 -35 -53q0 -32 20 -35q31 -4 57.5 13t35.5 44q9 28 -2.5 53t-30 41t-31 37.5t-4.5 44.5q10 30 44 42t69 1l24 -30l12 28l11 6q12 -16 24 -34q-19 -52 -69 -82l-7 4l27 72q-34 10 -58 2t-30 -29q-9 -24 2.5 -47.5t30.5 -39t32.5 -37t8.5 -42.5q-12 -41 -44.5 -63.5 t-72.5 -22.5q-36 0 -57 25.5t-15 58.5zM1085 664q7 24 24 72t31 84l13 36l43 -43q-43 -118 -53 -149q-17 -47 -17 -117q120 83 185 246l20 63l43 -43q-43 -118 -55 -149q-16 -66 -16 -117q73 37 141 112l141 377l51 -41q-11 -27 -44.5 -111.5t-60 -151t-30.5 -81.5 q-21 -53 -14 -104q76 43 141 121l144 368l47 -41q-16 -44 -73.5 -186.5t-62.5 -157.5q-20 -59 -14 -104q86 46 162 145l10 -4q-72 -106 -160 -164q-34 10 -52 42t-13 69q-56 -66 -119 -111q-33 10 -49.5 40t-13.5 65q-48 -57 -119 -109q-43 13 -52.5 57t13.5 101l-4 2 q-48 -79 -131 -154q-40 14 -54.5 53.5t-1.5 84.5zM1133 133l71 191l49 -39q-47 -121 -57 -152q-18 -63 -18 -110q87 50 151 133q10 54 47.5 101t87.5 69l33 -54q-70 -25 -103 -102t-5 -145q52 15 92.5 57t60.5 104q-32 19 -37.5 55t21.5 72l16 13l27 -39q0 -53 -6 -97 q32 -8 75 0l-6 -12q-41 -11 -71 2q-20 -75 -63 -120.5t-101 -57.5q-73 50 -70 129q-69 -86 -141 -129q-37 13 -50 49.5t-3 81.5zM1227 397l6 6q78 19 104 86l6 -6q0 -31 -16 -64t-39 -54l-10 -3zM1320 905q4 -14 19 -14q33 0 84 143q-68 -31 -102 -106q-5 -9 -1 -23z M1532.5 235q-1.5 -23 13.5 -34q10 38 10 71q-22 -14 -23.5 -37zM1585 41l107 285l43 -37q-62 -144 -82 -195l2 -4q36 63 84.5 126t93.5 103q5 5 16 5.5t17 -5.5l30 -24q16 -19 9 -43q-49 -113 -52 -119q-29 -64 -22 -108q85 42 166 141l10 -6q-73 -100 -162 -158 q-40 18 -57.5 54t0.5 77q34 73 65 152q3 14 -2 14q-16 0 -65.5 -58t-95.5 -131t-54 -110z" />
<glyph unicode=" "  horiz-adv-x="444" />
<glyph unicode="&#x09;" horiz-adv-x="444" />
<glyph unicode="&#xa0;" horiz-adv-x="444" />
<glyph unicode="!" horiz-adv-x="475" d="M2 45l47 162l115 -76q-10 -76 -68 -141zM160 418l309 1038l129 -84q-55 -225 -162 -484.5t-243 -492.5z" />
<glyph unicode="&#x22;" d="M92.5 81.5q-14.5 53.5 3.5 94.5q7 24 20.5 61.5t23.5 62.5l10 26l49 -39q-48 -133 -56 -160q-15 -48 -2 -102q107 41 148 157q-36 17 -40.5 54.5t25.5 74.5l17 13l33 -41q0 -38 -11 -95q30 -10 68 0q15 43 51.5 79.5t85.5 58.5l33 -43q-46 -13 -79 -49.5t-44 -83.5 q64 23 106 69t48 109l12 6q9 -7 35 -39q-16 -56 -74.5 -99t-130.5 -61q-13 -55 10 -110q82 19 182 141l11 -4q-92 -126 -185 -160q-95 69 -67 174q-38 -9 -66 -2q-42 -124 -157 -172q-45 26 -59.5 79.5zM223 657q6 25 24 74t33 85l15 36l49 -41q-45 -119 -57 -154 q-21 -73 -21 -110q88 49 160 143l59 162l45 -39q-61 -144 -81 -197l4 -2q83 148 176 232q6 6 16.5 6t18.5 -6l28 -29q8 -6 10 -18t-2 -23q-40 -87 -49 -117q-29 -66 -24 -110q85 43 168 143l10 -2q-74 -108 -164 -164q-41 19 -58.5 55t-0.5 76q30 66 67 154q4 12 -2 12 q-16 0 -65.5 -57.5t-95.5 -130.5t-54 -111l-51 41l31 82q-77 -85 -136 -121q-35 12 -48.5 49t-4.5 82zM283 236q-4 -25 12 -39q13 45 18 77q-26 -13 -30 -38zM319 924l3 6q79 15 106 86l8 -4q-1 -35 -17.5 -68.5t-41.5 -52.5h-12zM465 1158q-13 49 2.5 95t49 86t75.5 60 l33 -53q-68 -25 -100.5 -102.5t-4.5 -145.5q50 12 92 56.5t62 105.5q-35 19 -41 54.5t24 74.5l17 10l26 -39q2 -39 -6 -94q28 -11 74 0l49 133l47 -39q-63 -144 -86 -197l4 -4q72 132 176 236q7 3 17.5 3.5t17.5 -3.5l31 -29q17 -21 6 -43q-6 -14 -17 -40.5t-19.5 -46.5 t-12.5 -32q-30 -65 -23 -106q80 37 158 129l135 356l52 -39q-18 -46 -77.5 -192t-62.5 -154q-19 -56 -12 -100q76 38 158 133l67 172l47 -39q-51 -121 -63 -154q-27 -75 -8 -114q87 59 143 159l49 142l47 -37q-33 -101 -94 -275q39 14 91 60.5t89 93.5l11 -4 q-76 -112 -199 -170q-28 -76 -66.5 -131t-81.5 -55q-33 0 -44.5 17t-0.5 44q9 26 22 44.5t35 32.5t35 20.5t44 19.5q27 81 49 131l-6 2q-62 -76 -115 -117q-37 13 -56 48.5t-10 72.5q-58 -73 -133 -119q-35 10 -51.5 43.5t-7.5 69.5q-60 -70 -131 -113q-40 18 -56.5 51.5 t0.5 77.5q14 37 66 154q3 14 -2 14q-16 0 -65.5 -58.5t-96 -131t-53.5 -107.5l-49 35l47 141q-39 -8 -70 2q-20 -76 -64 -121.5t-104 -56.5q-46 34 -59 83zM610 43l109 283l45 -39q-23 -36 -43 -99h2q20 32 55 78t47 53q21 14 35 0q16 -13 25 -28q14 -28 -13.5 -60.5 t-66.5 -42.5l-8 7q57 38 47 108q-86 -58 -156 -213q-21 -56 -29 -88zM665.5 1307.5q-2.5 -22.5 12.5 -33.5q8 24 12 72q-22 -16 -24.5 -38.5zM823 422q19 46 140 385q-9 1 -27 2t-25 2l-18 23l8 10q34 -10 70 -13l28 72q16 45 46.5 81.5t64.5 43.5l41 -35l12 37l8 2 q13 -15 23 -33q-9 -22 -27.5 -43t-36.5 -30l-4 4l23 59q-11 -2 -20 -5t-16.5 -6.5t-14.5 -9.5t-11.5 -10t-10 -12t-8.5 -12t-7.5 -14t-5.5 -13.5t-5.5 -14t-5.5 -13.5l-18 -52q39 -3 80 7l6 -13q-30 -11 -94 -14l-152 -412q-28 12 -43 27zM868 84q12 33 47 57q9 -10 11 -14 q-32 -22 -35 -53q0 -32 20 -35q31 -4 57.5 13t35.5 44q9 28 -2.5 53t-30 41t-31 37.5t-4.5 44.5q10 30 44 42t69 1l24 -30l12 28l11 6q12 -16 24 -34q-19 -52 -69 -82l-7 4l27 72q-34 10 -58 2t-30 -29q-9 -24 2.5 -47.5t30.5 -39t32.5 -37t8.5 -42.5q-12 -41 -44.5 -63.5 t-72.5 -22.5q-36 0 -57 25.5t-15 58.5zM1085 664q7 24 24 72t31 84l13 36l43 -43q-43 -118 -53 -149q-17 -47 -17 -117q120 83 185 246l20 63l43 -43q-43 -118 -55 -149q-16 -66 -16 -117q73 37 141 112l141 377l51 -41q-11 -27 -44.5 -111.5t-60 -151t-30.5 -81.5 q-21 -53 -14 -104q76 43 141 121l144 368l47 -41q-16 -44 -73.5 -186.5t-62.5 -157.5q-20 -59 -14 -104q86 46 162 145l10 -4q-72 -106 -160 -164q-34 10 -52 42t-13 69q-56 -66 -119 -111q-33 10 -49.5 40t-13.5 65q-48 -57 -119 -109q-43 13 -52.5 57t13.5 101l-4 2 q-48 -79 -131 -154q-40 14 -54.5 53.5t-1.5 84.5zM1133 133l71 191l49 -39q-47 -121 -57 -152q-18 -63 -18 -110q87 50 151 133q10 54 47.5 101t87.5 69l33 -54q-70 -25 -103 -102t-5 -145q52 15 92.5 57t60.5 104q-32 19 -37.5 55t21.5 72l16 13l27 -39q0 -53 -6 -97 q32 -8 75 0l-6 -12q-41 -11 -71 2q-20 -75 -63 -120.5t-101 -57.5q-73 50 -70 129q-69 -86 -141 -129q-37 13 -50 49.5t-3 81.5zM1227 397l6 6q78 19 104 86l6 -6q0 -31 -16 -64t-39 -54l-10 -3zM1320 905q4 -14 19 -14q33 0 84 143q-68 -31 -102 -106q-5 -9 -1 -23z M1532.5 235q-1.5 -23 13.5 -34q10 38 10 71q-22 -14 -23.5 -37zM1585 41l107 285l43 -37q-62 -144 -82 -195l2 -4q36 63 84.5 126t93.5 103q5 5 16 5.5t17 -5.5l30 -24q16 -19 9 -43q-49 -113 -52 -119q-29 -64 -22 -108q85 42 166 141l10 -6q-73 -100 -162 -158 q-40 18 -57.5 54t0.5 77q34 73 65 152q3 14 -2 14q-16 0 -65.5 -58t-95.5 -131t-54 -110z" />
<glyph unicode="#" d="M92.5 81.5q-14.5 53.5 3.5 94.5q7 24 20.5 61.5t23.5 62.5l10 26l49 -39q-48 -133 -56 -160q-15 -48 -2 -102q107 41 148 157q-36 17 -40.5 54.5t25.5 74.5l17 13l33 -41q0 -38 -11 -95q30 -10 68 0q15 43 51.5 79.5t85.5 58.5l33 -43q-46 -13 -79 -49.5t-44 -83.5 q64 23 106 69t48 109l12 6q9 -7 35 -39q-16 -56 -74.5 -99t-130.5 -61q-13 -55 10 -110q82 19 182 141l11 -4q-92 -126 -185 -160q-95 69 -67 174q-38 -9 -66 -2q-42 -124 -157 -172q-45 26 -59.5 79.5zM223 657q6 25 24 74t33 85l15 36l49 -41q-45 -119 -57 -154 q-21 -73 -21 -110q88 49 160 143l59 162l45 -39q-61 -144 -81 -197l4 -2q83 148 176 232q6 6 16.5 6t18.5 -6l28 -29q8 -6 10 -18t-2 -23q-40 -87 -49 -117q-29 -66 -24 -110q85 43 168 143l10 -2q-74 -108 -164 -164q-41 19 -58.5 55t-0.5 76q30 66 67 154q4 12 -2 12 q-16 0 -65.5 -57.5t-95.5 -130.5t-54 -111l-51 41l31 82q-77 -85 -136 -121q-35 12 -48.5 49t-4.5 82zM283 236q-4 -25 12 -39q13 45 18 77q-26 -13 -30 -38zM319 924l3 6q79 15 106 86l8 -4q-1 -35 -17.5 -68.5t-41.5 -52.5h-12zM465 1158q-13 49 2.5 95t49 86t75.5 60 l33 -53q-68 -25 -100.5 -102.5t-4.5 -145.5q50 12 92 56.5t62 105.5q-35 19 -41 54.5t24 74.5l17 10l26 -39q2 -39 -6 -94q28 -11 74 0l49 133l47 -39q-63 -144 -86 -197l4 -4q72 132 176 236q7 3 17.5 3.5t17.5 -3.5l31 -29q17 -21 6 -43q-6 -14 -17 -40.5t-19.5 -46.5 t-12.5 -32q-30 -65 -23 -106q80 37 158 129l135 356l52 -39q-18 -46 -77.5 -192t-62.5 -154q-19 -56 -12 -100q76 38 158 133l67 172l47 -39q-51 -121 -63 -154q-27 -75 -8 -114q87 59 143 159l49 142l47 -37q-33 -101 -94 -275q39 14 91 60.5t89 93.5l11 -4 q-76 -112 -199 -170q-28 -76 -66.5 -131t-81.5 -55q-33 0 -44.5 17t-0.5 44q9 26 22 44.5t35 32.5t35 20.5t44 19.5q27 81 49 131l-6 2q-62 -76 -115 -117q-37 13 -56 48.5t-10 72.5q-58 -73 -133 -119q-35 10 -51.5 43.5t-7.5 69.5q-60 -70 -131 -113q-40 18 -56.5 51.5 t0.5 77.5q14 37 66 154q3 14 -2 14q-16 0 -65.5 -58.5t-96 -131t-53.5 -107.5l-49 35l47 141q-39 -8 -70 2q-20 -76 -64 -121.5t-104 -56.5q-46 34 -59 83zM610 43l109 283l45 -39q-23 -36 -43 -99h2q20 32 55 78t47 53q21 14 35 0q16 -13 25 -28q14 -28 -13.5 -60.5 t-66.5 -42.5l-8 7q57 38 47 108q-86 -58 -156 -213q-21 -56 -29 -88zM665.5 1307.5q-2.5 -22.5 12.5 -33.5q8 24 12 72q-22 -16 -24.5 -38.5zM823 422q19 46 140 385q-9 1 -27 2t-25 2l-18 23l8 10q34 -10 70 -13l28 72q16 45 46.5 81.5t64.5 43.5l41 -35l12 37l8 2 q13 -15 23 -33q-9 -22 -27.5 -43t-36.5 -30l-4 4l23 59q-11 -2 -20 -5t-16.5 -6.5t-14.5 -9.5t-11.5 -10t-10 -12t-8.5 -12t-7.5 -14t-5.5 -13.5t-5.5 -14t-5.5 -13.5l-18 -52q39 -3 80 7l6 -13q-30 -11 -94 -14l-152 -412q-28 12 -43 27zM868 84q12 33 47 57q9 -10 11 -14 q-32 -22 -35 -53q0 -32 20 -35q31 -4 57.5 13t35.5 44q9 28 -2.5 53t-30 41t-31 37.5t-4.5 44.5q10 30 44 42t69 1l24 -30l12 28l11 6q12 -16 24 -34q-19 -52 -69 -82l-7 4l27 72q-34 10 -58 2t-30 -29q-9 -24 2.5 -47.5t30.5 -39t32.5 -37t8.5 -42.5q-12 -41 -44.5 -63.5 t-72.5 -22.5q-36 0 -57 25.5t-15 58.5zM1085 664q7 24 24 72t31 84l13 36l43 -43q-43 -118 -53 -149q-17 -47 -17 -117q120 83 185 246l20 63l43 -43q-43 -118 -55 -149q-16 -66 -16 -117q73 37 141 112l141 377l51 -41q-11 -27 -44.5 -111.5t-60 -151t-30.5 -81.5 q-21 -53 -14 -104q76 43 141 121l144 368l47 -41q-16 -44 -73.5 -186.5t-62.5 -157.5q-20 -59 -14 -104q86 46 162 145l10 -4q-72 -106 -160 -164q-34 10 -52 42t-13 69q-56 -66 -119 -111q-33 10 -49.5 40t-13.5 65q-48 -57 -119 -109q-43 13 -52.5 57t13.5 101l-4 2 q-48 -79 -131 -154q-40 14 -54.5 53.5t-1.5 84.5zM1133 133l71 191l49 -39q-47 -121 -57 -152q-18 -63 -18 -110q87 50 151 133q10 54 47.5 101t87.5 69l33 -54q-70 -25 -103 -102t-5 -145q52 15 92.5 57t60.5 104q-32 19 -37.5 55t21.5 72l16 13l27 -39q0 -53 -6 -97 q32 -8 75 0l-6 -12q-41 -11 -71 2q-20 -75 -63 -120.5t-101 -57.5q-73 50 -70 129q-69 -86 -141 -129q-37 13 -50 49.5t-3 81.5zM1227 397l6 6q78 19 104 86l6 -6q0 -31 -16 -64t-39 -54l-10 -3zM1320 905q4 -14 19 -14q33 0 84 143q-68 -31 -102 -106q-5 -9 -1 -23z M1532.5 235q-1.5 -23 13.5 -34q10 38 10 71q-22 -14 -23.5 -37zM1585 41l107 285l43 -37q-62 -144 -82 -195l2 -4q36 63 84.5 126t93.5 103q5 5 16 5.5t17 -5.5l30 -24q16 -19 9 -43q-49 -113 -52 -119q-29 -64 -22 -108q85 42 166 141l10 -6q-73 -100 -162 -158 q-40 18 -57.5 54t0.5 77q34 73 65 152q3 14 -2 14q-16 0 -65.5 -58t-95.5 -131t-54 -110z" />
<glyph unicode="$" d="M92.5 81.5q-14.5 53.5 3.5 94.5q7 24 20.5 61.5t23.5 62.5l10 26l49 -39q-48 -133 -56 -160q-15 -48 -2 -102q107 41 148 157q-36 17 -40.5 54.5t25.5 74.5l17 13l33 -41q0 -38 -11 -95q30 -10 68 0q15 43 51.5 79.5t85.5 58.5l33 -43q-46 -13 -79 -49.5t-44 -83.5 q64 23 106 69t48 109l12 6q9 -7 35 -39q-16 -56 -74.5 -99t-130.5 -61q-13 -55 10 -110q82 19 182 141l11 -4q-92 -126 -185 -160q-95 69 -67 174q-38 -9 -66 -2q-42 -124 -157 -172q-45 26 -59.5 79.5zM223 657q6 25 24 74t33 85l15 36l49 -41q-45 -119 -57 -154 q-21 -73 -21 -110q88 49 160 143l59 162l45 -39q-61 -144 -81 -197l4 -2q83 148 176 232q6 6 16.5 6t18.5 -6l28 -29q8 -6 10 -18t-2 -23q-40 -87 -49 -117q-29 -66 -24 -110q85 43 168 143l10 -2q-74 -108 -164 -164q-41 19 -58.5 55t-0.5 76q30 66 67 154q4 12 -2 12 q-16 0 -65.5 -57.5t-95.5 -130.5t-54 -111l-51 41l31 82q-77 -85 -136 -121q-35 12 -48.5 49t-4.5 82zM283 236q-4 -25 12 -39q13 45 18 77q-26 -13 -30 -38zM319 924l3 6q79 15 106 86l8 -4q-1 -35 -17.5 -68.5t-41.5 -52.5h-12zM465 1158q-13 49 2.5 95t49 86t75.5 60 l33 -53q-68 -25 -100.5 -102.5t-4.5 -145.5q50 12 92 56.5t62 105.5q-35 19 -41 54.5t24 74.5l17 10l26 -39q2 -39 -6 -94q28 -11 74 0l49 133l47 -39q-63 -144 -86 -197l4 -4q72 132 176 236q7 3 17.5 3.5t17.5 -3.5l31 -29q17 -21 6 -43q-6 -14 -17 -40.5t-19.5 -46.5 t-12.5 -32q-30 -65 -23 -106q80 37 158 129l135 356l52 -39q-18 -46 -77.5 -192t-62.5 -154q-19 -56 -12 -100q76 38 158 133l67 172l47 -39q-51 -121 -63 -154q-27 -75 -8 -114q87 59 143 159l49 142l47 -37q-33 -101 -94 -275q39 14 91 60.5t89 93.5l11 -4 q-76 -112 -199 -170q-28 -76 -66.5 -131t-81.5 -55q-33 0 -44.5 17t-0.5 44q9 26 22 44.5t35 32.5t35 20.5t44 19.5q27 81 49 131l-6 2q-62 -76 -115 -117q-37 13 -56 48.5t-10 72.5q-58 -73 -133 -119q-35 10 -51.5 43.5t-7.5 69.5q-60 -70 -131 -113q-40 18 -56.5 51.5 t0.5 77.5q14 37 66 154q3 14 -2 14q-16 0 -65.5 -58.5t-96 -131t-53.5 -107.5l-49 35l47 141q-39 -8 -70 2q-20 -76 -64 -121.5t-104 -56.5q-46 34 -59 83zM610 43l109 283l45 -39q-23 -36 -43 -99h2q20 32 55 78t47 53q21 14 35 0q16 -13 25 -28q14 -28 -13.5 -60.5 t-66.5 -42.5l-8 7q57 38 47 108q-86 -58 -156 -213q-21 -56 -29 -88zM665.5 1307.5q-2.5 -22.5 12.5 -33.5q8 24 12 72q-22 -16 -24.5 -38.5zM823 422q19 46 140 385q-9 1 -27 2t-25 2l-18 23l8 10q34 -10 70 -13l28 72q16 45 46.5 81.5t64.5 43.5l41 -35l12 37l8 2 q13 -15 23 -33q-9 -22 -27.5 -43t-36.5 -30l-4 4l23 59q-11 -2 -20 -5t-16.5 -6.5t-14.5 -9.5t-11.5 -10t-10 -12t-8.5 -12t-7.5 -14t-5.5 -13.5t-5.5 -14t-5.5 -13.5l-18 -52q39 -3 80 7l6 -13q-30 -11 -94 -14l-152 -412q-28 12 -43 27zM868 84q12 33 47 57q9 -10 11 -14 q-32 -22 -35 -53q0 -32 20 -35q31 -4 57.5 13t35.5 44q9 28 -2.5 53t-30 41t-31 37.5t-4.5 44.5q10 30 44 42t69 1l24 -30l12 28l11 6q12 -16 24 -34q-19 -52 -69 -82l-7 4l27 72q-34 10 -58 2t-30 -29q-9 -24 2.5 -47.5t30.5 -39t32.5 -37t8.5 -42.5q-12 -41 -44.5 -63.5 t-72.5 -22.5q-36 0 -57 25.5t-15 58.5zM1085 664q7 24 24 72t31 84l13 36l43 -43q-43 -118 -53 -149q-17 -47 -17 -117q120 83 185 246l20 63l43 -43q-43 -118 -55 -149q-16 -66 -16 -117q73 37 141 112l141 377l51 -41q-11 -27 -44.5 -111.5t-60 -151t-30.5 -81.5 q-21 -53 -14 -104q76 43 141 121l144 368l47 -41q-16 -44 -73.5 -186.5t-62.5 -157.5q-20 -59 -14 -104q86 46 162 145l10 -4q-72 -106 -160 -164q-34 10 -52 42t-13 69q-56 -66 -119 -111q-33 10 -49.5 40t-13.5 65q-48 -57 -119 -109q-43 13 -52.5 57t13.5 101l-4 2 q-48 -79 -131 -154q-40 14 -54.5 53.5t-1.5 84.5zM1133 133l71 191l49 -39q-47 -121 -57 -152q-18 -63 -18 -110q87 50 151 133q10 54 47.5 101t87.5 69l33 -54q-70 -25 -103 -102t-5 -145q52 15 92.5 57t60.5 104q-32 19 -37.5 55t21.5 72l16 13l27 -39q0 -53 -6 -97 q32 -8 75 0l-6 -12q-41 -11 -71 2q-20 -75 -63 -120.5t-101 -57.5q-73 50 -70 129q-69 -86 -141 -129q-37 13 -50 49.5t-3 81.5zM1227 397l6 6q78 19 104 86l6 -6q0 -31 -16 -64t-39 -54l-10 -3zM1320 905q4 -14 19 -14q33 0 84 143q-68 -31 -102 -106q-5 -9 -1 -23z M1532.5 235q-1.5 -23 13.5 -34q10 38 10 71q-22 -14 -23.5 -37zM1585 41l107 285l43 -37q-62 -144 -82 -195l2 -4q36 63 84.5 126t93.5 103q5 5 16 5.5t17 -5.5l30 -24q16 -19 9 -43q-49 -113 -52 -119q-29 -64 -22 -108q85 42 166 141l10 -6q-73 -100 -162 -158 q-40 18 -57.5 54t0.5 77q34 73 65 152q3 14 -2 14q-16 0 -65.5 -58t-95.5 -131t-54 -110z" />
<glyph unicode="%" d="M92.5 81.5q-14.5 53.5 3.5 94.5q7 24 20.5 61.5t23.5 62.5l10 26l49 -39q-48 -133 -56 -160q-15 -48 -2 -102q107 41 148 157q-36 17 -40.5 54.5t25.5 74.5l17 13l33 -41q0 -38 -11 -95q30 -10 68 0q15 43 51.5 79.5t85.5 58.5l33 -43q-46 -13 -79 -49.5t-44 -83.5 q64 23 106 69t48 109l12 6q9 -7 35 -39q-16 -56 -74.5 -99t-130.5 -61q-13 -55 10 -110q82 19 182 141l11 -4q-92 -126 -185 -160q-95 69 -67 174q-38 -9 -66 -2q-42 -124 -157 -172q-45 26 -59.5 79.5zM223 657q6 25 24 74t33 85l15 36l49 -41q-45 -119 -57 -154 q-21 -73 -21 -110q88 49 160 143l59 162l45 -39q-61 -144 -81 -197l4 -2q83 148 176 232q6 6 16.5 6t18.5 -6l28 -29q8 -6 10 -18t-2 -23q-40 -87 -49 -117q-29 -66 -24 -110q85 43 168 143l10 -2q-74 -108 -164 -164q-41 19 -58.5 55t-0.5 76q30 66 67 154q4 12 -2 12 q-16 0 -65.5 -57.5t-95.5 -130.5t-54 -111l-51 41l31 82q-77 -85 -136 -121q-35 12 -48.5 49t-4.5 82zM283 236q-4 -25 12 -39q13 45 18 77q-26 -13 -30 -38zM319 924l3 6q79 15 106 86l8 -4q-1 -35 -17.5 -68.5t-41.5 -52.5h-12zM465 1158q-13 49 2.5 95t49 86t75.5 60 l33 -53q-68 -25 -100.5 -102.5t-4.5 -145.5q50 12 92 56.5t62 105.5q-35 19 -41 54.5t24 74.5l17 10l26 -39q2 -39 -6 -94q28 -11 74 0l49 133l47 -39q-63 -144 -86 -197l4 -4q72 132 176 236q7 3 17.5 3.5t17.5 -3.5l31 -29q17 -21 6 -43q-6 -14 -17 -40.5t-19.5 -46.5 t-12.5 -32q-30 -65 -23 -106q80 37 158 129l135 356l52 -39q-18 -46 -77.5 -192t-62.5 -154q-19 -56 -12 -100q76 38 158 133l67 172l47 -39q-51 -121 -63 -154q-27 -75 -8 -114q87 59 143 159l49 142l47 -37q-33 -101 -94 -275q39 14 91 60.5t89 93.5l11 -4 q-76 -112 -199 -170q-28 -76 -66.5 -131t-81.5 -55q-33 0 -44.5 17t-0.5 44q9 26 22 44.5t35 32.5t35 20.5t44 19.5q27 81 49 131l-6 2q-62 -76 -115 -117q-37 13 -56 48.5t-10 72.5q-58 -73 -133 -119q-35 10 -51.5 43.5t-7.5 69.5q-60 -70 -131 -113q-40 18 -56.5 51.5 t0.5 77.5q14 37 66 154q3 14 -2 14q-16 0 -65.5 -58.5t-96 -131t-53.5 -107.5l-49 35l47 141q-39 -8 -70 2q-20 -76 -64 -121.5t-104 -56.5q-46 34 -59 83zM610 43l109 283l45 -39q-23 -36 -43 -99h2q20 32 55 78t47 53q21 14 35 0q16 -13 25 -28q14 -28 -13.5 -60.5 t-66.5 -42.5l-8 7q57 38 47 108q-86 -58 -156 -213q-21 -56 -29 -88zM665.5 1307.5q-2.5 -22.5 12.5 -33.5q8 24 12 72q-22 -16 -24.5 -38.5zM823 422q19 46 140 385q-9 1 -27 2t-25 2l-18 23l8 10q34 -10 70 -13l28 72q16 45 46.5 81.5t64.5 43.5l41 -35l12 37l8 2 q13 -15 23 -33q-9 -22 -27.5 -43t-36.5 -30l-4 4l23 59q-11 -2 -20 -5t-16.5 -6.5t-14.5 -9.5t-11.5 -10t-10 -12t-8.5 -12t-7.5 -14t-5.5 -13.5t-5.5 -14t-5.5 -13.5l-18 -52q39 -3 80 7l6 -13q-30 -11 -94 -14l-152 -412q-28 12 -43 27zM868 84q12 33 47 57q9 -10 11 -14 q-32 -22 -35 -53q0 -32 20 -35q31 -4 57.5 13t35.5 44q9 28 -2.5 53t-30 41t-31 37.5t-4.5 44.5q10 30 44 42t69 1l24 -30l12 28l11 6q12 -16 24 -34q-19 -52 -69 -82l-7 4l27 72q-34 10 -58 2t-30 -29q-9 -24 2.5 -47.5t30.5 -39t32.5 -37t8.5 -42.5q-12 -41 -44.5 -63.5 t-72.5 -22.5q-36 0 -57 25.5t-15 58.5zM1085 664q7 24 24 72t31 84l13 36l43 -43q-43 -118 -53 -149q-17 -47 -17 -117q120 83 185 246l20 63l43 -43q-43 -118 -55 -149q-16 -66 -16 -117q73 37 141 112l141 377l51 -41q-11 -27 -44.5 -111.5t-60 -151t-30.5 -81.5 q-21 -53 -14 -104q76 43 141 121l144 368l47 -41q-16 -44 -73.5 -186.5t-62.5 -157.5q-20 -59 -14 -104q86 46 162 145l10 -4q-72 -106 -160 -164q-34 10 -52 42t-13 69q-56 -66 -119 -111q-33 10 -49.5 40t-13.5 65q-48 -57 -119 -109q-43 13 -52.5 57t13.5 101l-4 2 q-48 -79 -131 -154q-40 14 -54.5 53.5t-1.5 84.5zM1133 133l71 191l49 -39q-47 -121 -57 -152q-18 -63 -18 -110q87 50 151 133q10 54 47.5 101t87.5 69l33 -54q-70 -25 -103 -102t-5 -145q52 15 92.5 57t60.5 104q-32 19 -37.5 55t21.5 72l16 13l27 -39q0 -53 -6 -97 q32 -8 75 0l-6 -12q-41 -11 -71 2q-20 -75 -63 -120.5t-101 -57.5q-73 50 -70 129q-69 -86 -141 -129q-37 13 -50 49.5t-3 81.5zM1227 397l6 6q78 19 104 86l6 -6q0 -31 -16 -64t-39 -54l-10 -3zM1320 905q4 -14 19 -14q33 0 84 143q-68 -31 -102 -106q-5 -9 -1 -23z M1532.5 235q-1.5 -23 13.5 -34q10 38 10 71q-22 -14 -23.5 -37zM1585 41l107 285l43 -37q-62 -144 -82 -195l2 -4q36 63 84.5 126t93.5 103q5 5 16 5.5t17 -5.5l30 -24q16 -19 9 -43q-49 -113 -52 -119q-29 -64 -22 -108q85 42 166 141l10 -6q-73 -100 -162 -158 q-40 18 -57.5 54t0.5 77q34 73 65 152q3 14 -2 14q-16 0 -65.5 -58t-95.5 -131t-54 -110z" />
<glyph unicode="&#x26;" horiz-adv-x="1320" d="M56 313q-16 97 20 207q15 50 50.5 98t92.5 95.5t106 82.5t126 85q-16 189 38 338q32 87 100 150t140 63q41 0 83 -24.5t71.5 -66t40.5 -94.5t-9 -110q-18 -51 -54 -98.5t-95.5 -95t-105 -78.5t-125.5 -81q11 -167 82 -310t176 -238q113 125 133 296t-58 308l37 22 q97 -80 144 -135q36 -106 25.5 -209t-57 -192.5t-122.5 -161.5q144 -77 246 -23l18 -26q-53 -82 -104 -117q-117 0 -238 100q-160 -110 -358 -110q-108 0 -196.5 42t-139.5 114t-67 169zM117.5 287q9.5 -64 39.5 -114.5t85 -81t123 -30.5q218 0 370 119 q-93 108 -163.5 256.5t-102.5 306.5q-69 -44 -114 -75.5t-95.5 -74t-82 -86t-46.5 -89.5q-23 -67 -13.5 -131zM537 936q58 38 98.5 66t85.5 65.5t72.5 70t47 71t21.5 77.5q-61 50 -142 21t-114 -107q-52 -121 -69 -264z" />
<glyph unicode="'" d="M92.5 81.5q-14.5 53.5 3.5 94.5q7 24 20.5 61.5t23.5 62.5l10 26l49 -39q-48 -133 -56 -160q-15 -48 -2 -102q107 41 148 157q-36 17 -40.5 54.5t25.5 74.5l17 13l33 -41q0 -38 -11 -95q30 -10 68 0q15 43 51.5 79.5t85.5 58.5l33 -43q-46 -13 -79 -49.5t-44 -83.5 q64 23 106 69t48 109l12 6q9 -7 35 -39q-16 -56 -74.5 -99t-130.5 -61q-13 -55 10 -110q82 19 182 141l11 -4q-92 -126 -185 -160q-95 69 -67 174q-38 -9 -66 -2q-42 -124 -157 -172q-45 26 -59.5 79.5zM223 657q6 25 24 74t33 85l15 36l49 -41q-45 -119 -57 -154 q-21 -73 -21 -110q88 49 160 143l59 162l45 -39q-61 -144 -81 -197l4 -2q83 148 176 232q6 6 16.5 6t18.5 -6l28 -29q8 -6 10 -18t-2 -23q-40 -87 -49 -117q-29 -66 -24 -110q85 43 168 143l10 -2q-74 -108 -164 -164q-41 19 -58.5 55t-0.5 76q30 66 67 154q4 12 -2 12 q-16 0 -65.5 -57.5t-95.5 -130.5t-54 -111l-51 41l31 82q-77 -85 -136 -121q-35 12 -48.5 49t-4.5 82zM283 236q-4 -25 12 -39q13 45 18 77q-26 -13 -30 -38zM319 924l3 6q79 15 106 86l8 -4q-1 -35 -17.5 -68.5t-41.5 -52.5h-12zM465 1158q-13 49 2.5 95t49 86t75.5 60 l33 -53q-68 -25 -100.5 -102.5t-4.5 -145.5q50 12 92 56.5t62 105.5q-35 19 -41 54.5t24 74.5l17 10l26 -39q2 -39 -6 -94q28 -11 74 0l49 133l47 -39q-63 -144 -86 -197l4 -4q72 132 176 236q7 3 17.5 3.5t17.5 -3.5l31 -29q17 -21 6 -43q-6 -14 -17 -40.5t-19.5 -46.5 t-12.5 -32q-30 -65 -23 -106q80 37 158 129l135 356l52 -39q-18 -46 -77.5 -192t-62.5 -154q-19 -56 -12 -100q76 38 158 133l67 172l47 -39q-51 -121 -63 -154q-27 -75 -8 -114q87 59 143 159l49 142l47 -37q-33 -101 -94 -275q39 14 91 60.5t89 93.5l11 -4 q-76 -112 -199 -170q-28 -76 -66.5 -131t-81.5 -55q-33 0 -44.5 17t-0.5 44q9 26 22 44.5t35 32.5t35 20.5t44 19.5q27 81 49 131l-6 2q-62 -76 -115 -117q-37 13 -56 48.5t-10 72.5q-58 -73 -133 -119q-35 10 -51.5 43.5t-7.5 69.5q-60 -70 -131 -113q-40 18 -56.5 51.5 t0.5 77.5q14 37 66 154q3 14 -2 14q-16 0 -65.5 -58.5t-96 -131t-53.5 -107.5l-49 35l47 141q-39 -8 -70 2q-20 -76 -64 -121.5t-104 -56.5q-46 34 -59 83zM610 43l109 283l45 -39q-23 -36 -43 -99h2q20 32 55 78t47 53q21 14 35 0q16 -13 25 -28q14 -28 -13.5 -60.5 t-66.5 -42.5l-8 7q57 38 47 108q-86 -58 -156 -213q-21 -56 -29 -88zM665.5 1307.5q-2.5 -22.5 12.5 -33.5q8 24 12 72q-22 -16 -24.5 -38.5zM823 422q19 46 140 385q-9 1 -27 2t-25 2l-18 23l8 10q34 -10 70 -13l28 72q16 45 46.5 81.5t64.5 43.5l41 -35l12 37l8 2 q13 -15 23 -33q-9 -22 -27.5 -43t-36.5 -30l-4 4l23 59q-11 -2 -20 -5t-16.5 -6.5t-14.5 -9.5t-11.5 -10t-10 -12t-8.5 -12t-7.5 -14t-5.5 -13.5t-5.5 -14t-5.5 -13.5l-18 -52q39 -3 80 7l6 -13q-30 -11 -94 -14l-152 -412q-28 12 -43 27zM868 84q12 33 47 57q9 -10 11 -14 q-32 -22 -35 -53q0 -32 20 -35q31 -4 57.5 13t35.5 44q9 28 -2.5 53t-30 41t-31 37.5t-4.5 44.5q10 30 44 42t69 1l24 -30l12 28l11 6q12 -16 24 -34q-19 -52 -69 -82l-7 4l27 72q-34 10 -58 2t-30 -29q-9 -24 2.5 -47.5t30.5 -39t32.5 -37t8.5 -42.5q-12 -41 -44.5 -63.5 t-72.5 -22.5q-36 0 -57 25.5t-15 58.5zM1085 664q7 24 24 72t31 84l13 36l43 -43q-43 -118 -53 -149q-17 -47 -17 -117q120 83 185 246l20 63l43 -43q-43 -118 -55 -149q-16 -66 -16 -117q73 37 141 112l141 377l51 -41q-11 -27 -44.5 -111.5t-60 -151t-30.5 -81.5 q-21 -53 -14 -104q76 43 141 121l144 368l47 -41q-16 -44 -73.5 -186.5t-62.5 -157.5q-20 -59 -14 -104q86 46 162 145l10 -4q-72 -106 -160 -164q-34 10 -52 42t-13 69q-56 -66 -119 -111q-33 10 -49.5 40t-13.5 65q-48 -57 -119 -109q-43 13 -52.5 57t13.5 101l-4 2 q-48 -79 -131 -154q-40 14 -54.5 53.5t-1.5 84.5zM1133 133l71 191l49 -39q-47 -121 -57 -152q-18 -63 -18 -110q87 50 151 133q10 54 47.5 101t87.5 69l33 -54q-70 -25 -103 -102t-5 -145q52 15 92.5 57t60.5 104q-32 19 -37.5 55t21.5 72l16 13l27 -39q0 -53 -6 -97 q32 -8 75 0l-6 -12q-41 -11 -71 2q-20 -75 -63 -120.5t-101 -57.5q-73 50 -70 129q-69 -86 -141 -129q-37 13 -50 49.5t-3 81.5zM1227 397l6 6q78 19 104 86l6 -6q0 -31 -16 -64t-39 -54l-10 -3zM1320 905q4 -14 19 -14q33 0 84 143q-68 -31 -102 -106q-5 -9 -1 -23z M1532.5 235q-1.5 -23 13.5 -34q10 38 10 71q-22 -14 -23.5 -37zM1585 41l107 285l43 -37q-62 -144 -82 -195l2 -4q36 63 84.5 126t93.5 103q5 5 16 5.5t17 -5.5l30 -24q16 -19 9 -43q-49 -113 -52 -119q-29 -64 -22 -108q85 42 166 141l10 -6q-73 -100 -162 -158 q-40 18 -57.5 54t0.5 77q34 73 65 152q3 14 -2 14q-16 0 -65.5 -58t-95.5 -131t-54 -110z" />
<glyph unicode="(" d="M92.5 81.5q-14.5 53.5 3.5 94.5q7 24 20.5 61.5t23.5 62.5l10 26l49 -39q-48 -133 -56 -160q-15 -48 -2 -102q107 41 148 157q-36 17 -40.5 54.5t25.5 74.5l17 13l33 -41q0 -38 -11 -95q30 -10 68 0q15 43 51.5 79.5t85.5 58.5l33 -43q-46 -13 -79 -49.5t-44 -83.5 q64 23 106 69t48 109l12 6q9 -7 35 -39q-16 -56 -74.5 -99t-130.5 -61q-13 -55 10 -110q82 19 182 141l11 -4q-92 -126 -185 -160q-95 69 -67 174q-38 -9 -66 -2q-42 -124 -157 -172q-45 26 -59.5 79.5zM223 657q6 25 24 74t33 85l15 36l49 -41q-45 -119 -57 -154 q-21 -73 -21 -110q88 49 160 143l59 162l45 -39q-61 -144 -81 -197l4 -2q83 148 176 232q6 6 16.5 6t18.5 -6l28 -29q8 -6 10 -18t-2 -23q-40 -87 -49 -117q-29 -66 -24 -110q85 43 168 143l10 -2q-74 -108 -164 -164q-41 19 -58.5 55t-0.5 76q30 66 67 154q4 12 -2 12 q-16 0 -65.5 -57.5t-95.5 -130.5t-54 -111l-51 41l31 82q-77 -85 -136 -121q-35 12 -48.5 49t-4.5 82zM283 236q-4 -25 12 -39q13 45 18 77q-26 -13 -30 -38zM319 924l3 6q79 15 106 86l8 -4q-1 -35 -17.5 -68.5t-41.5 -52.5h-12zM465 1158q-13 49 2.5 95t49 86t75.5 60 l33 -53q-68 -25 -100.5 -102.5t-4.5 -145.5q50 12 92 56.5t62 105.5q-35 19 -41 54.5t24 74.5l17 10l26 -39q2 -39 -6 -94q28 -11 74 0l49 133l47 -39q-63 -144 -86 -197l4 -4q72 132 176 236q7 3 17.5 3.5t17.5 -3.5l31 -29q17 -21 6 -43q-6 -14 -17 -40.5t-19.5 -46.5 t-12.5 -32q-30 -65 -23 -106q80 37 158 129l135 356l52 -39q-18 -46 -77.5 -192t-62.5 -154q-19 -56 -12 -100q76 38 158 133l67 172l47 -39q-51 -121 -63 -154q-27 -75 -8 -114q87 59 143 159l49 142l47 -37q-33 -101 -94 -275q39 14 91 60.5t89 93.5l11 -4 q-76 -112 -199 -170q-28 -76 -66.5 -131t-81.5 -55q-33 0 -44.5 17t-0.5 44q9 26 22 44.5t35 32.5t35 20.5t44 19.5q27 81 49 131l-6 2q-62 -76 -115 -117q-37 13 -56 48.5t-10 72.5q-58 -73 -133 -119q-35 10 -51.5 43.5t-7.5 69.5q-60 -70 -131 -113q-40 18 -56.5 51.5 t0.5 77.5q14 37 66 154q3 14 -2 14q-16 0 -65.5 -58.5t-96 -131t-53.5 -107.5l-49 35l47 141q-39 -8 -70 2q-20 -76 -64 -121.5t-104 -56.5q-46 34 -59 83zM610 43l109 283l45 -39q-23 -36 -43 -99h2q20 32 55 78t47 53q21 14 35 0q16 -13 25 -28q14 -28 -13.5 -60.5 t-66.5 -42.5l-8 7q57 38 47 108q-86 -58 -156 -213q-21 -56 -29 -88zM665.5 1307.5q-2.5 -22.5 12.5 -33.5q8 24 12 72q-22 -16 -24.5 -38.5zM823 422q19 46 140 385q-9 1 -27 2t-25 2l-18 23l8 10q34 -10 70 -13l28 72q16 45 46.5 81.5t64.5 43.5l41 -35l12 37l8 2 q13 -15 23 -33q-9 -22 -27.5 -43t-36.5 -30l-4 4l23 59q-11 -2 -20 -5t-16.5 -6.5t-14.5 -9.5t-11.5 -10t-10 -12t-8.5 -12t-7.5 -14t-5.5 -13.5t-5.5 -14t-5.5 -13.5l-18 -52q39 -3 80 7l6 -13q-30 -11 -94 -14l-152 -412q-28 12 -43 27zM868 84q12 33 47 57q9 -10 11 -14 q-32 -22 -35 -53q0 -32 20 -35q31 -4 57.5 13t35.5 44q9 28 -2.5 53t-30 41t-31 37.5t-4.5 44.5q10 30 44 42t69 1l24 -30l12 28l11 6q12 -16 24 -34q-19 -52 -69 -82l-7 4l27 72q-34 10 -58 2t-30 -29q-9 -24 2.5 -47.5t30.5 -39t32.5 -37t8.5 -42.5q-12 -41 -44.5 -63.5 t-72.5 -22.5q-36 0 -57 25.5t-15 58.5zM1085 664q7 24 24 72t31 84l13 36l43 -43q-43 -118 -53 -149q-17 -47 -17 -117q120 83 185 246l20 63l43 -43q-43 -118 -55 -149q-16 -66 -16 -117q73 37 141 112l141 377l51 -41q-11 -27 -44.5 -111.5t-60 -151t-30.5 -81.5 q-21 -53 -14 -104q76 43 141 121l144 368l47 -41q-16 -44 -73.5 -186.5t-62.5 -157.5q-20 -59 -14 -104q86 46 162 145l10 -4q-72 -106 -160 -164q-34 10 -52 42t-13 69q-56 -66 -119 -111q-33 10 -49.5 40t-13.5 65q-48 -57 -119 -109q-43 13 -52.5 57t13.5 101l-4 2 q-48 -79 -131 -154q-40 14 -54.5 53.5t-1.5 84.5zM1133 133l71 191l49 -39q-47 -121 -57 -152q-18 -63 -18 -110q87 50 151 133q10 54 47.5 101t87.5 69l33 -54q-70 -25 -103 -102t-5 -145q52 15 92.5 57t60.5 104q-32 19 -37.5 55t21.5 72l16 13l27 -39q0 -53 -6 -97 q32 -8 75 0l-6 -12q-41 -11 -71 2q-20 -75 -63 -120.5t-101 -57.5q-73 50 -70 129q-69 -86 -141 -129q-37 13 -50 49.5t-3 81.5zM1227 397l6 6q78 19 104 86l6 -6q0 -31 -16 -64t-39 -54l-10 -3zM1320 905q4 -14 19 -14q33 0 84 143q-68 -31 -102 -106q-5 -9 -1 -23z M1532.5 235q-1.5 -23 13.5 -34q10 38 10 71q-22 -14 -23.5 -37zM1585 41l107 285l43 -37q-62 -144 -82 -195l2 -4q36 63 84.5 126t93.5 103q5 5 16 5.5t17 -5.5l30 -24q16 -19 9 -43q-49 -113 -52 -119q-29 -64 -22 -108q85 42 166 141l10 -6q-73 -100 -162 -158 q-40 18 -57.5 54t0.5 77q34 73 65 152q3 14 -2 14q-16 0 -65.5 -58t-95.5 -131t-54 -110z" />
<glyph unicode=")" d="M92.5 81.5q-14.5 53.5 3.5 94.5q7 24 20.5 61.5t23.5 62.5l10 26l49 -39q-48 -133 -56 -160q-15 -48 -2 -102q107 41 148 157q-36 17 -40.5 54.5t25.5 74.5l17 13l33 -41q0 -38 -11 -95q30 -10 68 0q15 43 51.5 79.5t85.5 58.5l33 -43q-46 -13 -79 -49.5t-44 -83.5 q64 23 106 69t48 109l12 6q9 -7 35 -39q-16 -56 -74.5 -99t-130.5 -61q-13 -55 10 -110q82 19 182 141l11 -4q-92 -126 -185 -160q-95 69 -67 174q-38 -9 -66 -2q-42 -124 -157 -172q-45 26 -59.5 79.5zM223 657q6 25 24 74t33 85l15 36l49 -41q-45 -119 -57 -154 q-21 -73 -21 -110q88 49 160 143l59 162l45 -39q-61 -144 -81 -197l4 -2q83 148 176 232q6 6 16.5 6t18.5 -6l28 -29q8 -6 10 -18t-2 -23q-40 -87 -49 -117q-29 -66 -24 -110q85 43 168 143l10 -2q-74 -108 -164 -164q-41 19 -58.5 55t-0.5 76q30 66 67 154q4 12 -2 12 q-16 0 -65.5 -57.5t-95.5 -130.5t-54 -111l-51 41l31 82q-77 -85 -136 -121q-35 12 -48.5 49t-4.5 82zM283 236q-4 -25 12 -39q13 45 18 77q-26 -13 -30 -38zM319 924l3 6q79 15 106 86l8 -4q-1 -35 -17.5 -68.5t-41.5 -52.5h-12zM465 1158q-13 49 2.5 95t49 86t75.5 60 l33 -53q-68 -25 -100.5 -102.5t-4.5 -145.5q50 12 92 56.5t62 105.5q-35 19 -41 54.5t24 74.5l17 10l26 -39q2 -39 -6 -94q28 -11 74 0l49 133l47 -39q-63 -144 -86 -197l4 -4q72 132 176 236q7 3 17.5 3.5t17.5 -3.5l31 -29q17 -21 6 -43q-6 -14 -17 -40.5t-19.5 -46.5 t-12.5 -32q-30 -65 -23 -106q80 37 158 129l135 356l52 -39q-18 -46 -77.5 -192t-62.5 -154q-19 -56 -12 -100q76 38 158 133l67 172l47 -39q-51 -121 -63 -154q-27 -75 -8 -114q87 59 143 159l49 142l47 -37q-33 -101 -94 -275q39 14 91 60.5t89 93.5l11 -4 q-76 -112 -199 -170q-28 -76 -66.5 -131t-81.5 -55q-33 0 -44.5 17t-0.5 44q9 26 22 44.5t35 32.5t35 20.5t44 19.5q27 81 49 131l-6 2q-62 -76 -115 -117q-37 13 -56 48.5t-10 72.5q-58 -73 -133 -119q-35 10 -51.5 43.5t-7.5 69.5q-60 -70 -131 -113q-40 18 -56.5 51.5 t0.5 77.5q14 37 66 154q3 14 -2 14q-16 0 -65.5 -58.5t-96 -131t-53.5 -107.5l-49 35l47 141q-39 -8 -70 2q-20 -76 -64 -121.5t-104 -56.5q-46 34 -59 83zM610 43l109 283l45 -39q-23 -36 -43 -99h2q20 32 55 78t47 53q21 14 35 0q16 -13 25 -28q14 -28 -13.5 -60.5 t-66.5 -42.5l-8 7q57 38 47 108q-86 -58 -156 -213q-21 -56 -29 -88zM665.5 1307.5q-2.5 -22.5 12.5 -33.5q8 24 12 72q-22 -16 -24.5 -38.5zM823 422q19 46 140 385q-9 1 -27 2t-25 2l-18 23l8 10q34 -10 70 -13l28 72q16 45 46.5 81.5t64.5 43.5l41 -35l12 37l8 2 q13 -15 23 -33q-9 -22 -27.5 -43t-36.5 -30l-4 4l23 59q-11 -2 -20 -5t-16.5 -6.5t-14.5 -9.5t-11.5 -10t-10 -12t-8.5 -12t-7.5 -14t-5.5 -13.5t-5.5 -14t-5.5 -13.5l-18 -52q39 -3 80 7l6 -13q-30 -11 -94 -14l-152 -412q-28 12 -43 27zM868 84q12 33 47 57q9 -10 11 -14 q-32 -22 -35 -53q0 -32 20 -35q31 -4 57.5 13t35.5 44q9 28 -2.5 53t-30 41t-31 37.5t-4.5 44.5q10 30 44 42t69 1l24 -30l12 28l11 6q12 -16 24 -34q-19 -52 -69 -82l-7 4l27 72q-34 10 -58 2t-30 -29q-9 -24 2.5 -47.5t30.5 -39t32.5 -37t8.5 -42.5q-12 -41 -44.5 -63.5 t-72.5 -22.5q-36 0 -57 25.5t-15 58.5zM1085 664q7 24 24 72t31 84l13 36l43 -43q-43 -118 -53 -149q-17 -47 -17 -117q120 83 185 246l20 63l43 -43q-43 -118 -55 -149q-16 -66 -16 -117q73 37 141 112l141 377l51 -41q-11 -27 -44.5 -111.5t-60 -151t-30.5 -81.5 q-21 -53 -14 -104q76 43 141 121l144 368l47 -41q-16 -44 -73.5 -186.5t-62.5 -157.5q-20 -59 -14 -104q86 46 162 145l10 -4q-72 -106 -160 -164q-34 10 -52 42t-13 69q-56 -66 -119 -111q-33 10 -49.5 40t-13.5 65q-48 -57 -119 -109q-43 13 -52.5 57t13.5 101l-4 2 q-48 -79 -131 -154q-40 14 -54.5 53.5t-1.5 84.5zM1133 133l71 191l49 -39q-47 -121 -57 -152q-18 -63 -18 -110q87 50 151 133q10 54 47.5 101t87.5 69l33 -54q-70 -25 -103 -102t-5 -145q52 15 92.5 57t60.5 104q-32 19 -37.5 55t21.5 72l16 13l27 -39q0 -53 -6 -97 q32 -8 75 0l-6 -12q-41 -11 -71 2q-20 -75 -63 -120.5t-101 -57.5q-73 50 -70 129q-69 -86 -141 -129q-37 13 -50 49.5t-3 81.5zM1227 397l6 6q78 19 104 86l6 -6q0 -31 -16 -64t-39 -54l-10 -3zM1320 905q4 -14 19 -14q33 0 84 143q-68 -31 -102 -106q-5 -9 -1 -23z M1532.5 235q-1.5 -23 13.5 -34q10 38 10 71q-22 -14 -23.5 -37zM1585 41l107 285l43 -37q-62 -144 -82 -195l2 -4q36 63 84.5 126t93.5 103q5 5 16 5.5t17 -5.5l30 -24q16 -19 9 -43q-49 -113 -52 -119q-29 -64 -22 -108q85 42 166 141l10 -6q-73 -100 -162 -158 q-40 18 -57.5 54t0.5 77q34 73 65 152q3 14 -2 14q-16 0 -65.5 -58t-95.5 -131t-54 -110z" />
<glyph unicode="*" d="M92.5 81.5q-14.5 53.5 3.5 94.5q7 24 20.5 61.5t23.5 62.5l10 26l49 -39q-48 -133 -56 -160q-15 -48 -2 -102q107 41 148 157q-36 17 -40.5 54.5t25.5 74.5l17 13l33 -41q0 -38 -11 -95q30 -10 68 0q15 43 51.5 79.5t85.5 58.5l33 -43q-46 -13 -79 -49.5t-44 -83.5 q64 23 106 69t48 109l12 6q9 -7 35 -39q-16 -56 -74.5 -99t-130.5 -61q-13 -55 10 -110q82 19 182 141l11 -4q-92 -126 -185 -160q-95 69 -67 174q-38 -9 -66 -2q-42 -124 -157 -172q-45 26 -59.5 79.5zM223 657q6 25 24 74t33 85l15 36l49 -41q-45 -119 -57 -154 q-21 -73 -21 -110q88 49 160 143l59 162l45 -39q-61 -144 -81 -197l4 -2q83 148 176 232q6 6 16.5 6t18.5 -6l28 -29q8 -6 10 -18t-2 -23q-40 -87 -49 -117q-29 -66 -24 -110q85 43 168 143l10 -2q-74 -108 -164 -164q-41 19 -58.5 55t-0.5 76q30 66 67 154q4 12 -2 12 q-16 0 -65.5 -57.5t-95.5 -130.5t-54 -111l-51 41l31 82q-77 -85 -136 -121q-35 12 -48.5 49t-4.5 82zM283 236q-4 -25 12 -39q13 45 18 77q-26 -13 -30 -38zM319 924l3 6q79 15 106 86l8 -4q-1 -35 -17.5 -68.5t-41.5 -52.5h-12zM465 1158q-13 49 2.5 95t49 86t75.5 60 l33 -53q-68 -25 -100.5 -102.5t-4.5 -145.5q50 12 92 56.5t62 105.5q-35 19 -41 54.5t24 74.5l17 10l26 -39q2 -39 -6 -94q28 -11 74 0l49 133l47 -39q-63 -144 -86 -197l4 -4q72 132 176 236q7 3 17.5 3.5t17.5 -3.5l31 -29q17 -21 6 -43q-6 -14 -17 -40.5t-19.5 -46.5 t-12.5 -32q-30 -65 -23 -106q80 37 158 129l135 356l52 -39q-18 -46 -77.5 -192t-62.5 -154q-19 -56 -12 -100q76 38 158 133l67 172l47 -39q-51 -121 -63 -154q-27 -75 -8 -114q87 59 143 159l49 142l47 -37q-33 -101 -94 -275q39 14 91 60.5t89 93.5l11 -4 q-76 -112 -199 -170q-28 -76 -66.5 -131t-81.5 -55q-33 0 -44.5 17t-0.5 44q9 26 22 44.5t35 32.5t35 20.5t44 19.5q27 81 49 131l-6 2q-62 -76 -115 -117q-37 13 -56 48.5t-10 72.5q-58 -73 -133 -119q-35 10 -51.5 43.5t-7.5 69.5q-60 -70 -131 -113q-40 18 -56.5 51.5 t0.5 77.5q14 37 66 154q3 14 -2 14q-16 0 -65.5 -58.5t-96 -131t-53.5 -107.5l-49 35l47 141q-39 -8 -70 2q-20 -76 -64 -121.5t-104 -56.5q-46 34 -59 83zM610 43l109 283l45 -39q-23 -36 -43 -99h2q20 32 55 78t47 53q21 14 35 0q16 -13 25 -28q14 -28 -13.5 -60.5 t-66.5 -42.5l-8 7q57 38 47 108q-86 -58 -156 -213q-21 -56 -29 -88zM665.5 1307.5q-2.5 -22.5 12.5 -33.5q8 24 12 72q-22 -16 -24.5 -38.5zM823 422q19 46 140 385q-9 1 -27 2t-25 2l-18 23l8 10q34 -10 70 -13l28 72q16 45 46.5 81.5t64.5 43.5l41 -35l12 37l8 2 q13 -15 23 -33q-9 -22 -27.5 -43t-36.5 -30l-4 4l23 59q-11 -2 -20 -5t-16.5 -6.5t-14.5 -9.5t-11.5 -10t-10 -12t-8.5 -12t-7.5 -14t-5.5 -13.5t-5.5 -14t-5.5 -13.5l-18 -52q39 -3 80 7l6 -13q-30 -11 -94 -14l-152 -412q-28 12 -43 27zM868 84q12 33 47 57q9 -10 11 -14 q-32 -22 -35 -53q0 -32 20 -35q31 -4 57.5 13t35.5 44q9 28 -2.5 53t-30 41t-31 37.5t-4.5 44.5q10 30 44 42t69 1l24 -30l12 28l11 6q12 -16 24 -34q-19 -52 -69 -82l-7 4l27 72q-34 10 -58 2t-30 -29q-9 -24 2.5 -47.5t30.5 -39t32.5 -37t8.5 -42.5q-12 -41 -44.5 -63.5 t-72.5 -22.5q-36 0 -57 25.5t-15 58.5zM1085 664q7 24 24 72t31 84l13 36l43 -43q-43 -118 -53 -149q-17 -47 -17 -117q120 83 185 246l20 63l43 -43q-43 -118 -55 -149q-16 -66 -16 -117q73 37 141 112l141 377l51 -41q-11 -27 -44.5 -111.5t-60 -151t-30.5 -81.5 q-21 -53 -14 -104q76 43 141 121l144 368l47 -41q-16 -44 -73.5 -186.5t-62.5 -157.5q-20 -59 -14 -104q86 46 162 145l10 -4q-72 -106 -160 -164q-34 10 -52 42t-13 69q-56 -66 -119 -111q-33 10 -49.5 40t-13.5 65q-48 -57 -119 -109q-43 13 -52.5 57t13.5 101l-4 2 q-48 -79 -131 -154q-40 14 -54.5 53.5t-1.5 84.5zM1133 133l71 191l49 -39q-47 -121 -57 -152q-18 -63 -18 -110q87 50 151 133q10 54 47.5 101t87.5 69l33 -54q-70 -25 -103 -102t-5 -145q52 15 92.5 57t60.5 104q-32 19 -37.5 55t21.5 72l16 13l27 -39q0 -53 -6 -97 q32 -8 75 0l-6 -12q-41 -11 -71 2q-20 -75 -63 -120.5t-101 -57.5q-73 50 -70 129q-69 -86 -141 -129q-37 13 -50 49.5t-3 81.5zM1227 397l6 6q78 19 104 86l6 -6q0 -31 -16 -64t-39 -54l-10 -3zM1320 905q4 -14 19 -14q33 0 84 143q-68 -31 -102 -106q-5 -9 -1 -23z M1532.5 235q-1.5 -23 13.5 -34q10 38 10 71q-22 -14 -23.5 -37zM1585 41l107 285l43 -37q-62 -144 -82 -195l2 -4q36 63 84.5 126t93.5 103q5 5 16 5.5t17 -5.5l30 -24q16 -19 9 -43q-49 -113 -52 -119q-29 -64 -22 -108q85 42 166 141l10 -6q-73 -100 -162 -158 q-40 18 -57.5 54t0.5 77q34 73 65 152q3 14 -2 14q-16 0 -65.5 -58t-95.5 -131t-54 -110z" />
<glyph unicode="+" d="M92.5 81.5q-14.5 53.5 3.5 94.5q7 24 20.5 61.5t23.5 62.5l10 26l49 -39q-48 -133 -56 -160q-15 -48 -2 -102q107 41 148 157q-36 17 -40.5 54.5t25.5 74.5l17 13l33 -41q0 -38 -11 -95q30 -10 68 0q15 43 51.5 79.5t85.5 58.5l33 -43q-46 -13 -79 -49.5t-44 -83.5 q64 23 106 69t48 109l12 6q9 -7 35 -39q-16 -56 -74.5 -99t-130.5 -61q-13 -55 10 -110q82 19 182 141l11 -4q-92 -126 -185 -160q-95 69 -67 174q-38 -9 -66 -2q-42 -124 -157 -172q-45 26 -59.5 79.5zM223 657q6 25 24 74t33 85l15 36l49 -41q-45 -119 -57 -154 q-21 -73 -21 -110q88 49 160 143l59 162l45 -39q-61 -144 -81 -197l4 -2q83 148 176 232q6 6 16.5 6t18.5 -6l28 -29q8 -6 10 -18t-2 -23q-40 -87 -49 -117q-29 -66 -24 -110q85 43 168 143l10 -2q-74 -108 -164 -164q-41 19 -58.5 55t-0.5 76q30 66 67 154q4 12 -2 12 q-16 0 -65.5 -57.5t-95.5 -130.5t-54 -111l-51 41l31 82q-77 -85 -136 -121q-35 12 -48.5 49t-4.5 82zM283 236q-4 -25 12 -39q13 45 18 77q-26 -13 -30 -38zM319 924l3 6q79 15 106 86l8 -4q-1 -35 -17.5 -68.5t-41.5 -52.5h-12zM465 1158q-13 49 2.5 95t49 86t75.5 60 l33 -53q-68 -25 -100.5 -102.5t-4.5 -145.5q50 12 92 56.5t62 105.5q-35 19 -41 54.5t24 74.5l17 10l26 -39q2 -39 -6 -94q28 -11 74 0l49 133l47 -39q-63 -144 -86 -197l4 -4q72 132 176 236q7 3 17.5 3.5t17.5 -3.5l31 -29q17 -21 6 -43q-6 -14 -17 -40.5t-19.5 -46.5 t-12.5 -32q-30 -65 -23 -106q80 37 158 129l135 356l52 -39q-18 -46 -77.5 -192t-62.5 -154q-19 -56 -12 -100q76 38 158 133l67 172l47 -39q-51 -121 -63 -154q-27 -75 -8 -114q87 59 143 159l49 142l47 -37q-33 -101 -94 -275q39 14 91 60.5t89 93.5l11 -4 q-76 -112 -199 -170q-28 -76 -66.5 -131t-81.5 -55q-33 0 -44.5 17t-0.5 44q9 26 22 44.5t35 32.5t35 20.5t44 19.5q27 81 49 131l-6 2q-62 -76 -115 -117q-37 13 -56 48.5t-10 72.5q-58 -73 -133 -119q-35 10 -51.5 43.5t-7.5 69.5q-60 -70 -131 -113q-40 18 -56.5 51.5 t0.5 77.5q14 37 66 154q3 14 -2 14q-16 0 -65.5 -58.5t-96 -131t-53.5 -107.5l-49 35l47 141q-39 -8 -70 2q-20 -76 -64 -121.5t-104 -56.5q-46 34 -59 83zM610 43l109 283l45 -39q-23 -36 -43 -99h2q20 32 55 78t47 53q21 14 35 0q16 -13 25 -28q14 -28 -13.5 -60.5 t-66.5 -42.5l-8 7q57 38 47 108q-86 -58 -156 -213q-21 -56 -29 -88zM665.5 1307.5q-2.5 -22.5 12.5 -33.5q8 24 12 72q-22 -16 -24.5 -38.5zM823 422q19 46 140 385q-9 1 -27 2t-25 2l-18 23l8 10q34 -10 70 -13l28 72q16 45 46.5 81.5t64.5 43.5l41 -35l12 37l8 2 q13 -15 23 -33q-9 -22 -27.5 -43t-36.5 -30l-4 4l23 59q-11 -2 -20 -5t-16.5 -6.5t-14.5 -9.5t-11.5 -10t-10 -12t-8.5 -12t-7.5 -14t-5.5 -13.5t-5.5 -14t-5.5 -13.5l-18 -52q39 -3 80 7l6 -13q-30 -11 -94 -14l-152 -412q-28 12 -43 27zM868 84q12 33 47 57q9 -10 11 -14 q-32 -22 -35 -53q0 -32 20 -35q31 -4 57.5 13t35.5 44q9 28 -2.5 53t-30 41t-31 37.5t-4.5 44.5q10 30 44 42t69 1l24 -30l12 28l11 6q12 -16 24 -34q-19 -52 -69 -82l-7 4l27 72q-34 10 -58 2t-30 -29q-9 -24 2.5 -47.5t30.5 -39t32.5 -37t8.5 -42.5q-12 -41 -44.5 -63.5 t-72.5 -22.5q-36 0 -57 25.5t-15 58.5zM1085 664q7 24 24 72t31 84l13 36l43 -43q-43 -118 -53 -149q-17 -47 -17 -117q120 83 185 246l20 63l43 -43q-43 -118 -55 -149q-16 -66 -16 -117q73 37 141 112l141 377l51 -41q-11 -27 -44.5 -111.5t-60 -151t-30.5 -81.5 q-21 -53 -14 -104q76 43 141 121l144 368l47 -41q-16 -44 -73.5 -186.5t-62.5 -157.5q-20 -59 -14 -104q86 46 162 145l10 -4q-72 -106 -160 -164q-34 10 -52 42t-13 69q-56 -66 -119 -111q-33 10 -49.5 40t-13.5 65q-48 -57 -119 -109q-43 13 -52.5 57t13.5 101l-4 2 q-48 -79 -131 -154q-40 14 -54.5 53.5t-1.5 84.5zM1133 133l71 191l49 -39q-47 -121 -57 -152q-18 -63 -18 -110q87 50 151 133q10 54 47.5 101t87.5 69l33 -54q-70 -25 -103 -102t-5 -145q52 15 92.5 57t60.5 104q-32 19 -37.5 55t21.5 72l16 13l27 -39q0 -53 -6 -97 q32 -8 75 0l-6 -12q-41 -11 -71 2q-20 -75 -63 -120.5t-101 -57.5q-73 50 -70 129q-69 -86 -141 -129q-37 13 -50 49.5t-3 81.5zM1227 397l6 6q78 19 104 86l6 -6q0 -31 -16 -64t-39 -54l-10 -3zM1320 905q4 -14 19 -14q33 0 84 143q-68 -31 -102 -106q-5 -9 -1 -23z M1532.5 235q-1.5 -23 13.5 -34q10 38 10 71q-22 -14 -23.5 -37zM1585 41l107 285l43 -37q-62 -144 -82 -195l2 -4q36 63 84.5 126t93.5 103q5 5 16 5.5t17 -5.5l30 -24q16 -19 9 -43q-49 -113 -52 -119q-29 -64 -22 -108q85 42 166 141l10 -6q-73 -100 -162 -158 q-40 18 -57.5 54t0.5 77q34 73 65 152q3 14 -2 14q-16 0 -65.5 -58t-95.5 -131t-54 -110z" />
<glyph unicode="," horiz-adv-x="378" d="M-170 -193q77 66 123.5 177t46.5 198l41 25q76 -70 86 -84q-30 -97 -106.5 -201t-155.5 -139q-19 12 -35 24z" />
<glyph unicode="-" d="M92.5 81.5q-14.5 53.5 3.5 94.5q7 24 20.5 61.5t23.5 62.5l10 26l49 -39q-48 -133 -56 -160q-15 -48 -2 -102q107 41 148 157q-36 17 -40.5 54.5t25.5 74.5l17 13l33 -41q0 -38 -11 -95q30 -10 68 0q15 43 51.5 79.5t85.5 58.5l33 -43q-46 -13 -79 -49.5t-44 -83.5 q64 23 106 69t48 109l12 6q9 -7 35 -39q-16 -56 -74.5 -99t-130.5 -61q-13 -55 10 -110q82 19 182 141l11 -4q-92 -126 -185 -160q-95 69 -67 174q-38 -9 -66 -2q-42 -124 -157 -172q-45 26 -59.5 79.5zM223 657q6 25 24 74t33 85l15 36l49 -41q-45 -119 -57 -154 q-21 -73 -21 -110q88 49 160 143l59 162l45 -39q-61 -144 -81 -197l4 -2q83 148 176 232q6 6 16.5 6t18.5 -6l28 -29q8 -6 10 -18t-2 -23q-40 -87 -49 -117q-29 -66 -24 -110q85 43 168 143l10 -2q-74 -108 -164 -164q-41 19 -58.5 55t-0.5 76q30 66 67 154q4 12 -2 12 q-16 0 -65.5 -57.5t-95.5 -130.5t-54 -111l-51 41l31 82q-77 -85 -136 -121q-35 12 -48.5 49t-4.5 82zM283 236q-4 -25 12 -39q13 45 18 77q-26 -13 -30 -38zM319 924l3 6q79 15 106 86l8 -4q-1 -35 -17.5 -68.5t-41.5 -52.5h-12zM465 1158q-13 49 2.5 95t49 86t75.5 60 l33 -53q-68 -25 -100.5 -102.5t-4.5 -145.5q50 12 92 56.5t62 105.5q-35 19 -41 54.5t24 74.5l17 10l26 -39q2 -39 -6 -94q28 -11 74 0l49 133l47 -39q-63 -144 -86 -197l4 -4q72 132 176 236q7 3 17.5 3.5t17.5 -3.5l31 -29q17 -21 6 -43q-6 -14 -17 -40.5t-19.5 -46.5 t-12.5 -32q-30 -65 -23 -106q80 37 158 129l135 356l52 -39q-18 -46 -77.5 -192t-62.5 -154q-19 -56 -12 -100q76 38 158 133l67 172l47 -39q-51 -121 -63 -154q-27 -75 -8 -114q87 59 143 159l49 142l47 -37q-33 -101 -94 -275q39 14 91 60.5t89 93.5l11 -4 q-76 -112 -199 -170q-28 -76 -66.5 -131t-81.5 -55q-33 0 -44.5 17t-0.5 44q9 26 22 44.5t35 32.5t35 20.5t44 19.5q27 81 49 131l-6 2q-62 -76 -115 -117q-37 13 -56 48.5t-10 72.5q-58 -73 -133 -119q-35 10 -51.5 43.5t-7.5 69.5q-60 -70 -131 -113q-40 18 -56.5 51.5 t0.5 77.5q14 37 66 154q3 14 -2 14q-16 0 -65.5 -58.5t-96 -131t-53.5 -107.5l-49 35l47 141q-39 -8 -70 2q-20 -76 -64 -121.5t-104 -56.5q-46 34 -59 83zM610 43l109 283l45 -39q-23 -36 -43 -99h2q20 32 55 78t47 53q21 14 35 0q16 -13 25 -28q14 -28 -13.5 -60.5 t-66.5 -42.5l-8 7q57 38 47 108q-86 -58 -156 -213q-21 -56 -29 -88zM665.5 1307.5q-2.5 -22.5 12.5 -33.5q8 24 12 72q-22 -16 -24.5 -38.5zM823 422q19 46 140 385q-9 1 -27 2t-25 2l-18 23l8 10q34 -10 70 -13l28 72q16 45 46.5 81.5t64.5 43.5l41 -35l12 37l8 2 q13 -15 23 -33q-9 -22 -27.5 -43t-36.5 -30l-4 4l23 59q-11 -2 -20 -5t-16.5 -6.5t-14.5 -9.5t-11.5 -10t-10 -12t-8.5 -12t-7.5 -14t-5.5 -13.5t-5.5 -14t-5.5 -13.5l-18 -52q39 -3 80 7l6 -13q-30 -11 -94 -14l-152 -412q-28 12 -43 27zM868 84q12 33 47 57q9 -10 11 -14 q-32 -22 -35 -53q0 -32 20 -35q31 -4 57.5 13t35.5 44q9 28 -2.5 53t-30 41t-31 37.5t-4.5 44.5q10 30 44 42t69 1l24 -30l12 28l11 6q12 -16 24 -34q-19 -52 -69 -82l-7 4l27 72q-34 10 -58 2t-30 -29q-9 -24 2.5 -47.5t30.5 -39t32.5 -37t8.5 -42.5q-12 -41 -44.5 -63.5 t-72.5 -22.5q-36 0 -57 25.5t-15 58.5zM1085 664q7 24 24 72t31 84l13 36l43 -43q-43 -118 -53 -149q-17 -47 -17 -117q120 83 185 246l20 63l43 -43q-43 -118 -55 -149q-16 -66 -16 -117q73 37 141 112l141 377l51 -41q-11 -27 -44.5 -111.5t-60 -151t-30.5 -81.5 q-21 -53 -14 -104q76 43 141 121l144 368l47 -41q-16 -44 -73.5 -186.5t-62.5 -157.5q-20 -59 -14 -104q86 46 162 145l10 -4q-72 -106 -160 -164q-34 10 -52 42t-13 69q-56 -66 -119 -111q-33 10 -49.5 40t-13.5 65q-48 -57 -119 -109q-43 13 -52.5 57t13.5 101l-4 2 q-48 -79 -131 -154q-40 14 -54.5 53.5t-1.5 84.5zM1133 133l71 191l49 -39q-47 -121 -57 -152q-18 -63 -18 -110q87 50 151 133q10 54 47.5 101t87.5 69l33 -54q-70 -25 -103 -102t-5 -145q52 15 92.5 57t60.5 104q-32 19 -37.5 55t21.5 72l16 13l27 -39q0 -53 -6 -97 q32 -8 75 0l-6 -12q-41 -11 -71 2q-20 -75 -63 -120.5t-101 -57.5q-73 50 -70 129q-69 -86 -141 -129q-37 13 -50 49.5t-3 81.5zM1227 397l6 6q78 19 104 86l6 -6q0 -31 -16 -64t-39 -54l-10 -3zM1320 905q4 -14 19 -14q33 0 84 143q-68 -31 -102 -106q-5 -9 -1 -23z M1532.5 235q-1.5 -23 13.5 -34q10 38 10 71q-22 -14 -23.5 -37zM1585 41l107 285l43 -37q-62 -144 -82 -195l2 -4q36 63 84.5 126t93.5 103q5 5 16 5.5t17 -5.5l30 -24q16 -19 9 -43q-49 -113 -52 -119q-29 -64 -22 -108q85 42 166 141l10 -6q-73 -100 -162 -158 q-40 18 -57.5 54t0.5 77q34 73 65 152q3 14 -2 14q-16 0 -65.5 -58t-95.5 -131t-54 -110z" />
<glyph unicode="." horiz-adv-x="376" d="M-35 45l47 162l115 -76q-10 -76 -68 -141z" />
<glyph unicode="/" d="M92.5 81.5q-14.5 53.5 3.5 94.5q7 24 20.5 61.5t23.5 62.5l10 26l49 -39q-48 -133 -56 -160q-15 -48 -2 -102q107 41 148 157q-36 17 -40.5 54.5t25.5 74.5l17 13l33 -41q0 -38 -11 -95q30 -10 68 0q15 43 51.5 79.5t85.5 58.5l33 -43q-46 -13 -79 -49.5t-44 -83.5 q64 23 106 69t48 109l12 6q9 -7 35 -39q-16 -56 -74.5 -99t-130.5 -61q-13 -55 10 -110q82 19 182 141l11 -4q-92 -126 -185 -160q-95 69 -67 174q-38 -9 -66 -2q-42 -124 -157 -172q-45 26 -59.5 79.5zM223 657q6 25 24 74t33 85l15 36l49 -41q-45 -119 -57 -154 q-21 -73 -21 -110q88 49 160 143l59 162l45 -39q-61 -144 -81 -197l4 -2q83 148 176 232q6 6 16.5 6t18.5 -6l28 -29q8 -6 10 -18t-2 -23q-40 -87 -49 -117q-29 -66 -24 -110q85 43 168 143l10 -2q-74 -108 -164 -164q-41 19 -58.5 55t-0.5 76q30 66 67 154q4 12 -2 12 q-16 0 -65.5 -57.5t-95.5 -130.5t-54 -111l-51 41l31 82q-77 -85 -136 -121q-35 12 -48.5 49t-4.5 82zM283 236q-4 -25 12 -39q13 45 18 77q-26 -13 -30 -38zM319 924l3 6q79 15 106 86l8 -4q-1 -35 -17.5 -68.5t-41.5 -52.5h-12zM465 1158q-13 49 2.5 95t49 86t75.5 60 l33 -53q-68 -25 -100.5 -102.5t-4.5 -145.5q50 12 92 56.5t62 105.5q-35 19 -41 54.5t24 74.5l17 10l26 -39q2 -39 -6 -94q28 -11 74 0l49 133l47 -39q-63 -144 -86 -197l4 -4q72 132 176 236q7 3 17.5 3.5t17.5 -3.5l31 -29q17 -21 6 -43q-6 -14 -17 -40.5t-19.5 -46.5 t-12.5 -32q-30 -65 -23 -106q80 37 158 129l135 356l52 -39q-18 -46 -77.5 -192t-62.5 -154q-19 -56 -12 -100q76 38 158 133l67 172l47 -39q-51 -121 -63 -154q-27 -75 -8 -114q87 59 143 159l49 142l47 -37q-33 -101 -94 -275q39 14 91 60.5t89 93.5l11 -4 q-76 -112 -199 -170q-28 -76 -66.5 -131t-81.5 -55q-33 0 -44.5 17t-0.5 44q9 26 22 44.5t35 32.5t35 20.5t44 19.5q27 81 49 131l-6 2q-62 -76 -115 -117q-37 13 -56 48.5t-10 72.5q-58 -73 -133 -119q-35 10 -51.5 43.5t-7.5 69.5q-60 -70 -131 -113q-40 18 -56.5 51.5 t0.5 77.5q14 37 66 154q3 14 -2 14q-16 0 -65.5 -58.5t-96 -131t-53.5 -107.5l-49 35l47 141q-39 -8 -70 2q-20 -76 -64 -121.5t-104 -56.5q-46 34 -59 83zM610 43l109 283l45 -39q-23 -36 -43 -99h2q20 32 55 78t47 53q21 14 35 0q16 -13 25 -28q14 -28 -13.5 -60.5 t-66.5 -42.5l-8 7q57 38 47 108q-86 -58 -156 -213q-21 -56 -29 -88zM665.5 1307.5q-2.5 -22.5 12.5 -33.5q8 24 12 72q-22 -16 -24.5 -38.5zM823 422q19 46 140 385q-9 1 -27 2t-25 2l-18 23l8 10q34 -10 70 -13l28 72q16 45 46.5 81.5t64.5 43.5l41 -35l12 37l8 2 q13 -15 23 -33q-9 -22 -27.5 -43t-36.5 -30l-4 4l23 59q-11 -2 -20 -5t-16.5 -6.5t-14.5 -9.5t-11.5 -10t-10 -12t-8.5 -12t-7.5 -14t-5.5 -13.5t-5.5 -14t-5.5 -13.5l-18 -52q39 -3 80 7l6 -13q-30 -11 -94 -14l-152 -412q-28 12 -43 27zM868 84q12 33 47 57q9 -10 11 -14 q-32 -22 -35 -53q0 -32 20 -35q31 -4 57.5 13t35.5 44q9 28 -2.5 53t-30 41t-31 37.5t-4.5 44.5q10 30 44 42t69 1l24 -30l12 28l11 6q12 -16 24 -34q-19 -52 -69 -82l-7 4l27 72q-34 10 -58 2t-30 -29q-9 -24 2.5 -47.5t30.5 -39t32.5 -37t8.5 -42.5q-12 -41 -44.5 -63.5 t-72.5 -22.5q-36 0 -57 25.5t-15 58.5zM1085 664q7 24 24 72t31 84l13 36l43 -43q-43 -118 -53 -149q-17 -47 -17 -117q120 83 185 246l20 63l43 -43q-43 -118 -55 -149q-16 -66 -16 -117q73 37 141 112l141 377l51 -41q-11 -27 -44.5 -111.5t-60 -151t-30.5 -81.5 q-21 -53 -14 -104q76 43 141 121l144 368l47 -41q-16 -44 -73.5 -186.5t-62.5 -157.5q-20 -59 -14 -104q86 46 162 145l10 -4q-72 -106 -160 -164q-34 10 -52 42t-13 69q-56 -66 -119 -111q-33 10 -49.5 40t-13.5 65q-48 -57 -119 -109q-43 13 -52.5 57t13.5 101l-4 2 q-48 -79 -131 -154q-40 14 -54.5 53.5t-1.5 84.5zM1133 133l71 191l49 -39q-47 -121 -57 -152q-18 -63 -18 -110q87 50 151 133q10 54 47.5 101t87.5 69l33 -54q-70 -25 -103 -102t-5 -145q52 15 92.5 57t60.5 104q-32 19 -37.5 55t21.5 72l16 13l27 -39q0 -53 -6 -97 q32 -8 75 0l-6 -12q-41 -11 -71 2q-20 -75 -63 -120.5t-101 -57.5q-73 50 -70 129q-69 -86 -141 -129q-37 13 -50 49.5t-3 81.5zM1227 397l6 6q78 19 104 86l6 -6q0 -31 -16 -64t-39 -54l-10 -3zM1320 905q4 -14 19 -14q33 0 84 143q-68 -31 -102 -106q-5 -9 -1 -23z M1532.5 235q-1.5 -23 13.5 -34q10 38 10 71q-22 -14 -23.5 -37zM1585 41l107 285l43 -37q-62 -144 -82 -195l2 -4q36 63 84.5 126t93.5 103q5 5 16 5.5t17 -5.5l30 -24q16 -19 9 -43q-49 -113 -52 -119q-29 -64 -22 -108q85 42 166 141l10 -6q-73 -100 -162 -158 q-40 18 -57.5 54t0.5 77q34 73 65 152q3 14 -2 14q-16 0 -65.5 -58t-95.5 -131t-54 -110z" />
<glyph unicode="0" horiz-adv-x="1124" d="M123.5 422.5q5.5 117.5 32.5 242.5t73 250q97 266 281 401.5t399 98.5q68 -25 127 -76q90 -76 96 -270.5t-77 -439.5q-33 -92 -72.5 -174t-81.5 -146.5t-87 -118t-90 -91t-90 -63.5t-88 -38t-82.5 -11t-74.5 15q-24 14 -71 38t-70 36q-68 43 -99 136t-25.5 210.5z M258 218.5q17 -103.5 68 -146.5q176 -34 326.5 123.5t267.5 478.5q66 195 89 380t-8 273q-204 65 -371 -64t-274 -427q-67 -190 -91 -352t-7 -265.5z" />
<glyph unicode="1" horiz-adv-x="591" d="M55 76l514 1192q-142 -135 -286 -224l-50 60q99 45 208.5 140t176.5 192l115 -78l-565 -1370z" />
<glyph unicode="2" horiz-adv-x="1013" d="M-76 94q390 351 552 510q536 524 472 674q-72 43 -170 44t-195 -43t-159 -124l-90 117q181 166 506 162q73 -6 133 -55t86 -121t6 -142q-31 -89 -151.5 -232.5t-249.5 -268t-293.5 -280.5t-233.5 -229l8 -10q518 -15 654 2q4 -4 6 -9.5t2 -8.5v-4q-28 -33 -93.5 -51.5 t-142.5 -20.5l-240 2q-240 2 -315 -6q-20 18 -43 41.5t-36 38.5z" />
<glyph unicode="3" horiz-adv-x="976" d="M10 264l31 4q77 -173 295 -166q109 4 199.5 81t126.5 186q24 64 18 127t-29.5 112.5t-73.5 79t-114 25.5q-17 16 -39 38l-36 36l-13 14l20 33q111 4 208 41.5t165 97.5t109 138t45 163q-59 50 -162.5 52t-203.5 -41t-146 -116l-88 117q106 93 263.5 134t250.5 20 q116 -77 172 -176q45 -75 22 -148q-39 -115 -155.5 -219.5t-253.5 -142.5q-3 -1 -3.5 -3.5t0.5 -4.5v-3q277 -194 162 -481q-54 -132 -173.5 -208.5t-252.5 -76.5q-128 0 -223.5 73t-120.5 214z" />
<glyph unicode="4" horiz-adv-x="1116" d="M25 518q207 180 441.5 455.5t383.5 509.5l92 -125q-143 -196 -345 -439.5t-357 -394.5q2 -8 4 -10q212 36 518 39l258 715l131 -80l-229 -635q8 0 45 -1t45 -1l45 -70h-162l-178 -493l-129 86l147 405q-161 -6 -325 -29t-279 -57q-79 94 -106 125z" />
<glyph unicode="5" horiz-adv-x="913" d="M37 254q17 4 37 10q92 -161 231 -156q115 5 217 117q107 118 135 280q18 100 -2 193q-81 53 -197.5 37t-195.5 -88q-96 115 -96 117q43 106 139.5 348t136.5 340l45 -45l490 6l59 -70l-493 -16q-132 -338 -191 -504l8 -20q59 14 120 15.5t121.5 -14.5t98.5 -50 q50 -45 77.5 -107.5t28 -119.5t-14.5 -109q-30 -112 -88.5 -201t-128.5 -141.5t-149.5 -71.5t-152 0t-135.5 83t-100 167z" />
<glyph unicode="6" horiz-adv-x="1064" d="M147 435q-10 92 1 196.5t45 202.5q49 143 130 262.5t165.5 191t162.5 110t135 38.5q84 0 169.5 -66.5t127.5 -181.5l-30 -25q-32 39 -48.5 58t-46 44.5t-60 36.5t-67.5 11q-103 2 -204 -74t-176.5 -194t-127 -264t-66.5 -281.5t16 -248.5t110 -163q95 4 185.5 54.5 t157 131.5t103 195.5t25.5 237.5q-66 25 -139 17t-139.5 -39t-123.5 -89t-92 -133q-26 12 -36 16q31 120 106.5 205t167.5 117t194.5 8.5t182.5 -107.5q16 -154 -23 -290.5t-113 -227.5t-172 -143.5t-200 -52.5q-61 0 -116 35t-96.5 94.5t-69.5 142.5t-38 175z" />
<glyph unicode="7" horiz-adv-x="927" d="M80 76q149 313 422.5 686.5t498.5 589.5l-6 6q-352 -33 -651 -23l-45 88q414 -13 780 11q16 -14 40 -38t39 -42l16 -17q-269 -233 -544 -604t-444 -745q-24 16 -50.5 38t-41.5 36z" />
<glyph unicode="8" horiz-adv-x="1024" d="M57 418q11 38 32.5 75t56 72t68 64t85.5 64.5t89.5 59t98.5 60.5q-30 36 -50 62.5t-43 60.5t-36 63.5t-22 62t-8 65.5t12 65q53 159 207.5 218t343.5 5q102 -29 151 -103.5t15 -178.5q-20 -62 -60.5 -117.5t-102.5 -105.5t-118 -87t-137 -84q9 -10 27 -29 q36 -39 54.5 -59t48.5 -56.5t44 -61.5t31 -61.5t20.5 -68t0 -70t-18.5 -77.5q-17 -44 -39.5 -81.5t-54 -73.5t-72.5 -60.5t-90 -38.5t-111.5 -12t-132.5 22q-153 44 -240 156.5t-49 249.5zM168 336q-29 -97 25.5 -177.5t140.5 -80.5q137 0 235 76.5t138 181.5q14 38 14.5 77 t-9.5 74t-31.5 74.5t-44.5 71.5t-56 72q-60 -35 -94 -55.5t-85 -53.5t-82 -59.5t-64.5 -60t-54.5 -68.5t-32 -72zM456.5 1090q-2.5 -46 9.5 -87.5t31 -77.5t48 -75q78 47 129 80.5t113.5 82.5t99.5 92t64.5 98.5t31.5 113.5q-108 54 -212 48.5t-185.5 -56.5t-108.5 -125 q-18 -48 -20.5 -94z" />
<glyph unicode="9" horiz-adv-x="1021" d="M25 166l26 22q98 -98 242 -98q100 -1 195.5 66t167 174.5t126 244.5t80 273t21.5 264t-43 213q-80 10 -162 -15.5t-147.5 -74t-111.5 -116.5t-62.5 -140.5t8 -149t92.5 -137.5q105 8 194.5 82.5t130.5 159.5l29 -8q-20 -75 -55.5 -137.5t-99.5 -114.5t-146 -70 q-116 50 -183.5 132t-81.5 171t13 182t88 167.5t157.5 124t209.5 55.5q180 -41 255.5 -205.5t40 -371t-126.5 -406t-247.5 -334t-319.5 -131.5q-177 3 -290 178z" />
<glyph unicode=":" d="M92.5 81.5q-14.5 53.5 3.5 94.5q7 24 20.5 61.5t23.5 62.5l10 26l49 -39q-48 -133 -56 -160q-15 -48 -2 -102q107 41 148 157q-36 17 -40.5 54.5t25.5 74.5l17 13l33 -41q0 -38 -11 -95q30 -10 68 0q15 43 51.5 79.5t85.5 58.5l33 -43q-46 -13 -79 -49.5t-44 -83.5 q64 23 106 69t48 109l12 6q9 -7 35 -39q-16 -56 -74.5 -99t-130.5 -61q-13 -55 10 -110q82 19 182 141l11 -4q-92 -126 -185 -160q-95 69 -67 174q-38 -9 -66 -2q-42 -124 -157 -172q-45 26 -59.5 79.5zM223 657q6 25 24 74t33 85l15 36l49 -41q-45 -119 -57 -154 q-21 -73 -21 -110q88 49 160 143l59 162l45 -39q-61 -144 -81 -197l4 -2q83 148 176 232q6 6 16.5 6t18.5 -6l28 -29q8 -6 10 -18t-2 -23q-40 -87 -49 -117q-29 -66 -24 -110q85 43 168 143l10 -2q-74 -108 -164 -164q-41 19 -58.5 55t-0.5 76q30 66 67 154q4 12 -2 12 q-16 0 -65.5 -57.5t-95.5 -130.5t-54 -111l-51 41l31 82q-77 -85 -136 -121q-35 12 -48.5 49t-4.5 82zM283 236q-4 -25 12 -39q13 45 18 77q-26 -13 -30 -38zM319 924l3 6q79 15 106 86l8 -4q-1 -35 -17.5 -68.5t-41.5 -52.5h-12zM465 1158q-13 49 2.5 95t49 86t75.5 60 l33 -53q-68 -25 -100.5 -102.5t-4.5 -145.5q50 12 92 56.5t62 105.5q-35 19 -41 54.5t24 74.5l17 10l26 -39q2 -39 -6 -94q28 -11 74 0l49 133l47 -39q-63 -144 -86 -197l4 -4q72 132 176 236q7 3 17.5 3.5t17.5 -3.5l31 -29q17 -21 6 -43q-6 -14 -17 -40.5t-19.5 -46.5 t-12.5 -32q-30 -65 -23 -106q80 37 158 129l135 356l52 -39q-18 -46 -77.5 -192t-62.5 -154q-19 -56 -12 -100q76 38 158 133l67 172l47 -39q-51 -121 -63 -154q-27 -75 -8 -114q87 59 143 159l49 142l47 -37q-33 -101 -94 -275q39 14 91 60.5t89 93.5l11 -4 q-76 -112 -199 -170q-28 -76 -66.5 -131t-81.5 -55q-33 0 -44.5 17t-0.5 44q9 26 22 44.5t35 32.5t35 20.5t44 19.5q27 81 49 131l-6 2q-62 -76 -115 -117q-37 13 -56 48.5t-10 72.5q-58 -73 -133 -119q-35 10 -51.5 43.5t-7.5 69.5q-60 -70 -131 -113q-40 18 -56.5 51.5 t0.5 77.5q14 37 66 154q3 14 -2 14q-16 0 -65.5 -58.5t-96 -131t-53.5 -107.5l-49 35l47 141q-39 -8 -70 2q-20 -76 -64 -121.5t-104 -56.5q-46 34 -59 83zM610 43l109 283l45 -39q-23 -36 -43 -99h2q20 32 55 78t47 53q21 14 35 0q16 -13 25 -28q14 -28 -13.5 -60.5 t-66.5 -42.5l-8 7q57 38 47 108q-86 -58 -156 -213q-21 -56 -29 -88zM665.5 1307.5q-2.5 -22.5 12.5 -33.5q8 24 12 72q-22 -16 -24.5 -38.5zM823 422q19 46 140 385q-9 1 -27 2t-25 2l-18 23l8 10q34 -10 70 -13l28 72q16 45 46.5 81.5t64.5 43.5l41 -35l12 37l8 2 q13 -15 23 -33q-9 -22 -27.5 -43t-36.5 -30l-4 4l23 59q-11 -2 -20 -5t-16.5 -6.5t-14.5 -9.5t-11.5 -10t-10 -12t-8.5 -12t-7.5 -14t-5.5 -13.5t-5.5 -14t-5.5 -13.5l-18 -52q39 -3 80 7l6 -13q-30 -11 -94 -14l-152 -412q-28 12 -43 27zM868 84q12 33 47 57q9 -10 11 -14 q-32 -22 -35 -53q0 -32 20 -35q31 -4 57.5 13t35.5 44q9 28 -2.5 53t-30 41t-31 37.5t-4.5 44.5q10 30 44 42t69 1l24 -30l12 28l11 6q12 -16 24 -34q-19 -52 -69 -82l-7 4l27 72q-34 10 -58 2t-30 -29q-9 -24 2.5 -47.5t30.5 -39t32.5 -37t8.5 -42.5q-12 -41 -44.5 -63.5 t-72.5 -22.5q-36 0 -57 25.5t-15 58.5zM1085 664q7 24 24 72t31 84l13 36l43 -43q-43 -118 -53 -149q-17 -47 -17 -117q120 83 185 246l20 63l43 -43q-43 -118 -55 -149q-16 -66 -16 -117q73 37 141 112l141 377l51 -41q-11 -27 -44.5 -111.5t-60 -151t-30.5 -81.5 q-21 -53 -14 -104q76 43 141 121l144 368l47 -41q-16 -44 -73.5 -186.5t-62.5 -157.5q-20 -59 -14 -104q86 46 162 145l10 -4q-72 -106 -160 -164q-34 10 -52 42t-13 69q-56 -66 -119 -111q-33 10 -49.5 40t-13.5 65q-48 -57 -119 -109q-43 13 -52.5 57t13.5 101l-4 2 q-48 -79 -131 -154q-40 14 -54.5 53.5t-1.5 84.5zM1133 133l71 191l49 -39q-47 -121 -57 -152q-18 -63 -18 -110q87 50 151 133q10 54 47.5 101t87.5 69l33 -54q-70 -25 -103 -102t-5 -145q52 15 92.5 57t60.5 104q-32 19 -37.5 55t21.5 72l16 13l27 -39q0 -53 -6 -97 q32 -8 75 0l-6 -12q-41 -11 -71 2q-20 -75 -63 -120.5t-101 -57.5q-73 50 -70 129q-69 -86 -141 -129q-37 13 -50 49.5t-3 81.5zM1227 397l6 6q78 19 104 86l6 -6q0 -31 -16 -64t-39 -54l-10 -3zM1320 905q4 -14 19 -14q33 0 84 143q-68 -31 -102 -106q-5 -9 -1 -23z M1532.5 235q-1.5 -23 13.5 -34q10 38 10 71q-22 -14 -23.5 -37zM1585 41l107 285l43 -37q-62 -144 -82 -195l2 -4q36 63 84.5 126t93.5 103q5 5 16 5.5t17 -5.5l30 -24q16 -19 9 -43q-49 -113 -52 -119q-29 -64 -22 -108q85 42 166 141l10 -6q-73 -100 -162 -158 q-40 18 -57.5 54t0.5 77q34 73 65 152q3 14 -2 14q-16 0 -65.5 -58t-95.5 -131t-54 -110z" />
<glyph unicode=";" d="M92.5 81.5q-14.5 53.5 3.5 94.5q7 24 20.5 61.5t23.5 62.5l10 26l49 -39q-48 -133 -56 -160q-15 -48 -2 -102q107 41 148 157q-36 17 -40.5 54.5t25.5 74.5l17 13l33 -41q0 -38 -11 -95q30 -10 68 0q15 43 51.5 79.5t85.5 58.5l33 -43q-46 -13 -79 -49.5t-44 -83.5 q64 23 106 69t48 109l12 6q9 -7 35 -39q-16 -56 -74.5 -99t-130.5 -61q-13 -55 10 -110q82 19 182 141l11 -4q-92 -126 -185 -160q-95 69 -67 174q-38 -9 -66 -2q-42 -124 -157 -172q-45 26 -59.5 79.5zM223 657q6 25 24 74t33 85l15 36l49 -41q-45 -119 -57 -154 q-21 -73 -21 -110q88 49 160 143l59 162l45 -39q-61 -144 -81 -197l4 -2q83 148 176 232q6 6 16.5 6t18.5 -6l28 -29q8 -6 10 -18t-2 -23q-40 -87 -49 -117q-29 -66 -24 -110q85 43 168 143l10 -2q-74 -108 -164 -164q-41 19 -58.5 55t-0.5 76q30 66 67 154q4 12 -2 12 q-16 0 -65.5 -57.5t-95.5 -130.5t-54 -111l-51 41l31 82q-77 -85 -136 -121q-35 12 -48.5 49t-4.5 82zM283 236q-4 -25 12 -39q13 45 18 77q-26 -13 -30 -38zM319 924l3 6q79 15 106 86l8 -4q-1 -35 -17.5 -68.5t-41.5 -52.5h-12zM465 1158q-13 49 2.5 95t49 86t75.5 60 l33 -53q-68 -25 -100.5 -102.5t-4.5 -145.5q50 12 92 56.5t62 105.5q-35 19 -41 54.5t24 74.5l17 10l26 -39q2 -39 -6 -94q28 -11 74 0l49 133l47 -39q-63 -144 -86 -197l4 -4q72 132 176 236q7 3 17.5 3.5t17.5 -3.5l31 -29q17 -21 6 -43q-6 -14 -17 -40.5t-19.5 -46.5 t-12.5 -32q-30 -65 -23 -106q80 37 158 129l135 356l52 -39q-18 -46 -77.5 -192t-62.5 -154q-19 -56 -12 -100q76 38 158 133l67 172l47 -39q-51 -121 -63 -154q-27 -75 -8 -114q87 59 143 159l49 142l47 -37q-33 -101 -94 -275q39 14 91 60.5t89 93.5l11 -4 q-76 -112 -199 -170q-28 -76 -66.5 -131t-81.5 -55q-33 0 -44.5 17t-0.5 44q9 26 22 44.5t35 32.5t35 20.5t44 19.5q27 81 49 131l-6 2q-62 -76 -115 -117q-37 13 -56 48.5t-10 72.5q-58 -73 -133 -119q-35 10 -51.5 43.5t-7.5 69.5q-60 -70 -131 -113q-40 18 -56.5 51.5 t0.5 77.5q14 37 66 154q3 14 -2 14q-16 0 -65.5 -58.5t-96 -131t-53.5 -107.5l-49 35l47 141q-39 -8 -70 2q-20 -76 -64 -121.5t-104 -56.5q-46 34 -59 83zM610 43l109 283l45 -39q-23 -36 -43 -99h2q20 32 55 78t47 53q21 14 35 0q16 -13 25 -28q14 -28 -13.5 -60.5 t-66.5 -42.5l-8 7q57 38 47 108q-86 -58 -156 -213q-21 -56 -29 -88zM665.5 1307.5q-2.5 -22.5 12.5 -33.5q8 24 12 72q-22 -16 -24.5 -38.5zM823 422q19 46 140 385q-9 1 -27 2t-25 2l-18 23l8 10q34 -10 70 -13l28 72q16 45 46.5 81.5t64.5 43.5l41 -35l12 37l8 2 q13 -15 23 -33q-9 -22 -27.5 -43t-36.5 -30l-4 4l23 59q-11 -2 -20 -5t-16.5 -6.5t-14.5 -9.5t-11.5 -10t-10 -12t-8.5 -12t-7.5 -14t-5.5 -13.5t-5.5 -14t-5.5 -13.5l-18 -52q39 -3 80 7l6 -13q-30 -11 -94 -14l-152 -412q-28 12 -43 27zM868 84q12 33 47 57q9 -10 11 -14 q-32 -22 -35 -53q0 -32 20 -35q31 -4 57.5 13t35.5 44q9 28 -2.5 53t-30 41t-31 37.5t-4.5 44.5q10 30 44 42t69 1l24 -30l12 28l11 6q12 -16 24 -34q-19 -52 -69 -82l-7 4l27 72q-34 10 -58 2t-30 -29q-9 -24 2.5 -47.5t30.5 -39t32.5 -37t8.5 -42.5q-12 -41 -44.5 -63.5 t-72.5 -22.5q-36 0 -57 25.5t-15 58.5zM1085 664q7 24 24 72t31 84l13 36l43 -43q-43 -118 -53 -149q-17 -47 -17 -117q120 83 185 246l20 63l43 -43q-43 -118 -55 -149q-16 -66 -16 -117q73 37 141 112l141 377l51 -41q-11 -27 -44.5 -111.5t-60 -151t-30.5 -81.5 q-21 -53 -14 -104q76 43 141 121l144 368l47 -41q-16 -44 -73.5 -186.5t-62.5 -157.5q-20 -59 -14 -104q86 46 162 145l10 -4q-72 -106 -160 -164q-34 10 -52 42t-13 69q-56 -66 -119 -111q-33 10 -49.5 40t-13.5 65q-48 -57 -119 -109q-43 13 -52.5 57t13.5 101l-4 2 q-48 -79 -131 -154q-40 14 -54.5 53.5t-1.5 84.5zM1133 133l71 191l49 -39q-47 -121 -57 -152q-18 -63 -18 -110q87 50 151 133q10 54 47.5 101t87.5 69l33 -54q-70 -25 -103 -102t-5 -145q52 15 92.5 57t60.5 104q-32 19 -37.5 55t21.5 72l16 13l27 -39q0 -53 -6 -97 q32 -8 75 0l-6 -12q-41 -11 -71 2q-20 -75 -63 -120.5t-101 -57.5q-73 50 -70 129q-69 -86 -141 -129q-37 13 -50 49.5t-3 81.5zM1227 397l6 6q78 19 104 86l6 -6q0 -31 -16 -64t-39 -54l-10 -3zM1320 905q4 -14 19 -14q33 0 84 143q-68 -31 -102 -106q-5 -9 -1 -23z M1532.5 235q-1.5 -23 13.5 -34q10 38 10 71q-22 -14 -23.5 -37zM1585 41l107 285l43 -37q-62 -144 -82 -195l2 -4q36 63 84.5 126t93.5 103q5 5 16 5.5t17 -5.5l30 -24q16 -19 9 -43q-49 -113 -52 -119q-29 -64 -22 -108q85 42 166 141l10 -6q-73 -100 -162 -158 q-40 18 -57.5 54t0.5 77q34 73 65 152q3 14 -2 14q-16 0 -65.5 -58t-95.5 -131t-54 -110z" />
<glyph unicode="&#x3c;" d="M92.5 81.5q-14.5 53.5 3.5 94.5q7 24 20.5 61.5t23.5 62.5l10 26l49 -39q-48 -133 -56 -160q-15 -48 -2 -102q107 41 148 157q-36 17 -40.5 54.5t25.5 74.5l17 13l33 -41q0 -38 -11 -95q30 -10 68 0q15 43 51.5 79.5t85.5 58.5l33 -43q-46 -13 -79 -49.5t-44 -83.5 q64 23 106 69t48 109l12 6q9 -7 35 -39q-16 -56 -74.5 -99t-130.5 -61q-13 -55 10 -110q82 19 182 141l11 -4q-92 -126 -185 -160q-95 69 -67 174q-38 -9 -66 -2q-42 -124 -157 -172q-45 26 -59.5 79.5zM223 657q6 25 24 74t33 85l15 36l49 -41q-45 -119 -57 -154 q-21 -73 -21 -110q88 49 160 143l59 162l45 -39q-61 -144 -81 -197l4 -2q83 148 176 232q6 6 16.5 6t18.5 -6l28 -29q8 -6 10 -18t-2 -23q-40 -87 -49 -117q-29 -66 -24 -110q85 43 168 143l10 -2q-74 -108 -164 -164q-41 19 -58.5 55t-0.5 76q30 66 67 154q4 12 -2 12 q-16 0 -65.5 -57.5t-95.5 -130.5t-54 -111l-51 41l31 82q-77 -85 -136 -121q-35 12 -48.5 49t-4.5 82zM283 236q-4 -25 12 -39q13 45 18 77q-26 -13 -30 -38zM319 924l3 6q79 15 106 86l8 -4q-1 -35 -17.5 -68.5t-41.5 -52.5h-12zM465 1158q-13 49 2.5 95t49 86t75.5 60 l33 -53q-68 -25 -100.5 -102.5t-4.5 -145.5q50 12 92 56.5t62 105.5q-35 19 -41 54.5t24 74.5l17 10l26 -39q2 -39 -6 -94q28 -11 74 0l49 133l47 -39q-63 -144 -86 -197l4 -4q72 132 176 236q7 3 17.5 3.5t17.5 -3.5l31 -29q17 -21 6 -43q-6 -14 -17 -40.5t-19.5 -46.5 t-12.5 -32q-30 -65 -23 -106q80 37 158 129l135 356l52 -39q-18 -46 -77.5 -192t-62.5 -154q-19 -56 -12 -100q76 38 158 133l67 172l47 -39q-51 -121 -63 -154q-27 -75 -8 -114q87 59 143 159l49 142l47 -37q-33 -101 -94 -275q39 14 91 60.5t89 93.5l11 -4 q-76 -112 -199 -170q-28 -76 -66.5 -131t-81.5 -55q-33 0 -44.5 17t-0.5 44q9 26 22 44.5t35 32.5t35 20.5t44 19.5q27 81 49 131l-6 2q-62 -76 -115 -117q-37 13 -56 48.5t-10 72.5q-58 -73 -133 -119q-35 10 -51.5 43.5t-7.5 69.5q-60 -70 -131 -113q-40 18 -56.5 51.5 t0.5 77.5q14 37 66 154q3 14 -2 14q-16 0 -65.5 -58.5t-96 -131t-53.5 -107.5l-49 35l47 141q-39 -8 -70 2q-20 -76 -64 -121.5t-104 -56.5q-46 34 -59 83zM610 43l109 283l45 -39q-23 -36 -43 -99h2q20 32 55 78t47 53q21 14 35 0q16 -13 25 -28q14 -28 -13.5 -60.5 t-66.5 -42.5l-8 7q57 38 47 108q-86 -58 -156 -213q-21 -56 -29 -88zM665.5 1307.5q-2.5 -22.5 12.5 -33.5q8 24 12 72q-22 -16 -24.5 -38.5zM823 422q19 46 140 385q-9 1 -27 2t-25 2l-18 23l8 10q34 -10 70 -13l28 72q16 45 46.5 81.5t64.5 43.5l41 -35l12 37l8 2 q13 -15 23 -33q-9 -22 -27.5 -43t-36.5 -30l-4 4l23 59q-11 -2 -20 -5t-16.5 -6.5t-14.5 -9.5t-11.5 -10t-10 -12t-8.5 -12t-7.5 -14t-5.5 -13.5t-5.5 -14t-5.5 -13.5l-18 -52q39 -3 80 7l6 -13q-30 -11 -94 -14l-152 -412q-28 12 -43 27zM868 84q12 33 47 57q9 -10 11 -14 q-32 -22 -35 -53q0 -32 20 -35q31 -4 57.5 13t35.5 44q9 28 -2.5 53t-30 41t-31 37.5t-4.5 44.5q10 30 44 42t69 1l24 -30l12 28l11 6q12 -16 24 -34q-19 -52 -69 -82l-7 4l27 72q-34 10 -58 2t-30 -29q-9 -24 2.5 -47.5t30.5 -39t32.5 -37t8.5 -42.5q-12 -41 -44.5 -63.5 t-72.5 -22.5q-36 0 -57 25.5t-15 58.5zM1085 664q7 24 24 72t31 84l13 36l43 -43q-43 -118 -53 -149q-17 -47 -17 -117q120 83 185 246l20 63l43 -43q-43 -118 -55 -149q-16 -66 -16 -117q73 37 141 112l141 377l51 -41q-11 -27 -44.5 -111.5t-60 -151t-30.5 -81.5 q-21 -53 -14 -104q76 43 141 121l144 368l47 -41q-16 -44 -73.5 -186.5t-62.5 -157.5q-20 -59 -14 -104q86 46 162 145l10 -4q-72 -106 -160 -164q-34 10 -52 42t-13 69q-56 -66 -119 -111q-33 10 -49.5 40t-13.5 65q-48 -57 -119 -109q-43 13 -52.5 57t13.5 101l-4 2 q-48 -79 -131 -154q-40 14 -54.5 53.5t-1.5 84.5zM1133 133l71 191l49 -39q-47 -121 -57 -152q-18 -63 -18 -110q87 50 151 133q10 54 47.5 101t87.5 69l33 -54q-70 -25 -103 -102t-5 -145q52 15 92.5 57t60.5 104q-32 19 -37.5 55t21.5 72l16 13l27 -39q0 -53 -6 -97 q32 -8 75 0l-6 -12q-41 -11 -71 2q-20 -75 -63 -120.5t-101 -57.5q-73 50 -70 129q-69 -86 -141 -129q-37 13 -50 49.5t-3 81.5zM1227 397l6 6q78 19 104 86l6 -6q0 -31 -16 -64t-39 -54l-10 -3zM1320 905q4 -14 19 -14q33 0 84 143q-68 -31 -102 -106q-5 -9 -1 -23z M1532.5 235q-1.5 -23 13.5 -34q10 38 10 71q-22 -14 -23.5 -37zM1585 41l107 285l43 -37q-62 -144 -82 -195l2 -4q36 63 84.5 126t93.5 103q5 5 16 5.5t17 -5.5l30 -24q16 -19 9 -43q-49 -113 -52 -119q-29 -64 -22 -108q85 42 166 141l10 -6q-73 -100 -162 -158 q-40 18 -57.5 54t0.5 77q34 73 65 152q3 14 -2 14q-16 0 -65.5 -58t-95.5 -131t-54 -110z" />
<glyph unicode="=" d="M92.5 81.5q-14.5 53.5 3.5 94.5q7 24 20.5 61.5t23.5 62.5l10 26l49 -39q-48 -133 -56 -160q-15 -48 -2 -102q107 41 148 157q-36 17 -40.5 54.5t25.5 74.5l17 13l33 -41q0 -38 -11 -95q30 -10 68 0q15 43 51.5 79.5t85.5 58.5l33 -43q-46 -13 -79 -49.5t-44 -83.5 q64 23 106 69t48 109l12 6q9 -7 35 -39q-16 -56 -74.5 -99t-130.5 -61q-13 -55 10 -110q82 19 182 141l11 -4q-92 -126 -185 -160q-95 69 -67 174q-38 -9 -66 -2q-42 -124 -157 -172q-45 26 -59.5 79.5zM223 657q6 25 24 74t33 85l15 36l49 -41q-45 -119 -57 -154 q-21 -73 -21 -110q88 49 160 143l59 162l45 -39q-61 -144 -81 -197l4 -2q83 148 176 232q6 6 16.5 6t18.5 -6l28 -29q8 -6 10 -18t-2 -23q-40 -87 -49 -117q-29 -66 -24 -110q85 43 168 143l10 -2q-74 -108 -164 -164q-41 19 -58.5 55t-0.5 76q30 66 67 154q4 12 -2 12 q-16 0 -65.5 -57.5t-95.5 -130.5t-54 -111l-51 41l31 82q-77 -85 -136 -121q-35 12 -48.5 49t-4.5 82zM283 236q-4 -25 12 -39q13 45 18 77q-26 -13 -30 -38zM319 924l3 6q79 15 106 86l8 -4q-1 -35 -17.5 -68.5t-41.5 -52.5h-12zM465 1158q-13 49 2.5 95t49 86t75.5 60 l33 -53q-68 -25 -100.5 -102.5t-4.5 -145.5q50 12 92 56.5t62 105.5q-35 19 -41 54.5t24 74.5l17 10l26 -39q2 -39 -6 -94q28 -11 74 0l49 133l47 -39q-63 -144 -86 -197l4 -4q72 132 176 236q7 3 17.5 3.5t17.5 -3.5l31 -29q17 -21 6 -43q-6 -14 -17 -40.5t-19.5 -46.5 t-12.5 -32q-30 -65 -23 -106q80 37 158 129l135 356l52 -39q-18 -46 -77.5 -192t-62.5 -154q-19 -56 -12 -100q76 38 158 133l67 172l47 -39q-51 -121 -63 -154q-27 -75 -8 -114q87 59 143 159l49 142l47 -37q-33 -101 -94 -275q39 14 91 60.5t89 93.5l11 -4 q-76 -112 -199 -170q-28 -76 -66.5 -131t-81.5 -55q-33 0 -44.5 17t-0.5 44q9 26 22 44.5t35 32.5t35 20.5t44 19.5q27 81 49 131l-6 2q-62 -76 -115 -117q-37 13 -56 48.5t-10 72.5q-58 -73 -133 -119q-35 10 -51.5 43.5t-7.5 69.5q-60 -70 -131 -113q-40 18 -56.5 51.5 t0.5 77.5q14 37 66 154q3 14 -2 14q-16 0 -65.5 -58.5t-96 -131t-53.5 -107.5l-49 35l47 141q-39 -8 -70 2q-20 -76 -64 -121.5t-104 -56.5q-46 34 -59 83zM610 43l109 283l45 -39q-23 -36 -43 -99h2q20 32 55 78t47 53q21 14 35 0q16 -13 25 -28q14 -28 -13.5 -60.5 t-66.5 -42.5l-8 7q57 38 47 108q-86 -58 -156 -213q-21 -56 -29 -88zM665.5 1307.5q-2.5 -22.5 12.5 -33.5q8 24 12 72q-22 -16 -24.5 -38.5zM823 422q19 46 140 385q-9 1 -27 2t-25 2l-18 23l8 10q34 -10 70 -13l28 72q16 45 46.5 81.5t64.5 43.5l41 -35l12 37l8 2 q13 -15 23 -33q-9 -22 -27.5 -43t-36.5 -30l-4 4l23 59q-11 -2 -20 -5t-16.5 -6.5t-14.5 -9.5t-11.5 -10t-10 -12t-8.5 -12t-7.5 -14t-5.5 -13.5t-5.5 -14t-5.5 -13.5l-18 -52q39 -3 80 7l6 -13q-30 -11 -94 -14l-152 -412q-28 12 -43 27zM868 84q12 33 47 57q9 -10 11 -14 q-32 -22 -35 -53q0 -32 20 -35q31 -4 57.5 13t35.5 44q9 28 -2.5 53t-30 41t-31 37.5t-4.5 44.5q10 30 44 42t69 1l24 -30l12 28l11 6q12 -16 24 -34q-19 -52 -69 -82l-7 4l27 72q-34 10 -58 2t-30 -29q-9 -24 2.5 -47.5t30.5 -39t32.5 -37t8.5 -42.5q-12 -41 -44.5 -63.5 t-72.5 -22.5q-36 0 -57 25.5t-15 58.5zM1085 664q7 24 24 72t31 84l13 36l43 -43q-43 -118 -53 -149q-17 -47 -17 -117q120 83 185 246l20 63l43 -43q-43 -118 -55 -149q-16 -66 -16 -117q73 37 141 112l141 377l51 -41q-11 -27 -44.5 -111.5t-60 -151t-30.5 -81.5 q-21 -53 -14 -104q76 43 141 121l144 368l47 -41q-16 -44 -73.5 -186.5t-62.5 -157.5q-20 -59 -14 -104q86 46 162 145l10 -4q-72 -106 -160 -164q-34 10 -52 42t-13 69q-56 -66 -119 -111q-33 10 -49.5 40t-13.5 65q-48 -57 -119 -109q-43 13 -52.5 57t13.5 101l-4 2 q-48 -79 -131 -154q-40 14 -54.5 53.5t-1.5 84.5zM1133 133l71 191l49 -39q-47 -121 -57 -152q-18 -63 -18 -110q87 50 151 133q10 54 47.5 101t87.5 69l33 -54q-70 -25 -103 -102t-5 -145q52 15 92.5 57t60.5 104q-32 19 -37.5 55t21.5 72l16 13l27 -39q0 -53 -6 -97 q32 -8 75 0l-6 -12q-41 -11 -71 2q-20 -75 -63 -120.5t-101 -57.5q-73 50 -70 129q-69 -86 -141 -129q-37 13 -50 49.5t-3 81.5zM1227 397l6 6q78 19 104 86l6 -6q0 -31 -16 -64t-39 -54l-10 -3zM1320 905q4 -14 19 -14q33 0 84 143q-68 -31 -102 -106q-5 -9 -1 -23z M1532.5 235q-1.5 -23 13.5 -34q10 38 10 71q-22 -14 -23.5 -37zM1585 41l107 285l43 -37q-62 -144 -82 -195l2 -4q36 63 84.5 126t93.5 103q5 5 16 5.5t17 -5.5l30 -24q16 -19 9 -43q-49 -113 -52 -119q-29 -64 -22 -108q85 42 166 141l10 -6q-73 -100 -162 -158 q-40 18 -57.5 54t0.5 77q34 73 65 152q3 14 -2 14q-16 0 -65.5 -58t-95.5 -131t-54 -110z" />
<glyph unicode="&#x3e;" d="M92.5 81.5q-14.5 53.5 3.5 94.5q7 24 20.5 61.5t23.5 62.5l10 26l49 -39q-48 -133 -56 -160q-15 -48 -2 -102q107 41 148 157q-36 17 -40.5 54.5t25.5 74.5l17 13l33 -41q0 -38 -11 -95q30 -10 68 0q15 43 51.5 79.5t85.5 58.5l33 -43q-46 -13 -79 -49.5t-44 -83.5 q64 23 106 69t48 109l12 6q9 -7 35 -39q-16 -56 -74.5 -99t-130.5 -61q-13 -55 10 -110q82 19 182 141l11 -4q-92 -126 -185 -160q-95 69 -67 174q-38 -9 -66 -2q-42 -124 -157 -172q-45 26 -59.5 79.5zM223 657q6 25 24 74t33 85l15 36l49 -41q-45 -119 -57 -154 q-21 -73 -21 -110q88 49 160 143l59 162l45 -39q-61 -144 -81 -197l4 -2q83 148 176 232q6 6 16.5 6t18.5 -6l28 -29q8 -6 10 -18t-2 -23q-40 -87 -49 -117q-29 -66 -24 -110q85 43 168 143l10 -2q-74 -108 -164 -164q-41 19 -58.5 55t-0.5 76q30 66 67 154q4 12 -2 12 q-16 0 -65.5 -57.5t-95.5 -130.5t-54 -111l-51 41l31 82q-77 -85 -136 -121q-35 12 -48.5 49t-4.5 82zM283 236q-4 -25 12 -39q13 45 18 77q-26 -13 -30 -38zM319 924l3 6q79 15 106 86l8 -4q-1 -35 -17.5 -68.5t-41.5 -52.5h-12zM465 1158q-13 49 2.5 95t49 86t75.5 60 l33 -53q-68 -25 -100.5 -102.5t-4.5 -145.5q50 12 92 56.5t62 105.5q-35 19 -41 54.5t24 74.5l17 10l26 -39q2 -39 -6 -94q28 -11 74 0l49 133l47 -39q-63 -144 -86 -197l4 -4q72 132 176 236q7 3 17.5 3.5t17.5 -3.5l31 -29q17 -21 6 -43q-6 -14 -17 -40.5t-19.5 -46.5 t-12.5 -32q-30 -65 -23 -106q80 37 158 129l135 356l52 -39q-18 -46 -77.5 -192t-62.5 -154q-19 -56 -12 -100q76 38 158 133l67 172l47 -39q-51 -121 -63 -154q-27 -75 -8 -114q87 59 143 159l49 142l47 -37q-33 -101 -94 -275q39 14 91 60.5t89 93.5l11 -4 q-76 -112 -199 -170q-28 -76 -66.5 -131t-81.5 -55q-33 0 -44.5 17t-0.5 44q9 26 22 44.5t35 32.5t35 20.5t44 19.5q27 81 49 131l-6 2q-62 -76 -115 -117q-37 13 -56 48.5t-10 72.5q-58 -73 -133 -119q-35 10 -51.5 43.5t-7.5 69.5q-60 -70 -131 -113q-40 18 -56.5 51.5 t0.5 77.5q14 37 66 154q3 14 -2 14q-16 0 -65.5 -58.5t-96 -131t-53.5 -107.5l-49 35l47 141q-39 -8 -70 2q-20 -76 -64 -121.5t-104 -56.5q-46 34 -59 83zM610 43l109 283l45 -39q-23 -36 -43 -99h2q20 32 55 78t47 53q21 14 35 0q16 -13 25 -28q14 -28 -13.5 -60.5 t-66.5 -42.5l-8 7q57 38 47 108q-86 -58 -156 -213q-21 -56 -29 -88zM665.5 1307.5q-2.5 -22.5 12.5 -33.5q8 24 12 72q-22 -16 -24.5 -38.5zM823 422q19 46 140 385q-9 1 -27 2t-25 2l-18 23l8 10q34 -10 70 -13l28 72q16 45 46.5 81.5t64.5 43.5l41 -35l12 37l8 2 q13 -15 23 -33q-9 -22 -27.5 -43t-36.5 -30l-4 4l23 59q-11 -2 -20 -5t-16.5 -6.5t-14.5 -9.5t-11.5 -10t-10 -12t-8.5 -12t-7.5 -14t-5.5 -13.5t-5.5 -14t-5.5 -13.5l-18 -52q39 -3 80 7l6 -13q-30 -11 -94 -14l-152 -412q-28 12 -43 27zM868 84q12 33 47 57q9 -10 11 -14 q-32 -22 -35 -53q0 -32 20 -35q31 -4 57.5 13t35.5 44q9 28 -2.5 53t-30 41t-31 37.5t-4.5 44.5q10 30 44 42t69 1l24 -30l12 28l11 6q12 -16 24 -34q-19 -52 -69 -82l-7 4l27 72q-34 10 -58 2t-30 -29q-9 -24 2.5 -47.5t30.5 -39t32.5 -37t8.5 -42.5q-12 -41 -44.5 -63.5 t-72.5 -22.5q-36 0 -57 25.5t-15 58.5zM1085 664q7 24 24 72t31 84l13 36l43 -43q-43 -118 -53 -149q-17 -47 -17 -117q120 83 185 246l20 63l43 -43q-43 -118 -55 -149q-16 -66 -16 -117q73 37 141 112l141 377l51 -41q-11 -27 -44.5 -111.5t-60 -151t-30.5 -81.5 q-21 -53 -14 -104q76 43 141 121l144 368l47 -41q-16 -44 -73.5 -186.5t-62.5 -157.5q-20 -59 -14 -104q86 46 162 145l10 -4q-72 -106 -160 -164q-34 10 -52 42t-13 69q-56 -66 -119 -111q-33 10 -49.5 40t-13.5 65q-48 -57 -119 -109q-43 13 -52.5 57t13.5 101l-4 2 q-48 -79 -131 -154q-40 14 -54.5 53.5t-1.5 84.5zM1133 133l71 191l49 -39q-47 -121 -57 -152q-18 -63 -18 -110q87 50 151 133q10 54 47.5 101t87.5 69l33 -54q-70 -25 -103 -102t-5 -145q52 15 92.5 57t60.5 104q-32 19 -37.5 55t21.5 72l16 13l27 -39q0 -53 -6 -97 q32 -8 75 0l-6 -12q-41 -11 -71 2q-20 -75 -63 -120.5t-101 -57.5q-73 50 -70 129q-69 -86 -141 -129q-37 13 -50 49.5t-3 81.5zM1227 397l6 6q78 19 104 86l6 -6q0 -31 -16 -64t-39 -54l-10 -3zM1320 905q4 -14 19 -14q33 0 84 143q-68 -31 -102 -106q-5 -9 -1 -23z M1532.5 235q-1.5 -23 13.5 -34q10 38 10 71q-22 -14 -23.5 -37zM1585 41l107 285l43 -37q-62 -144 -82 -195l2 -4q36 63 84.5 126t93.5 103q5 5 16 5.5t17 -5.5l30 -24q16 -19 9 -43q-49 -113 -52 -119q-29 -64 -22 -108q85 42 166 141l10 -6q-73 -100 -162 -158 q-40 18 -57.5 54t0.5 77q34 73 65 152q3 14 -2 14q-16 0 -65.5 -58t-95.5 -131t-54 -110z" />
<glyph unicode="?" horiz-adv-x="929" d="M240 45l47 162l114 -76q-10 -78 -67 -141zM303 1262q77 80 199 129t237 49q76 0 153.5 -72t115.5 -176t10 -186q-19 -55 -53.5 -100t-75.5 -77.5t-88 -63t-95 -63t-91.5 -70t-82 -92.5t-63.5 -122l-39 -21l-61 95q26 71 74.5 131t102.5 99.5t115 80.5t112 74.5t94 81.5 t61 102q37 110 -14 190t-160 80q-100 0 -196 -46.5t-161 -121.5z" />
<glyph unicode="@" d="M92.5 81.5q-14.5 53.5 3.5 94.5q7 24 20.5 61.5t23.5 62.5l10 26l49 -39q-48 -133 -56 -160q-15 -48 -2 -102q107 41 148 157q-36 17 -40.5 54.5t25.5 74.5l17 13l33 -41q0 -38 -11 -95q30 -10 68 0q15 43 51.5 79.5t85.5 58.5l33 -43q-46 -13 -79 -49.5t-44 -83.5 q64 23 106 69t48 109l12 6q9 -7 35 -39q-16 -56 -74.5 -99t-130.5 -61q-13 -55 10 -110q82 19 182 141l11 -4q-92 -126 -185 -160q-95 69 -67 174q-38 -9 -66 -2q-42 -124 -157 -172q-45 26 -59.5 79.5zM223 657q6 25 24 74t33 85l15 36l49 -41q-45 -119 -57 -154 q-21 -73 -21 -110q88 49 160 143l59 162l45 -39q-61 -144 -81 -197l4 -2q83 148 176 232q6 6 16.5 6t18.5 -6l28 -29q8 -6 10 -18t-2 -23q-40 -87 -49 -117q-29 -66 -24 -110q85 43 168 143l10 -2q-74 -108 -164 -164q-41 19 -58.5 55t-0.5 76q30 66 67 154q4 12 -2 12 q-16 0 -65.5 -57.5t-95.5 -130.5t-54 -111l-51 41l31 82q-77 -85 -136 -121q-35 12 -48.5 49t-4.5 82zM283 236q-4 -25 12 -39q13 45 18 77q-26 -13 -30 -38zM319 924l3 6q79 15 106 86l8 -4q-1 -35 -17.5 -68.5t-41.5 -52.5h-12zM465 1158q-13 49 2.5 95t49 86t75.5 60 l33 -53q-68 -25 -100.5 -102.5t-4.5 -145.5q50 12 92 56.5t62 105.5q-35 19 -41 54.5t24 74.5l17 10l26 -39q2 -39 -6 -94q28 -11 74 0l49 133l47 -39q-63 -144 -86 -197l4 -4q72 132 176 236q7 3 17.5 3.5t17.5 -3.5l31 -29q17 -21 6 -43q-6 -14 -17 -40.5t-19.5 -46.5 t-12.5 -32q-30 -65 -23 -106q80 37 158 129l135 356l52 -39q-18 -46 -77.5 -192t-62.5 -154q-19 -56 -12 -100q76 38 158 133l67 172l47 -39q-51 -121 -63 -154q-27 -75 -8 -114q87 59 143 159l49 142l47 -37q-33 -101 -94 -275q39 14 91 60.5t89 93.5l11 -4 q-76 -112 -199 -170q-28 -76 -66.5 -131t-81.5 -55q-33 0 -44.5 17t-0.5 44q9 26 22 44.5t35 32.5t35 20.5t44 19.5q27 81 49 131l-6 2q-62 -76 -115 -117q-37 13 -56 48.5t-10 72.5q-58 -73 -133 -119q-35 10 -51.5 43.5t-7.5 69.5q-60 -70 -131 -113q-40 18 -56.5 51.5 t0.5 77.5q14 37 66 154q3 14 -2 14q-16 0 -65.5 -58.5t-96 -131t-53.5 -107.5l-49 35l47 141q-39 -8 -70 2q-20 -76 -64 -121.5t-104 -56.5q-46 34 -59 83zM610 43l109 283l45 -39q-23 -36 -43 -99h2q20 32 55 78t47 53q21 14 35 0q16 -13 25 -28q14 -28 -13.5 -60.5 t-66.5 -42.5l-8 7q57 38 47 108q-86 -58 -156 -213q-21 -56 -29 -88zM665.5 1307.5q-2.5 -22.5 12.5 -33.5q8 24 12 72q-22 -16 -24.5 -38.5zM823 422q19 46 140 385q-9 1 -27 2t-25 2l-18 23l8 10q34 -10 70 -13l28 72q16 45 46.5 81.5t64.5 43.5l41 -35l12 37l8 2 q13 -15 23 -33q-9 -22 -27.5 -43t-36.5 -30l-4 4l23 59q-11 -2 -20 -5t-16.5 -6.5t-14.5 -9.5t-11.5 -10t-10 -12t-8.5 -12t-7.5 -14t-5.5 -13.5t-5.5 -14t-5.5 -13.5l-18 -52q39 -3 80 7l6 -13q-30 -11 -94 -14l-152 -412q-28 12 -43 27zM868 84q12 33 47 57q9 -10 11 -14 q-32 -22 -35 -53q0 -32 20 -35q31 -4 57.5 13t35.5 44q9 28 -2.5 53t-30 41t-31 37.5t-4.5 44.5q10 30 44 42t69 1l24 -30l12 28l11 6q12 -16 24 -34q-19 -52 -69 -82l-7 4l27 72q-34 10 -58 2t-30 -29q-9 -24 2.5 -47.5t30.5 -39t32.5 -37t8.5 -42.5q-12 -41 -44.5 -63.5 t-72.5 -22.5q-36 0 -57 25.5t-15 58.5zM1085 664q7 24 24 72t31 84l13 36l43 -43q-43 -118 -53 -149q-17 -47 -17 -117q120 83 185 246l20 63l43 -43q-43 -118 -55 -149q-16 -66 -16 -117q73 37 141 112l141 377l51 -41q-11 -27 -44.5 -111.5t-60 -151t-30.5 -81.5 q-21 -53 -14 -104q76 43 141 121l144 368l47 -41q-16 -44 -73.5 -186.5t-62.5 -157.5q-20 -59 -14 -104q86 46 162 145l10 -4q-72 -106 -160 -164q-34 10 -52 42t-13 69q-56 -66 -119 -111q-33 10 -49.5 40t-13.5 65q-48 -57 -119 -109q-43 13 -52.5 57t13.5 101l-4 2 q-48 -79 -131 -154q-40 14 -54.5 53.5t-1.5 84.5zM1133 133l71 191l49 -39q-47 -121 -57 -152q-18 -63 -18 -110q87 50 151 133q10 54 47.5 101t87.5 69l33 -54q-70 -25 -103 -102t-5 -145q52 15 92.5 57t60.5 104q-32 19 -37.5 55t21.5 72l16 13l27 -39q0 -53 -6 -97 q32 -8 75 0l-6 -12q-41 -11 -71 2q-20 -75 -63 -120.5t-101 -57.5q-73 50 -70 129q-69 -86 -141 -129q-37 13 -50 49.5t-3 81.5zM1227 397l6 6q78 19 104 86l6 -6q0 -31 -16 -64t-39 -54l-10 -3zM1320 905q4 -14 19 -14q33 0 84 143q-68 -31 -102 -106q-5 -9 -1 -23z M1532.5 235q-1.5 -23 13.5 -34q10 38 10 71q-22 -14 -23.5 -37zM1585 41l107 285l43 -37q-62 -144 -82 -195l2 -4q36 63 84.5 126t93.5 103q5 5 16 5.5t17 -5.5l30 -24q16 -19 9 -43q-49 -113 -52 -119q-29 -64 -22 -108q85 42 166 141l10 -6q-73 -100 -162 -158 q-40 18 -57.5 54t0.5 77q34 73 65 152q3 14 -2 14q-16 0 -65.5 -58t-95.5 -131t-54 -110z" />
<glyph unicode="A" horiz-adv-x="1171" d="M-37 51q108 262 311 588q-62 -11 -137 -35l-65 78l37 29q133 12 221 14q261 405 520 709h10l150 -125q7 -103 6 -234q0 -167 -10 -379q-19 -380 -74 -710l-137 114q51 246 69 582q9 162 8 309q0 159 -10 301q-235 -258 -436 -563q221 0 367 -20l16 -50q-105 9 -203 9 q-118 0 -225 -13q-202 -319 -354 -671q-3 1 -7 3t-15 9t-19.5 14.5t-15.5 18.5t-7 22z" />
<glyph unicode="B" horiz-adv-x="1171" d="M-51 106l18 41q145 -69 297 -88l-78 62l432 1214l123 -65l-436 -1217q30 -2 60 -2q179 0 323 78q168 91 230 268q15 43 15 81q-1 38 -17 72q-32 66 -112 92q-46 15 -99 16q-40 0 -84 -9l-35 101q115 32 209.5 88t151 118.5t87 123t31.5 110.5q-22 83 -95 132 q-72 49 -168 56q-16 1 -33 1q-82 0 -177 -29q-114 -35 -213 -111l-84 117q103 53 219 77q85 17 167 17q31 0 61 -2q112 -9 207.5 -47t162.5 -116.5t86 -186.5q-158 -282 -461 -365l4 -12q71 0 138 -27.5t115 -75.5q47 -50 65 -116q7 -26 7 -53q0 -43 -17 -91 q-52 -148 -177 -240q-124 -91 -280 -116q-75 -12 -155 -12q-85 0 -171 14q-170 26 -317 102z" />
<glyph unicode="C" horiz-adv-x="1038" d="M122 573q15 124 63.5 243.5t127.5 230.5t177 195.5t220 137.5t248 58l70 -101q18 58 23 88l26 13q46 -57 97 -127q-36 -76 -108 -158.5t-136 -118.5l-25 13q73 126 117 264q-121 -7 -232.5 -52t-197.5 -115t-156.5 -161t-115 -189.5t-66.5 -202.5q-20 -92 -20 -176v-22 q3 -94 34 -177.5t88 -139.5q196 10 350 128.5t228 291.5l24 -17q-59 -174 -211.5 -315t-334.5 -174q-116 55 -188 147.5t-94 202.5q-14 66 -14 136q0 47 6 97z" />
<glyph unicode="D" horiz-adv-x="1464" d="M-14 143l32 17q138 -76 300 -82q18 -1 36 -1q143 1 278 47q152 52 292.5 153t240.5 230q99 129 151 289q37 116 38 231q0 45 -6 89q-83 137 -258 198q-121 42 -256 42q-59 0 -121 -8l96 -58l-428 -1186l-121 82l418 1157q-176 -28 -322 -116l-84 102q170 73 348 95 q81 10 158 10q93 0 181 -14q161 -27 297 -114.5t214 -226.5q9 -60 10 -120q0 -79 -18 -159q-30 -140 -98 -258t-169 -221t-219.5 -176.5t-251.5 -116.5t-261 -48q-14 -1 -28 -1q-114 1 -225 37q-125 40 -224 127z" />
<glyph unicode="E" horiz-adv-x="970" d="M-96 20l37 29q129 18 276 21l-98 59l188 533l-84 -25l-55 72l37 28q105 10 133 11l205 579q-58 2 -146 14l-61 89l33 10q163 -34 360 -48q109 -7 214 -8q86 0 169 5l31 -46q-186 -23 -383 -23q-93 0 -189 5l93 -76l-175 -495h42q157 0 337 -19l17 -49q-126 13 -239 13 q-94 0 -179 -9l-215 -620h31q239 0 465 -43l-7 -39q-157 20 -297 20q-268 0 -473 -74z" />
<glyph unicode="F" horiz-adv-x="948" d="M84 76l233 590q-12 -3 -104 -29l-55 72l37 28q11 1 67.5 6.5t87.5 6.5l221 561q-134 7 -217 20l-63 99l35 10q170 -38 387 -54q124 -9 240 -9q87 0 169 5l33 -49q-190 -26 -411 -26q-65 0 -132 2l84 -64l-192 -491q19 0 39 1q146 0 315 -20l16 -49q-132 13 -244 13 q-81 0 -151 -7l-274 -702z" />
<glyph unicode="G" horiz-adv-x="1069" d="M136 617q13 123 59 237.5t122.5 219t174 183t220.5 126.5t253 53l77 -101l21 88l29 15q45 -57 96 -127q-36 -76 -108 -158.5t-136 -118.5l-24 13q71 126 116 266q-126 -5 -241 -48t-203 -112t-159 -160t-115.5 -190.5t-66.5 -204.5q-18 -86 -18 -165q0 -18 1 -35 q5 -96 38.5 -180.5t94.5 -141.5q112 24 217 88.5t186 151t142.5 181.5t101.5 193q-22 1 -44 1q-201 0 -368 -50l-74 72l37 28q108 13 213 13q127 0 250 -19q2 -5 5 -12t7.5 -20t3.5 -17q-30 -103 -91 -213.5t-141.5 -208.5t-183.5 -172.5t-206 -101.5q-112 73 -182 176 t-94 216q-15 72 -15 149q0 42 5 86z" />
<glyph unicode="H" horiz-adv-x="1148" d="M31 61l211 582l-72 -20l-61 86l36 28q104 10 134 11l249 688l119 -66l-223 -616h46q170 0 355 -19q13 -24 17 -49q-96 7 -184 7q-143 0 -263 -19l-248 -684zM653 61l498 1375l119 -66l-500 -1380z" />
<glyph unicode="I" horiz-adv-x="505" d="M6 74l486 1358l120 -97l-481 -1347z" />
<glyph unicode="J" horiz-adv-x="724" d="M-90 -4l16 31q18 -2 36 -2q120 0 212 72q105 82 166 247l373 1036q-88 -25 -186 -31q-45 -3 -88 -3q-50 0 -97 4l-57 73l34 27q111 -27 240 -27q82 0 172 11l107 -109q-279 -792 -351 -995q-45 -129 -138.5 -211t-204.5 -110q-73 -18 -150 -18q-41 0 -84 5z" />
<glyph unicode="K" horiz-adv-x="1173" d="M0 61l498 1375l118 -66l-499 -1380zM446 748q194 98 387.5 295.5t292.5 390.5h9l112 -80q-111 -188 -282.5 -346t-358.5 -238q44 -228 144 -413t286 -324q-24 -35 -24 -45q-154 82 -274 211.5t-188.5 265.5t-103.5 283z" />
<glyph unicode="L" horiz-adv-x="851" d="M-139 20l37 29q154 21 282 21l-102 77l461 1285l120 -97l-456 -1265h32q241 0 470 -43l-7 -39q-157 20 -297 20q-268 0 -473 -74z" />
<glyph unicode="M" horiz-adv-x="1792" d="M-92 43q39 106 91.5 220t130.5 251t130 226.5t158.5 252.5t142.5 217t150 224h8l145 -82q3 -49 3 -108q0 -93 -7 -211q-11 -194 -25.5 -343.5t-43.5 -417.5l6 -2q50 139 143.5 309t176.5 296.5t200 300t170 258.5h10l148 -82q2 -58 2 -124q-1 -218 -21 -522 q-26 -396 -78 -716q-90 47 -143 76q46 264 70 612q19 279 19 519q0 60 -1 118h-4q-10 -15 -70 -103.5t-83.5 -124.5t-83 -127.5t-91.5 -147t-85.5 -147t-89 -164.5t-77.5 -162t-74.5 -176t-58.5 -173l-143 76q41 304 65 639q19 267 18 496q0 58 -1 114h-6 q-108 -157 -155.5 -227t-157.5 -242.5t-174.5 -289t-139.5 -274.5t-119 -292z" />
<glyph unicode="N" horiz-adv-x="1302" d="M-10 57q158 405 514 1377l8 10l152 -84v-8q0 -225 56 -556q58 -337 152 -671h15q126 288 250 659t182 650l98 -54q-137 -450 -504 -1390l-174 39q-84 257 -143.5 579t-81.5 623h-10q-302 -752 -430 -1241z" />
<glyph unicode="O" horiz-adv-x="1189" d="M173 792q32 114 92.5 221.5t141.5 194t185.5 149t218.5 85.5l78 -123q-121 -11 -234 -90t-193.5 -193.5t-133 -255t-64.5 -272.5q-3 -32 -3 -64q0 -98 28 -186q37 -116 123 -180q118 20 224.5 75t188 132t145.5 173.5t102 199.5q36 102 50 209q7 54 7 105q-1 50 -7 98 q-14 96 -58.5 182t-117.5 145q21 20 33 26q115 -84 167 -220q45 -117 44 -244v-41q-8 -149 -66.5 -306t-152 -285.5t-226 -221t-276.5 -115.5q-113 60 -189 152t-108 196q-32 103 -32 218q0 121 33 236z" />
<glyph unicode="P" horiz-adv-x="1067" d="M158 82l440 1221l111 -76l-445 -1237zM268 1358q138 66 288 80q41 4 81 3q104 1 198 -25q129 -36 228 -124.5t137 -216.5q-19 -129 -116.5 -242t-232 -181.5t-273.5 -84.5l-60 45q230 60 389 205t195 344q-70 89 -202 133q-103 35 -217 34q-32 0 -65 -2 q-150 -12 -268 -81z" />
<glyph unicode="Q" horiz-adv-x="1224" d="M176 802q32 112 92 218t140.5 191t184.5 146.5t218 84.5l78 -123q-113 -13 -222 -92t-189.5 -194t-135.5 -255t-70 -272q-5 -39 -5 -78q0 -88 25 -170q34 -116 120 -180q144 24 272 100q-51 111 -90 275l141 28q30 -155 49 -233q135 111 223 272t113 322q10 59 10 117 q0 99 -28 195q-43 151 -156 243q21 20 33 26q90 -67 142 -167t63 -212q5 -40 5 -82q0 -75 -14 -156q-21 -124 -70.5 -240.5t-125 -223.5t-168.5 -186q69 -197 233 -336q-6 -17 -6 -27q-202 120 -311 299q-129 -82 -258 -102q-111 64 -186 158.5t-107 199.5q-32 104 -32 220 q0 119 32 234z" />
<glyph unicode="R" horiz-adv-x="1224" d="M109 94l432 1194l114 -74l-444 -1224zM258 1356q130 64 265 79q42 5 82 4q89 -1 173 -23q120 -34 221.5 -121t161.5 -220q-11 -102 -80.5 -181.5t-164.5 -122.5t-203 -56q24 -206 127.5 -381.5t283.5 -302.5l-14 -43q-218 116 -362.5 319.5t-192.5 448.5 q126 6 237.5 60.5t182.5 147t80 201.5q-49 87 -173 129q-93 32 -201 32q-35 0 -72 -3q-149 -14 -269 -80z" />
<glyph unicode="S" horiz-adv-x="888" d="M20 317q3 1 8.5 3.5t19.5 5.5t24 2q12 -73 52 -123q40 -49 94 -69q44 -16 95 -17q9 0 21 1q62 4 118.5 30.5t101 77.5t62.5 118q12 46 12 92q0 20 -2 40q-8 65 -34.5 117.5t-64 107.5t-78 101.5t-76.5 99.5t-60 102q-23 49 -27 109q0 8 -1 16q0 52 20 104 q33 87 106.5 142t155.5 67q23 3 46 4q59 0 117 -22q82 -30 130 -101q10 42 17 98l28 15q45 -57 96 -127q-40 -83 -107.5 -160.5t-135.5 -116.5l-25 13q87 129 119 247q-66 58 -153 60q-4 0 -8 1q-83 -1 -155 -51q-76 -52 -108 -143q-18 -50 -18 -99v-10q2 -54 21 -98.5 t48 -91.5t65 -88.5t71.5 -88.5t66 -92t49.5 -98t23 -107q1 -9 0 -19q0 -46 -15 -101q-28 -95 -90 -162q-63 -68 -137 -96q-63 -24 -132 -24q-12 0 -24 1q-82 5 -151.5 41.5t-120.5 111.5t-64 177z" />
<glyph unicode="T" horiz-adv-x="1038" d="M281 1430l32 10q217 -28 495 -32q45 -1 90 0q225 0 415 19l33 -38q-280 -38 -555 -50l86 -55l-465 -1294l-117 71l459 1278q-81 -3 -154 -3q-145 0 -256 12z" />
<glyph unicode="U" horiz-adv-x="1247" d="M146 455q6 98 40 194q38 108 113 304.5t131 339.5l55 143l103 -111q-203 -529 -256 -672q-40 -105 -58 -213q-10 -61 -10 -120q0 -47 6 -94q14 -106 72 -160q270 196 457 434.5t315 548.5l139 376l117 -94l-520 -1343l-121 84l209 483l-12 4q-94 -139 -224 -271 t-315 -286q-86 38 -143.5 109t-79.5 159q-18 70 -19 147q0 19 1 38z" />
<glyph unicode="V" horiz-adv-x="1087" d="M254 68q40 198 52 458q6 135 6 263q0 117 -5 227q-11 230 -39 420l152 -72q27 -217 26 -523v-33q-2 -328 -40 -638l12 -2q221 218 438 578.5t309 687.5l142 -86q-377 -740 -914 -1358q-86 47 -139 78z" />
<glyph unicode="W" horiz-adv-x="1748" d="M233 68q60 531 60 952q0 224 -17 416l150 -72q9 -116 9 -254q0 -385 -68 -942l14 -4q190 234 378.5 584t278.5 673l9 13l141 -84q3 -66 3 -144q0 -388 -83 -1054l10 -5q149 158 290.5 366.5t254.5 459.5t143 463l131 -105q-16 -60 -43.5 -128t-53 -125t-73 -138t-77 -131 t-93.5 -142t-92 -133t-104 -142.5t-99 -132t-107 -140t-99 -129.5l-138 78q52 239 85 563.5t38 560.5l-10 4q-207 -538 -700 -1206q-136 76 -138 78z" />
<glyph unicode="X" horiz-adv-x="1091" d="M-135 57q263 335 643 697q-88 394 -94 680l161 -78v-18q0 -178 56 -468q331 308 655 564l68 -54q-310 -207 -709 -579q88 -405 238 -811l-152 43q-121 286 -207 649q-373 -363 -622 -692z" />
<glyph unicode="Y" horiz-adv-x="940" d="M231 72q225 619 250 682q-62 153 -125.5 353t-83.5 327l144 -54q44 -274 178 -585q123 103 271 291t237 348l96 -95q-87 -148 -258 -322.5t-319 -277.5l-261 -749z" />
<glyph unicode="Z" horiz-adv-x="1052" d="M-92 139q224 282 557.5 610.5t662.5 612.5q-79 5 -156 5q-113 0 -225 -11q-187 -19 -296 -76l-23 8l-68 117q194 24 426 27h51q200 0 347 -21l73 -119q-265 -178 -596.5 -505t-617.5 -674q191 -32 419 -35h46q196 0 321 20q-2 -31 0 -39q-178 -33 -427 -41 q-94 -3 -179 -4q-139 0 -252 9z" />
<glyph unicode="[" d="M92.5 81.5q-14.5 53.5 3.5 94.5q7 24 20.5 61.5t23.5 62.5l10 26l49 -39q-48 -133 -56 -160q-15 -48 -2 -102q107 41 148 157q-36 17 -40.5 54.5t25.5 74.5l17 13l33 -41q0 -38 -11 -95q30 -10 68 0q15 43 51.5 79.5t85.5 58.5l33 -43q-46 -13 -79 -49.5t-44 -83.5 q64 23 106 69t48 109l12 6q9 -7 35 -39q-16 -56 -74.5 -99t-130.5 -61q-13 -55 10 -110q82 19 182 141l11 -4q-92 -126 -185 -160q-95 69 -67 174q-38 -9 -66 -2q-42 -124 -157 -172q-45 26 -59.5 79.5zM223 657q6 25 24 74t33 85l15 36l49 -41q-45 -119 -57 -154 q-21 -73 -21 -110q88 49 160 143l59 162l45 -39q-61 -144 -81 -197l4 -2q83 148 176 232q6 6 16.5 6t18.5 -6l28 -29q8 -6 10 -18t-2 -23q-40 -87 -49 -117q-29 -66 -24 -110q85 43 168 143l10 -2q-74 -108 -164 -164q-41 19 -58.5 55t-0.5 76q30 66 67 154q4 12 -2 12 q-16 0 -65.5 -57.5t-95.5 -130.5t-54 -111l-51 41l31 82q-77 -85 -136 -121q-35 12 -48.5 49t-4.5 82zM283 236q-4 -25 12 -39q13 45 18 77q-26 -13 -30 -38zM319 924l3 6q79 15 106 86l8 -4q-1 -35 -17.5 -68.5t-41.5 -52.5h-12zM465 1158q-13 49 2.5 95t49 86t75.5 60 l33 -53q-68 -25 -100.5 -102.5t-4.5 -145.5q50 12 92 56.5t62 105.5q-35 19 -41 54.5t24 74.5l17 10l26 -39q2 -39 -6 -94q28 -11 74 0l49 133l47 -39q-63 -144 -86 -197l4 -4q72 132 176 236q7 3 17.5 3.5t17.5 -3.5l31 -29q17 -21 6 -43q-6 -14 -17 -40.5t-19.5 -46.5 t-12.5 -32q-30 -65 -23 -106q80 37 158 129l135 356l52 -39q-18 -46 -77.5 -192t-62.5 -154q-19 -56 -12 -100q76 38 158 133l67 172l47 -39q-51 -121 -63 -154q-27 -75 -8 -114q87 59 143 159l49 142l47 -37q-33 -101 -94 -275q39 14 91 60.5t89 93.5l11 -4 q-76 -112 -199 -170q-28 -76 -66.5 -131t-81.5 -55q-33 0 -44.5 17t-0.5 44q9 26 22 44.5t35 32.5t35 20.5t44 19.5q27 81 49 131l-6 2q-62 -76 -115 -117q-37 13 -56 48.5t-10 72.5q-58 -73 -133 -119q-35 10 -51.5 43.5t-7.5 69.5q-60 -70 -131 -113q-40 18 -56.5 51.5 t0.5 77.5q14 37 66 154q3 14 -2 14q-16 0 -65.5 -58.5t-96 -131t-53.5 -107.5l-49 35l47 141q-39 -8 -70 2q-20 -76 -64 -121.5t-104 -56.5q-46 34 -59 83zM610 43l109 283l45 -39q-23 -36 -43 -99h2q20 32 55 78t47 53q21 14 35 0q16 -13 25 -28q14 -28 -13.5 -60.5 t-66.5 -42.5l-8 7q57 38 47 108q-86 -58 -156 -213q-21 -56 -29 -88zM665.5 1307.5q-2.5 -22.5 12.5 -33.5q8 24 12 72q-22 -16 -24.5 -38.5zM823 422q19 46 140 385q-9 1 -27 2t-25 2l-18 23l8 10q34 -10 70 -13l28 72q16 45 46.5 81.5t64.5 43.5l41 -35l12 37l8 2 q13 -15 23 -33q-9 -22 -27.5 -43t-36.5 -30l-4 4l23 59q-11 -2 -20 -5t-16.5 -6.5t-14.5 -9.5t-11.5 -10t-10 -12t-8.5 -12t-7.5 -14t-5.5 -13.5t-5.5 -14t-5.5 -13.5l-18 -52q39 -3 80 7l6 -13q-30 -11 -94 -14l-152 -412q-28 12 -43 27zM868 84q12 33 47 57q9 -10 11 -14 q-32 -22 -35 -53q0 -32 20 -35q31 -4 57.5 13t35.5 44q9 28 -2.5 53t-30 41t-31 37.5t-4.5 44.5q10 30 44 42t69 1l24 -30l12 28l11 6q12 -16 24 -34q-19 -52 -69 -82l-7 4l27 72q-34 10 -58 2t-30 -29q-9 -24 2.5 -47.5t30.5 -39t32.5 -37t8.5 -42.5q-12 -41 -44.5 -63.5 t-72.5 -22.5q-36 0 -57 25.5t-15 58.5zM1085 664q7 24 24 72t31 84l13 36l43 -43q-43 -118 -53 -149q-17 -47 -17 -117q120 83 185 246l20 63l43 -43q-43 -118 -55 -149q-16 -66 -16 -117q73 37 141 112l141 377l51 -41q-11 -27 -44.5 -111.5t-60 -151t-30.5 -81.5 q-21 -53 -14 -104q76 43 141 121l144 368l47 -41q-16 -44 -73.5 -186.5t-62.5 -157.5q-20 -59 -14 -104q86 46 162 145l10 -4q-72 -106 -160 -164q-34 10 -52 42t-13 69q-56 -66 -119 -111q-33 10 -49.5 40t-13.5 65q-48 -57 -119 -109q-43 13 -52.5 57t13.5 101l-4 2 q-48 -79 -131 -154q-40 14 -54.5 53.5t-1.5 84.5zM1133 133l71 191l49 -39q-47 -121 -57 -152q-18 -63 -18 -110q87 50 151 133q10 54 47.5 101t87.5 69l33 -54q-70 -25 -103 -102t-5 -145q52 15 92.5 57t60.5 104q-32 19 -37.5 55t21.5 72l16 13l27 -39q0 -53 -6 -97 q32 -8 75 0l-6 -12q-41 -11 -71 2q-20 -75 -63 -120.5t-101 -57.5q-73 50 -70 129q-69 -86 -141 -129q-37 13 -50 49.5t-3 81.5zM1227 397l6 6q78 19 104 86l6 -6q0 -31 -16 -64t-39 -54l-10 -3zM1320 905q4 -14 19 -14q33 0 84 143q-68 -31 -102 -106q-5 -9 -1 -23z M1532.5 235q-1.5 -23 13.5 -34q10 38 10 71q-22 -14 -23.5 -37zM1585 41l107 285l43 -37q-62 -144 -82 -195l2 -4q36 63 84.5 126t93.5 103q5 5 16 5.5t17 -5.5l30 -24q16 -19 9 -43q-49 -113 -52 -119q-29 -64 -22 -108q85 42 166 141l10 -6q-73 -100 -162 -158 q-40 18 -57.5 54t0.5 77q34 73 65 152q3 14 -2 14q-16 0 -65.5 -58t-95.5 -131t-54 -110z" />
<glyph unicode="\" d="M92.5 81.5q-14.5 53.5 3.5 94.5q7 24 20.5 61.5t23.5 62.5l10 26l49 -39q-48 -133 -56 -160q-15 -48 -2 -102q107 41 148 157q-36 17 -40.5 54.5t25.5 74.5l17 13l33 -41q0 -38 -11 -95q30 -10 68 0q15 43 51.5 79.5t85.5 58.5l33 -43q-46 -13 -79 -49.5t-44 -83.5 q64 23 106 69t48 109l12 6q9 -7 35 -39q-16 -56 -74.5 -99t-130.5 -61q-13 -55 10 -110q82 19 182 141l11 -4q-92 -126 -185 -160q-95 69 -67 174q-38 -9 -66 -2q-42 -124 -157 -172q-45 26 -59.5 79.5zM223 657q6 25 24 74t33 85l15 36l49 -41q-45 -119 -57 -154 q-21 -73 -21 -110q88 49 160 143l59 162l45 -39q-61 -144 -81 -197l4 -2q83 148 176 232q6 6 16.5 6t18.5 -6l28 -29q8 -6 10 -18t-2 -23q-40 -87 -49 -117q-29 -66 -24 -110q85 43 168 143l10 -2q-74 -108 -164 -164q-41 19 -58.5 55t-0.5 76q30 66 67 154q4 12 -2 12 q-16 0 -65.5 -57.5t-95.5 -130.5t-54 -111l-51 41l31 82q-77 -85 -136 -121q-35 12 -48.5 49t-4.5 82zM283 236q-4 -25 12 -39q13 45 18 77q-26 -13 -30 -38zM319 924l3 6q79 15 106 86l8 -4q-1 -35 -17.5 -68.5t-41.5 -52.5h-12zM465 1158q-13 49 2.5 95t49 86t75.5 60 l33 -53q-68 -25 -100.5 -102.5t-4.5 -145.5q50 12 92 56.5t62 105.5q-35 19 -41 54.5t24 74.5l17 10l26 -39q2 -39 -6 -94q28 -11 74 0l49 133l47 -39q-63 -144 -86 -197l4 -4q72 132 176 236q7 3 17.5 3.5t17.5 -3.5l31 -29q17 -21 6 -43q-6 -14 -17 -40.5t-19.5 -46.5 t-12.5 -32q-30 -65 -23 -106q80 37 158 129l135 356l52 -39q-18 -46 -77.5 -192t-62.5 -154q-19 -56 -12 -100q76 38 158 133l67 172l47 -39q-51 -121 -63 -154q-27 -75 -8 -114q87 59 143 159l49 142l47 -37q-33 -101 -94 -275q39 14 91 60.5t89 93.5l11 -4 q-76 -112 -199 -170q-28 -76 -66.5 -131t-81.5 -55q-33 0 -44.5 17t-0.5 44q9 26 22 44.5t35 32.5t35 20.5t44 19.5q27 81 49 131l-6 2q-62 -76 -115 -117q-37 13 -56 48.5t-10 72.5q-58 -73 -133 -119q-35 10 -51.5 43.5t-7.5 69.5q-60 -70 -131 -113q-40 18 -56.5 51.5 t0.5 77.5q14 37 66 154q3 14 -2 14q-16 0 -65.5 -58.5t-96 -131t-53.5 -107.5l-49 35l47 141q-39 -8 -70 2q-20 -76 -64 -121.5t-104 -56.5q-46 34 -59 83zM610 43l109 283l45 -39q-23 -36 -43 -99h2q20 32 55 78t47 53q21 14 35 0q16 -13 25 -28q14 -28 -13.5 -60.5 t-66.5 -42.5l-8 7q57 38 47 108q-86 -58 -156 -213q-21 -56 -29 -88zM665.5 1307.5q-2.5 -22.5 12.5 -33.5q8 24 12 72q-22 -16 -24.5 -38.5zM823 422q19 46 140 385q-9 1 -27 2t-25 2l-18 23l8 10q34 -10 70 -13l28 72q16 45 46.5 81.5t64.5 43.5l41 -35l12 37l8 2 q13 -15 23 -33q-9 -22 -27.5 -43t-36.5 -30l-4 4l23 59q-11 -2 -20 -5t-16.5 -6.5t-14.5 -9.5t-11.5 -10t-10 -12t-8.5 -12t-7.5 -14t-5.5 -13.5t-5.5 -14t-5.5 -13.5l-18 -52q39 -3 80 7l6 -13q-30 -11 -94 -14l-152 -412q-28 12 -43 27zM868 84q12 33 47 57q9 -10 11 -14 q-32 -22 -35 -53q0 -32 20 -35q31 -4 57.5 13t35.5 44q9 28 -2.5 53t-30 41t-31 37.5t-4.5 44.5q10 30 44 42t69 1l24 -30l12 28l11 6q12 -16 24 -34q-19 -52 -69 -82l-7 4l27 72q-34 10 -58 2t-30 -29q-9 -24 2.5 -47.5t30.5 -39t32.5 -37t8.5 -42.5q-12 -41 -44.5 -63.5 t-72.5 -22.5q-36 0 -57 25.5t-15 58.5zM1085 664q7 24 24 72t31 84l13 36l43 -43q-43 -118 -53 -149q-17 -47 -17 -117q120 83 185 246l20 63l43 -43q-43 -118 -55 -149q-16 -66 -16 -117q73 37 141 112l141 377l51 -41q-11 -27 -44.5 -111.5t-60 -151t-30.5 -81.5 q-21 -53 -14 -104q76 43 141 121l144 368l47 -41q-16 -44 -73.5 -186.5t-62.5 -157.5q-20 -59 -14 -104q86 46 162 145l10 -4q-72 -106 -160 -164q-34 10 -52 42t-13 69q-56 -66 -119 -111q-33 10 -49.5 40t-13.5 65q-48 -57 -119 -109q-43 13 -52.5 57t13.5 101l-4 2 q-48 -79 -131 -154q-40 14 -54.5 53.5t-1.5 84.5zM1133 133l71 191l49 -39q-47 -121 -57 -152q-18 -63 -18 -110q87 50 151 133q10 54 47.5 101t87.5 69l33 -54q-70 -25 -103 -102t-5 -145q52 15 92.5 57t60.5 104q-32 19 -37.5 55t21.5 72l16 13l27 -39q0 -53 -6 -97 q32 -8 75 0l-6 -12q-41 -11 -71 2q-20 -75 -63 -120.5t-101 -57.5q-73 50 -70 129q-69 -86 -141 -129q-37 13 -50 49.5t-3 81.5zM1227 397l6 6q78 19 104 86l6 -6q0 -31 -16 -64t-39 -54l-10 -3zM1320 905q4 -14 19 -14q33 0 84 143q-68 -31 -102 -106q-5 -9 -1 -23z M1532.5 235q-1.5 -23 13.5 -34q10 38 10 71q-22 -14 -23.5 -37zM1585 41l107 285l43 -37q-62 -144 -82 -195l2 -4q36 63 84.5 126t93.5 103q5 5 16 5.5t17 -5.5l30 -24q16 -19 9 -43q-49 -113 -52 -119q-29 -64 -22 -108q85 42 166 141l10 -6q-73 -100 -162 -158 q-40 18 -57.5 54t0.5 77q34 73 65 152q3 14 -2 14q-16 0 -65.5 -58t-95.5 -131t-54 -110z" />
<glyph unicode="]" d="M92.5 81.5q-14.5 53.5 3.5 94.5q7 24 20.5 61.5t23.5 62.5l10 26l49 -39q-48 -133 -56 -160q-15 -48 -2 -102q107 41 148 157q-36 17 -40.5 54.5t25.5 74.5l17 13l33 -41q0 -38 -11 -95q30 -10 68 0q15 43 51.5 79.5t85.5 58.5l33 -43q-46 -13 -79 -49.5t-44 -83.5 q64 23 106 69t48 109l12 6q9 -7 35 -39q-16 -56 -74.5 -99t-130.5 -61q-13 -55 10 -110q82 19 182 141l11 -4q-92 -126 -185 -160q-95 69 -67 174q-38 -9 -66 -2q-42 -124 -157 -172q-45 26 -59.5 79.5zM223 657q6 25 24 74t33 85l15 36l49 -41q-45 -119 -57 -154 q-21 -73 -21 -110q88 49 160 143l59 162l45 -39q-61 -144 -81 -197l4 -2q83 148 176 232q6 6 16.5 6t18.5 -6l28 -29q8 -6 10 -18t-2 -23q-40 -87 -49 -117q-29 -66 -24 -110q85 43 168 143l10 -2q-74 -108 -164 -164q-41 19 -58.5 55t-0.5 76q30 66 67 154q4 12 -2 12 q-16 0 -65.5 -57.5t-95.5 -130.5t-54 -111l-51 41l31 82q-77 -85 -136 -121q-35 12 -48.5 49t-4.5 82zM283 236q-4 -25 12 -39q13 45 18 77q-26 -13 -30 -38zM319 924l3 6q79 15 106 86l8 -4q-1 -35 -17.5 -68.5t-41.5 -52.5h-12zM465 1158q-13 49 2.5 95t49 86t75.5 60 l33 -53q-68 -25 -100.5 -102.5t-4.5 -145.5q50 12 92 56.5t62 105.5q-35 19 -41 54.5t24 74.5l17 10l26 -39q2 -39 -6 -94q28 -11 74 0l49 133l47 -39q-63 -144 -86 -197l4 -4q72 132 176 236q7 3 17.5 3.5t17.5 -3.5l31 -29q17 -21 6 -43q-6 -14 -17 -40.5t-19.5 -46.5 t-12.5 -32q-30 -65 -23 -106q80 37 158 129l135 356l52 -39q-18 -46 -77.5 -192t-62.5 -154q-19 -56 -12 -100q76 38 158 133l67 172l47 -39q-51 -121 -63 -154q-27 -75 -8 -114q87 59 143 159l49 142l47 -37q-33 -101 -94 -275q39 14 91 60.5t89 93.5l11 -4 q-76 -112 -199 -170q-28 -76 -66.5 -131t-81.5 -55q-33 0 -44.5 17t-0.5 44q9 26 22 44.5t35 32.5t35 20.5t44 19.5q27 81 49 131l-6 2q-62 -76 -115 -117q-37 13 -56 48.5t-10 72.5q-58 -73 -133 -119q-35 10 -51.5 43.5t-7.5 69.5q-60 -70 -131 -113q-40 18 -56.5 51.5 t0.5 77.5q14 37 66 154q3 14 -2 14q-16 0 -65.5 -58.5t-96 -131t-53.5 -107.5l-49 35l47 141q-39 -8 -70 2q-20 -76 -64 -121.5t-104 -56.5q-46 34 -59 83zM610 43l109 283l45 -39q-23 -36 -43 -99h2q20 32 55 78t47 53q21 14 35 0q16 -13 25 -28q14 -28 -13.5 -60.5 t-66.5 -42.5l-8 7q57 38 47 108q-86 -58 -156 -213q-21 -56 -29 -88zM665.5 1307.5q-2.5 -22.5 12.5 -33.5q8 24 12 72q-22 -16 -24.5 -38.5zM823 422q19 46 140 385q-9 1 -27 2t-25 2l-18 23l8 10q34 -10 70 -13l28 72q16 45 46.5 81.5t64.5 43.5l41 -35l12 37l8 2 q13 -15 23 -33q-9 -22 -27.5 -43t-36.5 -30l-4 4l23 59q-11 -2 -20 -5t-16.5 -6.5t-14.5 -9.5t-11.5 -10t-10 -12t-8.5 -12t-7.5 -14t-5.5 -13.5t-5.5 -14t-5.5 -13.5l-18 -52q39 -3 80 7l6 -13q-30 -11 -94 -14l-152 -412q-28 12 -43 27zM868 84q12 33 47 57q9 -10 11 -14 q-32 -22 -35 -53q0 -32 20 -35q31 -4 57.5 13t35.5 44q9 28 -2.5 53t-30 41t-31 37.5t-4.5 44.5q10 30 44 42t69 1l24 -30l12 28l11 6q12 -16 24 -34q-19 -52 -69 -82l-7 4l27 72q-34 10 -58 2t-30 -29q-9 -24 2.5 -47.5t30.5 -39t32.5 -37t8.5 -42.5q-12 -41 -44.5 -63.5 t-72.5 -22.5q-36 0 -57 25.5t-15 58.5zM1085 664q7 24 24 72t31 84l13 36l43 -43q-43 -118 -53 -149q-17 -47 -17 -117q120 83 185 246l20 63l43 -43q-43 -118 -55 -149q-16 -66 -16 -117q73 37 141 112l141 377l51 -41q-11 -27 -44.5 -111.5t-60 -151t-30.5 -81.5 q-21 -53 -14 -104q76 43 141 121l144 368l47 -41q-16 -44 -73.5 -186.5t-62.5 -157.5q-20 -59 -14 -104q86 46 162 145l10 -4q-72 -106 -160 -164q-34 10 -52 42t-13 69q-56 -66 -119 -111q-33 10 -49.5 40t-13.5 65q-48 -57 -119 -109q-43 13 -52.5 57t13.5 101l-4 2 q-48 -79 -131 -154q-40 14 -54.5 53.5t-1.5 84.5zM1133 133l71 191l49 -39q-47 -121 -57 -152q-18 -63 -18 -110q87 50 151 133q10 54 47.5 101t87.5 69l33 -54q-70 -25 -103 -102t-5 -145q52 15 92.5 57t60.5 104q-32 19 -37.5 55t21.5 72l16 13l27 -39q0 -53 -6 -97 q32 -8 75 0l-6 -12q-41 -11 -71 2q-20 -75 -63 -120.5t-101 -57.5q-73 50 -70 129q-69 -86 -141 -129q-37 13 -50 49.5t-3 81.5zM1227 397l6 6q78 19 104 86l6 -6q0 -31 -16 -64t-39 -54l-10 -3zM1320 905q4 -14 19 -14q33 0 84 143q-68 -31 -102 -106q-5 -9 -1 -23z M1532.5 235q-1.5 -23 13.5 -34q10 38 10 71q-22 -14 -23.5 -37zM1585 41l107 285l43 -37q-62 -144 -82 -195l2 -4q36 63 84.5 126t93.5 103q5 5 16 5.5t17 -5.5l30 -24q16 -19 9 -43q-49 -113 -52 -119q-29 -64 -22 -108q85 42 166 141l10 -6q-73 -100 -162 -158 q-40 18 -57.5 54t0.5 77q34 73 65 152q3 14 -2 14q-16 0 -65.5 -58t-95.5 -131t-54 -110z" />
<glyph unicode="^" d="M92.5 81.5q-14.5 53.5 3.5 94.5q7 24 20.5 61.5t23.5 62.5l10 26l49 -39q-48 -133 -56 -160q-15 -48 -2 -102q107 41 148 157q-36 17 -40.5 54.5t25.5 74.5l17 13l33 -41q0 -38 -11 -95q30 -10 68 0q15 43 51.5 79.5t85.5 58.5l33 -43q-46 -13 -79 -49.5t-44 -83.5 q64 23 106 69t48 109l12 6q9 -7 35 -39q-16 -56 -74.5 -99t-130.5 -61q-13 -55 10 -110q82 19 182 141l11 -4q-92 -126 -185 -160q-95 69 -67 174q-38 -9 -66 -2q-42 -124 -157 -172q-45 26 -59.5 79.5zM223 657q6 25 24 74t33 85l15 36l49 -41q-45 -119 -57 -154 q-21 -73 -21 -110q88 49 160 143l59 162l45 -39q-61 -144 -81 -197l4 -2q83 148 176 232q6 6 16.5 6t18.5 -6l28 -29q8 -6 10 -18t-2 -23q-40 -87 -49 -117q-29 -66 -24 -110q85 43 168 143l10 -2q-74 -108 -164 -164q-41 19 -58.5 55t-0.5 76q30 66 67 154q4 12 -2 12 q-16 0 -65.5 -57.5t-95.5 -130.5t-54 -111l-51 41l31 82q-77 -85 -136 -121q-35 12 -48.5 49t-4.5 82zM283 236q-4 -25 12 -39q13 45 18 77q-26 -13 -30 -38zM319 924l3 6q79 15 106 86l8 -4q-1 -35 -17.5 -68.5t-41.5 -52.5h-12zM465 1158q-13 49 2.5 95t49 86t75.5 60 l33 -53q-68 -25 -100.5 -102.5t-4.5 -145.5q50 12 92 56.5t62 105.5q-35 19 -41 54.5t24 74.5l17 10l26 -39q2 -39 -6 -94q28 -11 74 0l49 133l47 -39q-63 -144 -86 -197l4 -4q72 132 176 236q7 3 17.5 3.5t17.5 -3.5l31 -29q17 -21 6 -43q-6 -14 -17 -40.5t-19.5 -46.5 t-12.5 -32q-30 -65 -23 -106q80 37 158 129l135 356l52 -39q-18 -46 -77.5 -192t-62.5 -154q-19 -56 -12 -100q76 38 158 133l67 172l47 -39q-51 -121 -63 -154q-27 -75 -8 -114q87 59 143 159l49 142l47 -37q-33 -101 -94 -275q39 14 91 60.5t89 93.5l11 -4 q-76 -112 -199 -170q-28 -76 -66.5 -131t-81.5 -55q-33 0 -44.5 17t-0.5 44q9 26 22 44.5t35 32.5t35 20.5t44 19.5q27 81 49 131l-6 2q-62 -76 -115 -117q-37 13 -56 48.5t-10 72.5q-58 -73 -133 -119q-35 10 -51.5 43.5t-7.5 69.5q-60 -70 -131 -113q-40 18 -56.5 51.5 t0.5 77.5q14 37 66 154q3 14 -2 14q-16 0 -65.5 -58.5t-96 -131t-53.5 -107.5l-49 35l47 141q-39 -8 -70 2q-20 -76 -64 -121.5t-104 -56.5q-46 34 -59 83zM610 43l109 283l45 -39q-23 -36 -43 -99h2q20 32 55 78t47 53q21 14 35 0q16 -13 25 -28q14 -28 -13.5 -60.5 t-66.5 -42.5l-8 7q57 38 47 108q-86 -58 -156 -213q-21 -56 -29 -88zM665.5 1307.5q-2.5 -22.5 12.5 -33.5q8 24 12 72q-22 -16 -24.5 -38.5zM823 422q19 46 140 385q-9 1 -27 2t-25 2l-18 23l8 10q34 -10 70 -13l28 72q16 45 46.5 81.5t64.5 43.5l41 -35l12 37l8 2 q13 -15 23 -33q-9 -22 -27.5 -43t-36.5 -30l-4 4l23 59q-11 -2 -20 -5t-16.5 -6.5t-14.5 -9.5t-11.5 -10t-10 -12t-8.5 -12t-7.5 -14t-5.5 -13.5t-5.5 -14t-5.5 -13.5l-18 -52q39 -3 80 7l6 -13q-30 -11 -94 -14l-152 -412q-28 12 -43 27zM868 84q12 33 47 57q9 -10 11 -14 q-32 -22 -35 -53q0 -32 20 -35q31 -4 57.5 13t35.5 44q9 28 -2.5 53t-30 41t-31 37.5t-4.5 44.5q10 30 44 42t69 1l24 -30l12 28l11 6q12 -16 24 -34q-19 -52 -69 -82l-7 4l27 72q-34 10 -58 2t-30 -29q-9 -24 2.5 -47.5t30.5 -39t32.5 -37t8.5 -42.5q-12 -41 -44.5 -63.5 t-72.5 -22.5q-36 0 -57 25.5t-15 58.5zM1085 664q7 24 24 72t31 84l13 36l43 -43q-43 -118 -53 -149q-17 -47 -17 -117q120 83 185 246l20 63l43 -43q-43 -118 -55 -149q-16 -66 -16 -117q73 37 141 112l141 377l51 -41q-11 -27 -44.5 -111.5t-60 -151t-30.5 -81.5 q-21 -53 -14 -104q76 43 141 121l144 368l47 -41q-16 -44 -73.5 -186.5t-62.5 -157.5q-20 -59 -14 -104q86 46 162 145l10 -4q-72 -106 -160 -164q-34 10 -52 42t-13 69q-56 -66 -119 -111q-33 10 -49.5 40t-13.5 65q-48 -57 -119 -109q-43 13 -52.5 57t13.5 101l-4 2 q-48 -79 -131 -154q-40 14 -54.5 53.5t-1.5 84.5zM1133 133l71 191l49 -39q-47 -121 -57 -152q-18 -63 -18 -110q87 50 151 133q10 54 47.5 101t87.5 69l33 -54q-70 -25 -103 -102t-5 -145q52 15 92.5 57t60.5 104q-32 19 -37.5 55t21.5 72l16 13l27 -39q0 -53 -6 -97 q32 -8 75 0l-6 -12q-41 -11 -71 2q-20 -75 -63 -120.5t-101 -57.5q-73 50 -70 129q-69 -86 -141 -129q-37 13 -50 49.5t-3 81.5zM1227 397l6 6q78 19 104 86l6 -6q0 -31 -16 -64t-39 -54l-10 -3zM1320 905q4 -14 19 -14q33 0 84 143q-68 -31 -102 -106q-5 -9 -1 -23z M1532.5 235q-1.5 -23 13.5 -34q10 38 10 71q-22 -14 -23.5 -37zM1585 41l107 285l43 -37q-62 -144 -82 -195l2 -4q36 63 84.5 126t93.5 103q5 5 16 5.5t17 -5.5l30 -24q16 -19 9 -43q-49 -113 -52 -119q-29 -64 -22 -108q85 42 166 141l10 -6q-73 -100 -162 -158 q-40 18 -57.5 54t0.5 77q34 73 65 152q3 14 -2 14q-16 0 -65.5 -58t-95.5 -131t-54 -110z" />
<glyph unicode="_" d="M92.5 81.5q-14.5 53.5 3.5 94.5q7 24 20.5 61.5t23.5 62.5l10 26l49 -39q-48 -133 -56 -160q-15 -48 -2 -102q107 41 148 157q-36 17 -40.5 54.5t25.5 74.5l17 13l33 -41q0 -38 -11 -95q30 -10 68 0q15 43 51.5 79.5t85.5 58.5l33 -43q-46 -13 -79 -49.5t-44 -83.5 q64 23 106 69t48 109l12 6q9 -7 35 -39q-16 -56 -74.5 -99t-130.5 -61q-13 -55 10 -110q82 19 182 141l11 -4q-92 -126 -185 -160q-95 69 -67 174q-38 -9 -66 -2q-42 -124 -157 -172q-45 26 -59.5 79.5zM223 657q6 25 24 74t33 85l15 36l49 -41q-45 -119 -57 -154 q-21 -73 -21 -110q88 49 160 143l59 162l45 -39q-61 -144 -81 -197l4 -2q83 148 176 232q6 6 16.5 6t18.5 -6l28 -29q8 -6 10 -18t-2 -23q-40 -87 -49 -117q-29 -66 -24 -110q85 43 168 143l10 -2q-74 -108 -164 -164q-41 19 -58.5 55t-0.5 76q30 66 67 154q4 12 -2 12 q-16 0 -65.5 -57.5t-95.5 -130.5t-54 -111l-51 41l31 82q-77 -85 -136 -121q-35 12 -48.5 49t-4.5 82zM283 236q-4 -25 12 -39q13 45 18 77q-26 -13 -30 -38zM319 924l3 6q79 15 106 86l8 -4q-1 -35 -17.5 -68.5t-41.5 -52.5h-12zM465 1158q-13 49 2.5 95t49 86t75.5 60 l33 -53q-68 -25 -100.5 -102.5t-4.5 -145.5q50 12 92 56.5t62 105.5q-35 19 -41 54.5t24 74.5l17 10l26 -39q2 -39 -6 -94q28 -11 74 0l49 133l47 -39q-63 -144 -86 -197l4 -4q72 132 176 236q7 3 17.5 3.5t17.5 -3.5l31 -29q17 -21 6 -43q-6 -14 -17 -40.5t-19.5 -46.5 t-12.5 -32q-30 -65 -23 -106q80 37 158 129l135 356l52 -39q-18 -46 -77.5 -192t-62.5 -154q-19 -56 -12 -100q76 38 158 133l67 172l47 -39q-51 -121 -63 -154q-27 -75 -8 -114q87 59 143 159l49 142l47 -37q-33 -101 -94 -275q39 14 91 60.5t89 93.5l11 -4 q-76 -112 -199 -170q-28 -76 -66.5 -131t-81.5 -55q-33 0 -44.5 17t-0.5 44q9 26 22 44.5t35 32.5t35 20.5t44 19.5q27 81 49 131l-6 2q-62 -76 -115 -117q-37 13 -56 48.5t-10 72.5q-58 -73 -133 -119q-35 10 -51.5 43.5t-7.5 69.5q-60 -70 -131 -113q-40 18 -56.5 51.5 t0.5 77.5q14 37 66 154q3 14 -2 14q-16 0 -65.5 -58.5t-96 -131t-53.5 -107.5l-49 35l47 141q-39 -8 -70 2q-20 -76 -64 -121.5t-104 -56.5q-46 34 -59 83zM610 43l109 283l45 -39q-23 -36 -43 -99h2q20 32 55 78t47 53q21 14 35 0q16 -13 25 -28q14 -28 -13.5 -60.5 t-66.5 -42.5l-8 7q57 38 47 108q-86 -58 -156 -213q-21 -56 -29 -88zM665.5 1307.5q-2.5 -22.5 12.5 -33.5q8 24 12 72q-22 -16 -24.5 -38.5zM823 422q19 46 140 385q-9 1 -27 2t-25 2l-18 23l8 10q34 -10 70 -13l28 72q16 45 46.5 81.5t64.5 43.5l41 -35l12 37l8 2 q13 -15 23 -33q-9 -22 -27.5 -43t-36.5 -30l-4 4l23 59q-11 -2 -20 -5t-16.5 -6.5t-14.5 -9.5t-11.5 -10t-10 -12t-8.5 -12t-7.5 -14t-5.5 -13.5t-5.5 -14t-5.5 -13.5l-18 -52q39 -3 80 7l6 -13q-30 -11 -94 -14l-152 -412q-28 12 -43 27zM868 84q12 33 47 57q9 -10 11 -14 q-32 -22 -35 -53q0 -32 20 -35q31 -4 57.5 13t35.5 44q9 28 -2.5 53t-30 41t-31 37.5t-4.5 44.5q10 30 44 42t69 1l24 -30l12 28l11 6q12 -16 24 -34q-19 -52 -69 -82l-7 4l27 72q-34 10 -58 2t-30 -29q-9 -24 2.5 -47.5t30.5 -39t32.5 -37t8.5 -42.5q-12 -41 -44.5 -63.5 t-72.5 -22.5q-36 0 -57 25.5t-15 58.5zM1085 664q7 24 24 72t31 84l13 36l43 -43q-43 -118 -53 -149q-17 -47 -17 -117q120 83 185 246l20 63l43 -43q-43 -118 -55 -149q-16 -66 -16 -117q73 37 141 112l141 377l51 -41q-11 -27 -44.5 -111.5t-60 -151t-30.5 -81.5 q-21 -53 -14 -104q76 43 141 121l144 368l47 -41q-16 -44 -73.5 -186.5t-62.5 -157.5q-20 -59 -14 -104q86 46 162 145l10 -4q-72 -106 -160 -164q-34 10 -52 42t-13 69q-56 -66 -119 -111q-33 10 -49.5 40t-13.5 65q-48 -57 -119 -109q-43 13 -52.5 57t13.5 101l-4 2 q-48 -79 -131 -154q-40 14 -54.5 53.5t-1.5 84.5zM1133 133l71 191l49 -39q-47 -121 -57 -152q-18 -63 -18 -110q87 50 151 133q10 54 47.5 101t87.5 69l33 -54q-70 -25 -103 -102t-5 -145q52 15 92.5 57t60.5 104q-32 19 -37.5 55t21.5 72l16 13l27 -39q0 -53 -6 -97 q32 -8 75 0l-6 -12q-41 -11 -71 2q-20 -75 -63 -120.5t-101 -57.5q-73 50 -70 129q-69 -86 -141 -129q-37 13 -50 49.5t-3 81.5zM1227 397l6 6q78 19 104 86l6 -6q0 -31 -16 -64t-39 -54l-10 -3zM1320 905q4 -14 19 -14q33 0 84 143q-68 -31 -102 -106q-5 -9 -1 -23z M1532.5 235q-1.5 -23 13.5 -34q10 38 10 71q-22 -14 -23.5 -37zM1585 41l107 285l43 -37q-62 -144 -82 -195l2 -4q36 63 84.5 126t93.5 103q5 5 16 5.5t17 -5.5l30 -24q16 -19 9 -43q-49 -113 -52 -119q-29 -64 -22 -108q85 42 166 141l10 -6q-73 -100 -162 -158 q-40 18 -57.5 54t0.5 77q34 73 65 152q3 14 -2 14q-16 0 -65.5 -58t-95.5 -131t-54 -110z" />
<glyph unicode="`" horiz-adv-x="368" d="M459 1407l30 41l162 -80q45 -175 164 -260q-8 -27 -16 -35q-106 53 -198 144.5t-142 189.5z" />
<glyph unicode="a" horiz-adv-x="862" d="M5 264q6 80 41 167t92 162t137.5 135.5t170.5 90.5q47 -32 101 -112q-60 -8 -131 -54.5t-133.5 -116t-112.5 -154.5q-50 -84 -67 -170q-8 -42 -8 -82q0 -42 9 -83q96 33 183 105.5t147 171.5q20 65 66 186t82 209l36 88l127 -100q-71 -132 -129 -317.5t-69 -342.5 q222 112 420 361l24 -13q-172 -250 -411 -407q-74 26 -110 102q-31 66 -31 138q0 12 1 24l-10 2q-58 -96 -140 -168t-165 -96q-66 46 -96 120q-25 61 -25 128q0 13 1 26z" />
<glyph unicode="b" horiz-adv-x="700" d="M52 306q4 66 26 126l319 842l107 -98q-230 -633 -318 -871q-24 -65 -26 -133q0 -6 -1 -13q0 -61 23 -112q285 106 387 408q-56 31 -85 84q-22 39 -22 85q0 16 3 33q10 65 63 121l41 29l74 -109q-3 -112 -33 -223q42 -19 99 -18q46 0 102 12l-18 -35q-48 -10 -91 -10 q-54 0 -100 16q-52 -159 -152.5 -278.5t-240.5 -171.5q-55 26 -92.5 76.5t-52.5 111.5q-12 49 -12 103q-1 12 0 25zM543 554q9 -35 39 -60q24 92 30 192q-42 -23 -60 -60q-12 -24 -12 -48q0 -12 3 -24z" />
<glyph unicode="c" horiz-adv-x="585" d="M23 342q11 94 59.5 183.5t130.5 163t182 120.5l80 -119l43 113l21 10q32 -43 69 -92q-30 -61 -79 -117.5t-99 -85.5l-16 10l55 144q-76 -23 -138 -70t-102.5 -110t-62.5 -136q-19 -64 -18 -134v-19q3 -80 30 -156q69 16 136 53t127 90t106.5 103.5t97.5 114.5 q23 -11 25 -13q-85 -131 -206.5 -243.5t-260.5 -163.5q-101 72 -146 166q-36 75 -36 151q0 19 2 37z" />
<glyph unicode="d" horiz-adv-x="868" d="M5 264q6 80 41 167t92 162t137.5 135.5t170.5 90.5q47 -32 101 -112q-60 -8 -131 -54.5t-133.5 -116t-112.5 -154.5q-50 -84 -67 -170q-8 -42 -8 -82q0 -42 9 -83q98 33 185.5 102.5t146.5 165.5q22 72 114.5 311t174.5 442l82 204l127 -101q-127 -247 -244.5 -569.5 t-144.5 -558.5q123 62 223.5 152t198.5 213l24 -13q-190 -279 -418 -405q-67 34 -103 108q-31 64 -31 134q0 10 1 20l-8 4q-58 -96 -141 -169t-166 -97q-66 46 -96 120q-25 61 -25 128q0 13 1 26z" />
<glyph unicode="e" horiz-adv-x="653" d="M27 278q-1 13 -1 27q0 63 20 129q24 80 74.5 149t121 128t153.5 98l86 -111q-115 -34 -197 -125.5t-114 -210.5q159 58 270 175.5t127 275.5l27 14q54 -48 86 -100q-26 -92 -108.5 -175.5t-188 -139t-221.5 -86.5q-11 -53 -11 -104q0 -90 33 -175q69 16 136.5 53 t127.5 90.5t106.5 104t96.5 113.5l25 -13q-93 -135 -211.5 -245.5t-255.5 -161.5q-85 61 -131 137.5t-51 152.5z" />
<glyph unicode="f" horiz-adv-x="493" d="M-152 -367q7 18 394 1074q-90 4 -133 8l-46 55l19 27q119 -25 180 -31l70 186q41 112 115.5 201.5t156.5 108.5l107 -86l34 90l19 8q28 -39 61 -84q-27 -56 -71.5 -107t-91.5 -75l-11 6l58 153q-62 -12 -106.5 -37.5t-75 -71t-43.5 -74t-35 -88.5q-1 -3 -2 -4.5t-1.5 -4 t-1.5 -4.5l-47 -127h34q94 0 165 14l18 -29q-72 -30 -235 -34l-422 -1139q-74 28 -109 65z" />
<glyph unicode="g" horiz-adv-x="833" d="M-18 -338q9 35 24.5 65t32 52.5t45.5 45t50 36t59.5 31.5t61 27.5t67.5 27.5q96 269 112 305l-8 2q-57 -96 -137.5 -168t-163.5 -96q-66 47 -96 120q-25 62 -25 128q0 13 1 26q6 81 41 167.5t92 161.5t137.5 135.5t170.5 90.5q10 -7 20 -16t16.5 -15.5t16.5 -19.5 t13.5 -18.5t14.5 -22t14 -20.5q-60 -8 -130.5 -54.5t-132 -116t-110.5 -154.5t-66 -170q-8 -41 -8 -80q0 -43 10 -85q115 39 214.5 134t154.5 222l135 404l115 -90q-84 -260 -240 -701q105 52 237 167.5t216 226.5l27 -11q-99 -133 -238 -256.5t-264 -181.5 q-2 -6 -7.5 -18.5t-7.5 -18.5q-34 -82 -72 -152.5t-83 -134.5t-96 -101.5t-99 -37.5q-73 0 -103 46q-18 28 -18 66q0 24 7 52zM47 -412q-5 -26 5 -42.5t34 -16.5q46 0 99 97.5t116 264.5q-50 -22 -87 -45t-72.5 -58t-59 -85t-35.5 -115z" />
<glyph unicode="h" horiz-adv-x="907" d="M-33 86l426 1188l115 -96q-77 -216 -142 -388t-116.5 -301t-65.5 -167l13 -11q71 141 183.5 279t207.5 209q18 13 39 13t45 -13q33 -19 57 -43t33 -60q4 -16 4 -31q0 -19 -6 -36q-48 -113 -139 -318q-41 -98 -41 -187q0 -39 8 -77q215 104 420 361l26 -15 q-84 -122 -192.5 -228t-227.5 -175q-78 20 -124 71t-50 115q-1 9 -1 17q0 55 24 116q74 191 174 408q12 28 -8 31q-17 3 -53 -22.5t-91.5 -85.5t-119 -145.5t-143 -218t-156.5 -288.5z" />
<glyph unicode="i" horiz-adv-x="466" d="M43 319q19 64 65 186t82 212l37 90l123 -100q-116 -302 -143 -388q-53 -161 -53 -276q122 62 220.5 152.5t192.5 212.5l29 -15q-85 -121 -195.5 -230.5t-222.5 -172.5q-92 31 -125 122q-19 54 -19 116q0 43 9 91zM283 993l12 15q203 42 268 215l17 -13q-1 -85 -42 -169 t-102 -132l-28 -4z" />
<glyph unicode="j" horiz-adv-x="446" d="M-406 -326q18 47 46.5 86t58 65t74 51t76.5 39t83 34q16 47 36.5 107.5t41 121.5t43 127t43 127t39.5 119t34.5 104.5t27.5 81.5t18 53.5t6 16.5l115 -90q-84 -260 -240 -701q83 43 162 101.5t136 116t93.5 100.5t59.5 76l26 -11q-99 -141 -226.5 -256.5t-272.5 -181.5 q-3 -7 -8.5 -20.5t-8.5 -20.5q-34 -81 -72 -150t-84 -131.5t-99 -98.5t-105 -36q-68 0 -99 50q-17 26 -17 59q0 28 13 61zM-326 -352q-14 -44 -14 -71q0 -44 37 -44t96.5 107.5t118.5 255.5q-81 -38 -137 -90t-101 -158zM258 967l10 14q165 40 244 203l10 -6 q-9 -86 -42.5 -164t-82.5 -123l-26 -2z" />
<glyph unicode="k" horiz-adv-x="800" d="M-41 70l440 1192l111 -86l-236 -639l9 -7q141 216 340 281q45 -20 75 -70q29 -48 29 -100q0 -75 -71 -133q-69 -56 -181 -76q-31 -92 -35 -206q-1 -15 -1 -28q0 -94 24 -151q228 137 397 361l25 -13q-173 -255 -414 -405q-118 48 -157 164q-16 46 -16 100q0 81 36 178 q127 20 204 109q63 73 63 161q0 19 -3 39q-130 -41 -238.5 -162.5t-175.5 -281.5l-110 -305z" />
<glyph unicode="l" horiz-adv-x="475" d="M39 311l371 965l127 -98q-31 -79 -114 -285t-152.5 -378.5t-82.5 -209.5q-22 -65 -32 -135q-6 -43 -6 -80q0 -24 2 -45q215 111 415 363l25 -13q-180 -261 -412 -405q-96 30 -138 126q-22 50 -21 101q0 47 18 94z" />
<glyph unicode="m" horiz-adv-x="1294" d="M-31 84l256 723l115 -98l-193 -496l11 -8q230 429 395 592q17 15 47 16.5t45 -10.5q10 -8 43 -41q23 -26 36 -62q7 -21 7 -40q0 -16 -4 -31q-20 -69 -62.5 -173t-74.5 -174l-33 -69l10 -8q96 184 205 349t197 243q23 21 47 21q20 0 41 -15q12 -7 31.5 -22t25.5 -19 q36 -24 42 -65q2 -13 3 -25q0 -25 -10 -43q-64 -170 -109 -307q-59 -175 -59 -275q219 108 420 361l24 -13q-178 -258 -411 -407q-100 36 -136 134q-16 45 -16 90q0 54 23 110q83 219 141 389q3 9 -3.5 17.5t-14.5 8.5q-39 0 -101.5 -69.5t-132.5 -184t-137 -239 t-129 -254.5l-117 96q163 395 221 625q2 9 -2.5 17.5t-11.5 8.5q-27 0 -64 -31.5t-83 -95.5t-87.5 -128t-96.5 -162.5t-90.5 -164t-88.5 -165.5z" />
<glyph unicode="n" horiz-adv-x="907" d="M-33 88l260 721l119 -94q-162 -367 -213 -498l10 -8q89 162 210.5 321t238.5 265q14 13 40 14t46 -14q28 -24 72 -68q20 -20 26 -49t-6 -57q-24 -52 -68.5 -160.5t-58.5 -138.5q-58 -135 -57 -234q0 -21 2 -41q220 110 420 361l24 -13q-175 -257 -411 -405 q-102 46 -145 136q-21 44 -21 92q0 49 22 101q158 373 164 388q6 13 5 23.5t-9 10.5q-38 0 -163 -146t-244 -330.5t-138 -276.5z" />
<glyph unicode="o" horiz-adv-x="700" d="M12 346q12 96 57 187.5t119 164.5t160 113l84 -135q-69 -24 -127.5 -74.5t-97 -117t-59.5 -140.5q-18 -65 -18 -133v-19q3 -78 30 -145q131 37 236.5 147t156.5 263q-86 47 -100 137q-2 15 -2 30q0 77 61 156l41 29l68 -98v-27q0 -101 -19 -213q34 -13 82.5 -13t110.5 13 l-19 -35q-46 -11 -87 -11q-49 0 -93 15q-44 -188 -156 -304t-262 -146q-95 70 -137 165q-32 73 -32 147q0 22 3 44zM533 548q7 -32 30 -54q24 86 27 180q-36 -24 -50 -59q-10 -24 -9 -46q0 -11 2 -21z" />
<glyph unicode="p" horiz-adv-x="925" d="M-178 -334l448 1247l125 -94q-18 -29 -256 -600l15 -14q81 166 212.5 338t239.5 256q19 13 40 13t44 -13q29 -17 68 -56q36 -36 36 -80q0 -27 -14 -57l-129 -295q-27 -62 -43 -135q-10 -51 -10 -93q0 -19 2 -36q222 112 420 361l24 -13q-178 -258 -411 -407 q-101 45 -149 134q-24 47 -24 95q0 45 21 92q19 50 90.5 206t90.5 202q6 12 2 22.5t-13 10.5q-48 0 -140 -103.5t-179 -238t-156 -254.5t-84 -162l-153 -424z" />
<glyph unicode="q" horiz-adv-x="843" d="M0 233q0 171 130 341.5t314 244.5q47 -32 101 -112q-60 -8 -131 -54.5t-133.5 -116t-112.5 -154.5t-67 -170q-8 -42 -8 -82q0 -42 9 -83q121 18 212.5 109t154.5 227l158 426l104 -94q-178 -497 -252 -692q126 52 250 160.5t207 230.5l27 -15q-90 -135 -213 -250 t-238 -159q-6 -15 -8 -21q44 -46 58 -109q7 -32 7 -62q0 -32 -7 -63q-15 -61 -44.5 -114.5t-73 -86t-86.5 -32.5q-59 0 -76 82q-8 40 -8 86q0 49 10 105q17 109 54 211l102 258l-6 2q-63 -106 -152.5 -181t-158.5 -75q-57 0 -90 79t-33 164zM356 -469q69 33 113 107 q42 70 42 152v8q-2 87 -60 151q-87 -229 -95 -418z" />
<glyph unicode="r" horiz-adv-x="620" d="M-35 88l264 721l117 -100q-49 -90 -108 -248l6 -2q54 85 141 199.5t117 136.5q24 16 46 16t42 -16q40 -32 63 -76q13 -24 13 -49q0 -14 -4 -28q-12 -40 -44 -77t-77.5 -65.5t-91.5 -40.5q-4 4 -8.5 9.5t-6.5 9.5l-2 3q70 43 98 115q20 52 20 110q0 23 -3 46 q-218 -160 -395 -547q-37 -111 -68 -217z" />
<glyph unicode="s" horiz-adv-x="608" d="M-20 195q25 88 116 147q21 -25 27 -35q-85 -54 -90 -139q-2 -32 12 -57.5t41 -28.5q16 -2 31 -2q63 0 115 34q65 42 87 111q10 32 10 63q0 12 -1 22q-5 40 -23.5 69.5t-43 60t-49.5 55t-43.5 54.5t-24.5 58q-2 9 -3 20q0 21 9 47q29 78 111 108q43 16 89 17q40 0 82 -13 l60 -84l32 82l21 11q32 -44 69 -93q-30 -61 -79 -117t-99 -85l-16 10l67 178q-50 15 -91 15q-30 0 -54 -8q-58 -19 -76 -72q-9 -26 -9 -51q-1 -11 1 -21q6 -35 24.5 -62.5t43 -56.5t50.5 -53.5t46 -54.5t28 -59q4 -14 3 -30q0 -17 -4 -36q-27 -101 -107.5 -156t-185.5 -55 q-92 0 -146 62q-37 44 -37 97q0 23 7 48z" />
<glyph unicode="t" horiz-adv-x="534" d="M76 305q24 72 143 393l-67 4l-48 72l17 29q81 -23 125 -29l112 301l105 -94q-11 -29 -40 -109t-42 -116q28 -2 55 -2q95 0 174 20l19 -16q-103 -46 -267 -56q-91 -261 -135 -397q-37 -106 -37 -205q0 -28 3 -55q219 110 421 363l25 -13q-171 -249 -412 -407 q-97 38 -139 134q-25 56 -25 108q0 38 13 75z" />
<glyph unicode="u" horiz-adv-x="911" d="M44 200q-2 18 -1 38q0 49 12 102q17 62 61 183t80 211l35 91l111 -100q-108 -303 -137 -385q-41 -111 -41 -293q306 217 461 623l57 155l109 -100q-107 -303 -136 -385q-51 -138 -51 -293q222 112 420 361l25 -13q-171 -249 -412 -407q-71 20 -105 76q-31 53 -31 125 q1 5 1 11q2 78 37 173l-11 6q-115 -200 -331 -377q-66 24 -106.5 78t-46.5 120z" />
<glyph unicode="v" horiz-adv-x="712" d="M53 314q2 62 21 118q18 62 52.5 156t59.5 158l25 63l123 -100q-112 -336 -137 -406q-18 -48 -21 -123v-25q0 -60 12 -108q130 45 226 148t151 249q-90 44 -103 138q-2 14 -2 27q0 81 66 165l41 29l84 -105q-3 -133 -28 -237q36 -12 82 -12.5t102 12.5l-16 -31 q-55 -13 -104 -13q-40 0 -75 9q-96 -318 -391 -436q-60 33 -99.5 86.5t-55.5 113.5q-14 54 -13 109v15zM548 582q-2 -13 -2 -24q0 -44 34 -73q31 95 43 195q-63 -36 -75 -98z" />
<glyph unicode="w" horiz-adv-x="1058" d="M48 259q2 81 32 173l137 377l123 -100q-120 -334 -147 -406q-23 -63 -29 -129q-2 -17 -2 -33q0 -48 14 -94q95 60 170 160t109 225q18 62 52.5 156t59.5 158l25 63l123 -100q-125 -334 -150 -406q-19 -51 -19 -123t23 -133q235 121 340 412q-83 48 -93 135l-2 22 q0 77 63 160l41 29l81 -103q-14 -133 -38 -229q40 -19 96 -19q46 0 102 13l-18 -35q-46 -10 -88 -10q-56 0 -103 18q-91 -325 -350 -450q-146 63 -158 284h-4q-40 -82 -96.5 -148.5t-132.5 -135.5q-83 48 -123 118q-39 67 -38 143v8zM890 564q8 -41 32 -66q25 73 43 188 q-45 -7 -63 -44q-13 -26 -14 -55q0 -11 2 -23z" />
<glyph unicode="x" horiz-adv-x="616" d="M-98 18q130 245 288 400q-31 134 -31 257q0 72 11 140l143 -51q-8 -69 -9 -147q0 -42 3 -87q173 148 352 258l50 -59q-211 -115 -394 -278q38 -257 189 -461l-51 4q-172 140 -242 356q-140 -146 -246 -364q-40 14 -63 32z" />
<glyph unicode="y" horiz-adv-x="894" d="M35 -340q20 51 48.5 91.5t57 67t72 52t75 39.5t85.5 35q17 46 43 121.5t45.5 129.5t34.5 89l-13 4q-143 -182 -288 -299q-102 37 -147 142q-24 56 -24 111q0 49 19 97l197 485l116 -100q-126 -303 -157 -385q-41 -112 -41 -195q0 -56 18 -98q218 154 359 404l133 356 l114 -90q-83 -260 -241 -701q107 46 237 162.5t217 231.5l27 -11q-95 -135 -224.5 -249.5t-275.5 -186.5q-26 -69 -53.5 -129.5t-65 -124t-75.5 -108.5t-84 -74t-92 -29q-86 0 -115 46q-15 23 -15 53q0 29 13 63zM94.5 -414q-1.5 -21 11 -39t39.5 -18q79 0 209 360 q-84 -40 -145 -99.5t-105 -164.5q-8 -18 -9.5 -39z" />
<glyph unicode="z" horiz-adv-x="669" d="M-51 84q111 175 280.5 360t317.5 295q-4 15 -6 17q-263 -5 -361 -25q-31 -1 -53 13t-31 34q267 29 541 29q47 -98 49 -98q-141 -92 -319.5 -284t-282.5 -347q2 -8 4 -10q77 20 213 20h13q145 -1 237 -25l33 -43q-9 -8 -11 -10q-100 20 -221 20q-32 0 -65 -2 q-160 -6 -269 -40q-51 76 -69 96z" />
<glyph unicode="{" d="M92.5 81.5q-14.5 53.5 3.5 94.5q7 24 20.5 61.5t23.5 62.5l10 26l49 -39q-48 -133 -56 -160q-15 -48 -2 -102q107 41 148 157q-36 17 -40.5 54.5t25.5 74.5l17 13l33 -41q0 -38 -11 -95q30 -10 68 0q15 43 51.5 79.5t85.5 58.5l33 -43q-46 -13 -79 -49.5t-44 -83.5 q64 23 106 69t48 109l12 6q9 -7 35 -39q-16 -56 -74.5 -99t-130.5 -61q-13 -55 10 -110q82 19 182 141l11 -4q-92 -126 -185 -160q-95 69 -67 174q-38 -9 -66 -2q-42 -124 -157 -172q-45 26 -59.5 79.5zM223 657q6 25 24 74t33 85l15 36l49 -41q-45 -119 -57 -154 q-21 -73 -21 -110q88 49 160 143l59 162l45 -39q-61 -144 -81 -197l4 -2q83 148 176 232q6 6 16.5 6t18.5 -6l28 -29q8 -6 10 -18t-2 -23q-40 -87 -49 -117q-29 -66 -24 -110q85 43 168 143l10 -2q-74 -108 -164 -164q-41 19 -58.5 55t-0.5 76q30 66 67 154q4 12 -2 12 q-16 0 -65.5 -57.5t-95.5 -130.5t-54 -111l-51 41l31 82q-77 -85 -136 -121q-35 12 -48.5 49t-4.5 82zM283 236q-4 -25 12 -39q13 45 18 77q-26 -13 -30 -38zM319 924l3 6q79 15 106 86l8 -4q-1 -35 -17.5 -68.5t-41.5 -52.5h-12zM465 1158q-13 49 2.5 95t49 86t75.5 60 l33 -53q-68 -25 -100.5 -102.5t-4.5 -145.5q50 12 92 56.5t62 105.5q-35 19 -41 54.5t24 74.5l17 10l26 -39q2 -39 -6 -94q28 -11 74 0l49 133l47 -39q-63 -144 -86 -197l4 -4q72 132 176 236q7 3 17.5 3.5t17.5 -3.5l31 -29q17 -21 6 -43q-6 -14 -17 -40.5t-19.5 -46.5 t-12.5 -32q-30 -65 -23 -106q80 37 158 129l135 356l52 -39q-18 -46 -77.5 -192t-62.5 -154q-19 -56 -12 -100q76 38 158 133l67 172l47 -39q-51 -121 -63 -154q-27 -75 -8 -114q87 59 143 159l49 142l47 -37q-33 -101 -94 -275q39 14 91 60.5t89 93.5l11 -4 q-76 -112 -199 -170q-28 -76 -66.5 -131t-81.5 -55q-33 0 -44.5 17t-0.5 44q9 26 22 44.5t35 32.5t35 20.5t44 19.5q27 81 49 131l-6 2q-62 -76 -115 -117q-37 13 -56 48.5t-10 72.5q-58 -73 -133 -119q-35 10 -51.5 43.5t-7.5 69.5q-60 -70 -131 -113q-40 18 -56.5 51.5 t0.5 77.5q14 37 66 154q3 14 -2 14q-16 0 -65.5 -58.5t-96 -131t-53.5 -107.5l-49 35l47 141q-39 -8 -70 2q-20 -76 -64 -121.5t-104 -56.5q-46 34 -59 83zM610 43l109 283l45 -39q-23 -36 -43 -99h2q20 32 55 78t47 53q21 14 35 0q16 -13 25 -28q14 -28 -13.5 -60.5 t-66.5 -42.5l-8 7q57 38 47 108q-86 -58 -156 -213q-21 -56 -29 -88zM665.5 1307.5q-2.5 -22.5 12.5 -33.5q8 24 12 72q-22 -16 -24.5 -38.5zM823 422q19 46 140 385q-9 1 -27 2t-25 2l-18 23l8 10q34 -10 70 -13l28 72q16 45 46.5 81.5t64.5 43.5l41 -35l12 37l8 2 q13 -15 23 -33q-9 -22 -27.5 -43t-36.5 -30l-4 4l23 59q-11 -2 -20 -5t-16.5 -6.5t-14.5 -9.5t-11.5 -10t-10 -12t-8.5 -12t-7.5 -14t-5.5 -13.5t-5.5 -14t-5.5 -13.5l-18 -52q39 -3 80 7l6 -13q-30 -11 -94 -14l-152 -412q-28 12 -43 27zM868 84q12 33 47 57q9 -10 11 -14 q-32 -22 -35 -53q0 -32 20 -35q31 -4 57.5 13t35.5 44q9 28 -2.5 53t-30 41t-31 37.5t-4.5 44.5q10 30 44 42t69 1l24 -30l12 28l11 6q12 -16 24 -34q-19 -52 -69 -82l-7 4l27 72q-34 10 -58 2t-30 -29q-9 -24 2.5 -47.5t30.5 -39t32.5 -37t8.5 -42.5q-12 -41 -44.5 -63.5 t-72.5 -22.5q-36 0 -57 25.5t-15 58.5zM1085 664q7 24 24 72t31 84l13 36l43 -43q-43 -118 -53 -149q-17 -47 -17 -117q120 83 185 246l20 63l43 -43q-43 -118 -55 -149q-16 -66 -16 -117q73 37 141 112l141 377l51 -41q-11 -27 -44.5 -111.5t-60 -151t-30.5 -81.5 q-21 -53 -14 -104q76 43 141 121l144 368l47 -41q-16 -44 -73.5 -186.5t-62.5 -157.5q-20 -59 -14 -104q86 46 162 145l10 -4q-72 -106 -160 -164q-34 10 -52 42t-13 69q-56 -66 -119 -111q-33 10 -49.5 40t-13.5 65q-48 -57 -119 -109q-43 13 -52.5 57t13.5 101l-4 2 q-48 -79 -131 -154q-40 14 -54.5 53.5t-1.5 84.5zM1133 133l71 191l49 -39q-47 -121 -57 -152q-18 -63 -18 -110q87 50 151 133q10 54 47.5 101t87.5 69l33 -54q-70 -25 -103 -102t-5 -145q52 15 92.5 57t60.5 104q-32 19 -37.5 55t21.5 72l16 13l27 -39q0 -53 -6 -97 q32 -8 75 0l-6 -12q-41 -11 -71 2q-20 -75 -63 -120.5t-101 -57.5q-73 50 -70 129q-69 -86 -141 -129q-37 13 -50 49.5t-3 81.5zM1227 397l6 6q78 19 104 86l6 -6q0 -31 -16 -64t-39 -54l-10 -3zM1320 905q4 -14 19 -14q33 0 84 143q-68 -31 -102 -106q-5 -9 -1 -23z M1532.5 235q-1.5 -23 13.5 -34q10 38 10 71q-22 -14 -23.5 -37zM1585 41l107 285l43 -37q-62 -144 -82 -195l2 -4q36 63 84.5 126t93.5 103q5 5 16 5.5t17 -5.5l30 -24q16 -19 9 -43q-49 -113 -52 -119q-29 -64 -22 -108q85 42 166 141l10 -6q-73 -100 -162 -158 q-40 18 -57.5 54t0.5 77q34 73 65 152q3 14 -2 14q-16 0 -65.5 -58t-95.5 -131t-54 -110z" />
<glyph unicode="|" d="M92.5 81.5q-14.5 53.5 3.5 94.5q7 24 20.5 61.5t23.5 62.5l10 26l49 -39q-48 -133 -56 -160q-15 -48 -2 -102q107 41 148 157q-36 17 -40.5 54.5t25.5 74.5l17 13l33 -41q0 -38 -11 -95q30 -10 68 0q15 43 51.5 79.5t85.5 58.5l33 -43q-46 -13 -79 -49.5t-44 -83.5 q64 23 106 69t48 109l12 6q9 -7 35 -39q-16 -56 -74.5 -99t-130.5 -61q-13 -55 10 -110q82 19 182 141l11 -4q-92 -126 -185 -160q-95 69 -67 174q-38 -9 -66 -2q-42 -124 -157 -172q-45 26 -59.5 79.5zM223 657q6 25 24 74t33 85l15 36l49 -41q-45 -119 -57 -154 q-21 -73 -21 -110q88 49 160 143l59 162l45 -39q-61 -144 -81 -197l4 -2q83 148 176 232q6 6 16.5 6t18.5 -6l28 -29q8 -6 10 -18t-2 -23q-40 -87 -49 -117q-29 -66 -24 -110q85 43 168 143l10 -2q-74 -108 -164 -164q-41 19 -58.5 55t-0.5 76q30 66 67 154q4 12 -2 12 q-16 0 -65.5 -57.5t-95.5 -130.5t-54 -111l-51 41l31 82q-77 -85 -136 -121q-35 12 -48.5 49t-4.5 82zM283 236q-4 -25 12 -39q13 45 18 77q-26 -13 -30 -38zM319 924l3 6q79 15 106 86l8 -4q-1 -35 -17.5 -68.5t-41.5 -52.5h-12zM465 1158q-13 49 2.5 95t49 86t75.5 60 l33 -53q-68 -25 -100.5 -102.5t-4.5 -145.5q50 12 92 56.5t62 105.5q-35 19 -41 54.5t24 74.5l17 10l26 -39q2 -39 -6 -94q28 -11 74 0l49 133l47 -39q-63 -144 -86 -197l4 -4q72 132 176 236q7 3 17.5 3.5t17.5 -3.5l31 -29q17 -21 6 -43q-6 -14 -17 -40.5t-19.5 -46.5 t-12.5 -32q-30 -65 -23 -106q80 37 158 129l135 356l52 -39q-18 -46 -77.5 -192t-62.5 -154q-19 -56 -12 -100q76 38 158 133l67 172l47 -39q-51 -121 -63 -154q-27 -75 -8 -114q87 59 143 159l49 142l47 -37q-33 -101 -94 -275q39 14 91 60.5t89 93.5l11 -4 q-76 -112 -199 -170q-28 -76 -66.5 -131t-81.5 -55q-33 0 -44.5 17t-0.5 44q9 26 22 44.5t35 32.5t35 20.5t44 19.5q27 81 49 131l-6 2q-62 -76 -115 -117q-37 13 -56 48.5t-10 72.5q-58 -73 -133 -119q-35 10 -51.5 43.5t-7.5 69.5q-60 -70 -131 -113q-40 18 -56.5 51.5 t0.5 77.5q14 37 66 154q3 14 -2 14q-16 0 -65.5 -58.5t-96 -131t-53.5 -107.5l-49 35l47 141q-39 -8 -70 2q-20 -76 -64 -121.5t-104 -56.5q-46 34 -59 83zM610 43l109 283l45 -39q-23 -36 -43 -99h2q20 32 55 78t47 53q21 14 35 0q16 -13 25 -28q14 -28 -13.5 -60.5 t-66.5 -42.5l-8 7q57 38 47 108q-86 -58 -156 -213q-21 -56 -29 -88zM665.5 1307.5q-2.5 -22.5 12.5 -33.5q8 24 12 72q-22 -16 -24.5 -38.5zM823 422q19 46 140 385q-9 1 -27 2t-25 2l-18 23l8 10q34 -10 70 -13l28 72q16 45 46.5 81.5t64.5 43.5l41 -35l12 37l8 2 q13 -15 23 -33q-9 -22 -27.5 -43t-36.5 -30l-4 4l23 59q-11 -2 -20 -5t-16.5 -6.5t-14.5 -9.5t-11.5 -10t-10 -12t-8.5 -12t-7.5 -14t-5.5 -13.5t-5.5 -14t-5.5 -13.5l-18 -52q39 -3 80 7l6 -13q-30 -11 -94 -14l-152 -412q-28 12 -43 27zM868 84q12 33 47 57q9 -10 11 -14 q-32 -22 -35 -53q0 -32 20 -35q31 -4 57.5 13t35.5 44q9 28 -2.5 53t-30 41t-31 37.5t-4.5 44.5q10 30 44 42t69 1l24 -30l12 28l11 6q12 -16 24 -34q-19 -52 -69 -82l-7 4l27 72q-34 10 -58 2t-30 -29q-9 -24 2.5 -47.5t30.5 -39t32.5 -37t8.5 -42.5q-12 -41 -44.5 -63.5 t-72.5 -22.5q-36 0 -57 25.5t-15 58.5zM1085 664q7 24 24 72t31 84l13 36l43 -43q-43 -118 -53 -149q-17 -47 -17 -117q120 83 185 246l20 63l43 -43q-43 -118 -55 -149q-16 -66 -16 -117q73 37 141 112l141 377l51 -41q-11 -27 -44.5 -111.5t-60 -151t-30.5 -81.5 q-21 -53 -14 -104q76 43 141 121l144 368l47 -41q-16 -44 -73.5 -186.5t-62.5 -157.5q-20 -59 -14 -104q86 46 162 145l10 -4q-72 -106 -160 -164q-34 10 -52 42t-13 69q-56 -66 -119 -111q-33 10 -49.5 40t-13.5 65q-48 -57 -119 -109q-43 13 -52.5 57t13.5 101l-4 2 q-48 -79 -131 -154q-40 14 -54.5 53.5t-1.5 84.5zM1133 133l71 191l49 -39q-47 -121 -57 -152q-18 -63 -18 -110q87 50 151 133q10 54 47.5 101t87.5 69l33 -54q-70 -25 -103 -102t-5 -145q52 15 92.5 57t60.5 104q-32 19 -37.5 55t21.5 72l16 13l27 -39q0 -53 -6 -97 q32 -8 75 0l-6 -12q-41 -11 -71 2q-20 -75 -63 -120.5t-101 -57.5q-73 50 -70 129q-69 -86 -141 -129q-37 13 -50 49.5t-3 81.5zM1227 397l6 6q78 19 104 86l6 -6q0 -31 -16 -64t-39 -54l-10 -3zM1320 905q4 -14 19 -14q33 0 84 143q-68 -31 -102 -106q-5 -9 -1 -23z M1532.5 235q-1.5 -23 13.5 -34q10 38 10 71q-22 -14 -23.5 -37zM1585 41l107 285l43 -37q-62 -144 -82 -195l2 -4q36 63 84.5 126t93.5 103q5 5 16 5.5t17 -5.5l30 -24q16 -19 9 -43q-49 -113 -52 -119q-29 -64 -22 -108q85 42 166 141l10 -6q-73 -100 -162 -158 q-40 18 -57.5 54t0.5 77q34 73 65 152q3 14 -2 14q-16 0 -65.5 -58t-95.5 -131t-54 -110z" />
<glyph unicode="}" d="M92.5 81.5q-14.5 53.5 3.5 94.5q7 24 20.5 61.5t23.5 62.5l10 26l49 -39q-48 -133 -56 -160q-15 -48 -2 -102q107 41 148 157q-36 17 -40.5 54.5t25.5 74.5l17 13l33 -41q0 -38 -11 -95q30 -10 68 0q15 43 51.5 79.5t85.5 58.5l33 -43q-46 -13 -79 -49.5t-44 -83.5 q64 23 106 69t48 109l12 6q9 -7 35 -39q-16 -56 -74.5 -99t-130.5 -61q-13 -55 10 -110q82 19 182 141l11 -4q-92 -126 -185 -160q-95 69 -67 174q-38 -9 -66 -2q-42 -124 -157 -172q-45 26 -59.5 79.5zM223 657q6 25 24 74t33 85l15 36l49 -41q-45 -119 -57 -154 q-21 -73 -21 -110q88 49 160 143l59 162l45 -39q-61 -144 -81 -197l4 -2q83 148 176 232q6 6 16.5 6t18.5 -6l28 -29q8 -6 10 -18t-2 -23q-40 -87 -49 -117q-29 -66 -24 -110q85 43 168 143l10 -2q-74 -108 -164 -164q-41 19 -58.5 55t-0.5 76q30 66 67 154q4 12 -2 12 q-16 0 -65.5 -57.5t-95.5 -130.5t-54 -111l-51 41l31 82q-77 -85 -136 -121q-35 12 -48.5 49t-4.5 82zM283 236q-4 -25 12 -39q13 45 18 77q-26 -13 -30 -38zM319 924l3 6q79 15 106 86l8 -4q-1 -35 -17.5 -68.5t-41.5 -52.5h-12zM465 1158q-13 49 2.5 95t49 86t75.5 60 l33 -53q-68 -25 -100.5 -102.5t-4.5 -145.5q50 12 92 56.5t62 105.5q-35 19 -41 54.5t24 74.5l17 10l26 -39q2 -39 -6 -94q28 -11 74 0l49 133l47 -39q-63 -144 -86 -197l4 -4q72 132 176 236q7 3 17.5 3.5t17.5 -3.5l31 -29q17 -21 6 -43q-6 -14 -17 -40.5t-19.5 -46.5 t-12.5 -32q-30 -65 -23 -106q80 37 158 129l135 356l52 -39q-18 -46 -77.5 -192t-62.5 -154q-19 -56 -12 -100q76 38 158 133l67 172l47 -39q-51 -121 -63 -154q-27 -75 -8 -114q87 59 143 159l49 142l47 -37q-33 -101 -94 -275q39 14 91 60.5t89 93.5l11 -4 q-76 -112 -199 -170q-28 -76 -66.5 -131t-81.5 -55q-33 0 -44.5 17t-0.5 44q9 26 22 44.5t35 32.5t35 20.5t44 19.5q27 81 49 131l-6 2q-62 -76 -115 -117q-37 13 -56 48.5t-10 72.5q-58 -73 -133 -119q-35 10 -51.5 43.5t-7.5 69.5q-60 -70 -131 -113q-40 18 -56.5 51.5 t0.5 77.5q14 37 66 154q3 14 -2 14q-16 0 -65.5 -58.5t-96 -131t-53.5 -107.5l-49 35l47 141q-39 -8 -70 2q-20 -76 -64 -121.5t-104 -56.5q-46 34 -59 83zM610 43l109 283l45 -39q-23 -36 -43 -99h2q20 32 55 78t47 53q21 14 35 0q16 -13 25 -28q14 -28 -13.5 -60.5 t-66.5 -42.5l-8 7q57 38 47 108q-86 -58 -156 -213q-21 -56 -29 -88zM665.5 1307.5q-2.5 -22.5 12.5 -33.5q8 24 12 72q-22 -16 -24.5 -38.5zM823 422q19 46 140 385q-9 1 -27 2t-25 2l-18 23l8 10q34 -10 70 -13l28 72q16 45 46.5 81.5t64.5 43.5l41 -35l12 37l8 2 q13 -15 23 -33q-9 -22 -27.5 -43t-36.5 -30l-4 4l23 59q-11 -2 -20 -5t-16.5 -6.5t-14.5 -9.5t-11.5 -10t-10 -12t-8.5 -12t-7.5 -14t-5.5 -13.5t-5.5 -14t-5.5 -13.5l-18 -52q39 -3 80 7l6 -13q-30 -11 -94 -14l-152 -412q-28 12 -43 27zM868 84q12 33 47 57q9 -10 11 -14 q-32 -22 -35 -53q0 -32 20 -35q31 -4 57.5 13t35.5 44q9 28 -2.5 53t-30 41t-31 37.5t-4.5 44.5q10 30 44 42t69 1l24 -30l12 28l11 6q12 -16 24 -34q-19 -52 -69 -82l-7 4l27 72q-34 10 -58 2t-30 -29q-9 -24 2.5 -47.5t30.5 -39t32.5 -37t8.5 -42.5q-12 -41 -44.5 -63.5 t-72.5 -22.5q-36 0 -57 25.5t-15 58.5zM1085 664q7 24 24 72t31 84l13 36l43 -43q-43 -118 -53 -149q-17 -47 -17 -117q120 83 185 246l20 63l43 -43q-43 -118 -55 -149q-16 -66 -16 -117q73 37 141 112l141 377l51 -41q-11 -27 -44.5 -111.5t-60 -151t-30.5 -81.5 q-21 -53 -14 -104q76 43 141 121l144 368l47 -41q-16 -44 -73.5 -186.5t-62.5 -157.5q-20 -59 -14 -104q86 46 162 145l10 -4q-72 -106 -160 -164q-34 10 -52 42t-13 69q-56 -66 -119 -111q-33 10 -49.5 40t-13.5 65q-48 -57 -119 -109q-43 13 -52.5 57t13.5 101l-4 2 q-48 -79 -131 -154q-40 14 -54.5 53.5t-1.5 84.5zM1133 133l71 191l49 -39q-47 -121 -57 -152q-18 -63 -18 -110q87 50 151 133q10 54 47.5 101t87.5 69l33 -54q-70 -25 -103 -102t-5 -145q52 15 92.5 57t60.5 104q-32 19 -37.5 55t21.5 72l16 13l27 -39q0 -53 -6 -97 q32 -8 75 0l-6 -12q-41 -11 -71 2q-20 -75 -63 -120.5t-101 -57.5q-73 50 -70 129q-69 -86 -141 -129q-37 13 -50 49.5t-3 81.5zM1227 397l6 6q78 19 104 86l6 -6q0 -31 -16 -64t-39 -54l-10 -3zM1320 905q4 -14 19 -14q33 0 84 143q-68 -31 -102 -106q-5 -9 -1 -23z M1532.5 235q-1.5 -23 13.5 -34q10 38 10 71q-22 -14 -23.5 -37zM1585 41l107 285l43 -37q-62 -144 -82 -195l2 -4q36 63 84.5 126t93.5 103q5 5 16 5.5t17 -5.5l30 -24q16 -19 9 -43q-49 -113 -52 -119q-29 -64 -22 -108q85 42 166 141l10 -6q-73 -100 -162 -158 q-40 18 -57.5 54t0.5 77q34 73 65 152q3 14 -2 14q-16 0 -65.5 -58t-95.5 -131t-54 -110z" />
<glyph unicode="~" d="M92.5 81.5q-14.5 53.5 3.5 94.5q7 24 20.5 61.5t23.5 62.5l10 26l49 -39q-48 -133 -56 -160q-15 -48 -2 -102q107 41 148 157q-36 17 -40.5 54.5t25.5 74.5l17 13l33 -41q0 -38 -11 -95q30 -10 68 0q15 43 51.5 79.5t85.5 58.5l33 -43q-46 -13 -79 -49.5t-44 -83.5 q64 23 106 69t48 109l12 6q9 -7 35 -39q-16 -56 -74.5 -99t-130.5 -61q-13 -55 10 -110q82 19 182 141l11 -4q-92 -126 -185 -160q-95 69 -67 174q-38 -9 -66 -2q-42 -124 -157 -172q-45 26 -59.5 79.5zM223 657q6 25 24 74t33 85l15 36l49 -41q-45 -119 -57 -154 q-21 -73 -21 -110q88 49 160 143l59 162l45 -39q-61 -144 -81 -197l4 -2q83 148 176 232q6 6 16.5 6t18.5 -6l28 -29q8 -6 10 -18t-2 -23q-40 -87 -49 -117q-29 -66 -24 -110q85 43 168 143l10 -2q-74 -108 -164 -164q-41 19 -58.5 55t-0.5 76q30 66 67 154q4 12 -2 12 q-16 0 -65.5 -57.5t-95.5 -130.5t-54 -111l-51 41l31 82q-77 -85 -136 -121q-35 12 -48.5 49t-4.5 82zM283 236q-4 -25 12 -39q13 45 18 77q-26 -13 -30 -38zM319 924l3 6q79 15 106 86l8 -4q-1 -35 -17.5 -68.5t-41.5 -52.5h-12zM465 1158q-13 49 2.5 95t49 86t75.5 60 l33 -53q-68 -25 -100.5 -102.5t-4.5 -145.5q50 12 92 56.5t62 105.5q-35 19 -41 54.5t24 74.5l17 10l26 -39q2 -39 -6 -94q28 -11 74 0l49 133l47 -39q-63 -144 -86 -197l4 -4q72 132 176 236q7 3 17.5 3.5t17.5 -3.5l31 -29q17 -21 6 -43q-6 -14 -17 -40.5t-19.5 -46.5 t-12.5 -32q-30 -65 -23 -106q80 37 158 129l135 356l52 -39q-18 -46 -77.5 -192t-62.5 -154q-19 -56 -12 -100q76 38 158 133l67 172l47 -39q-51 -121 -63 -154q-27 -75 -8 -114q87 59 143 159l49 142l47 -37q-33 -101 -94 -275q39 14 91 60.5t89 93.5l11 -4 q-76 -112 -199 -170q-28 -76 -66.5 -131t-81.5 -55q-33 0 -44.5 17t-0.5 44q9 26 22 44.5t35 32.5t35 20.5t44 19.5q27 81 49 131l-6 2q-62 -76 -115 -117q-37 13 -56 48.5t-10 72.5q-58 -73 -133 -119q-35 10 -51.5 43.5t-7.5 69.5q-60 -70 -131 -113q-40 18 -56.5 51.5 t0.5 77.5q14 37 66 154q3 14 -2 14q-16 0 -65.5 -58.5t-96 -131t-53.5 -107.5l-49 35l47 141q-39 -8 -70 2q-20 -76 -64 -121.5t-104 -56.5q-46 34 -59 83zM610 43l109 283l45 -39q-23 -36 -43 -99h2q20 32 55 78t47 53q21 14 35 0q16 -13 25 -28q14 -28 -13.5 -60.5 t-66.5 -42.5l-8 7q57 38 47 108q-86 -58 -156 -213q-21 -56 -29 -88zM665.5 1307.5q-2.5 -22.5 12.5 -33.5q8 24 12 72q-22 -16 -24.5 -38.5zM823 422q19 46 140 385q-9 1 -27 2t-25 2l-18 23l8 10q34 -10 70 -13l28 72q16 45 46.5 81.5t64.5 43.5l41 -35l12 37l8 2 q13 -15 23 -33q-9 -22 -27.5 -43t-36.5 -30l-4 4l23 59q-11 -2 -20 -5t-16.5 -6.5t-14.5 -9.5t-11.5 -10t-10 -12t-8.5 -12t-7.5 -14t-5.5 -13.5t-5.5 -14t-5.5 -13.5l-18 -52q39 -3 80 7l6 -13q-30 -11 -94 -14l-152 -412q-28 12 -43 27zM868 84q12 33 47 57q9 -10 11 -14 q-32 -22 -35 -53q0 -32 20 -35q31 -4 57.5 13t35.5 44q9 28 -2.5 53t-30 41t-31 37.5t-4.5 44.5q10 30 44 42t69 1l24 -30l12 28l11 6q12 -16 24 -34q-19 -52 -69 -82l-7 4l27 72q-34 10 -58 2t-30 -29q-9 -24 2.5 -47.5t30.5 -39t32.5 -37t8.5 -42.5q-12 -41 -44.5 -63.5 t-72.5 -22.5q-36 0 -57 25.5t-15 58.5zM1085 664q7 24 24 72t31 84l13 36l43 -43q-43 -118 -53 -149q-17 -47 -17 -117q120 83 185 246l20 63l43 -43q-43 -118 -55 -149q-16 -66 -16 -117q73 37 141 112l141 377l51 -41q-11 -27 -44.5 -111.5t-60 -151t-30.5 -81.5 q-21 -53 -14 -104q76 43 141 121l144 368l47 -41q-16 -44 -73.5 -186.5t-62.5 -157.5q-20 -59 -14 -104q86 46 162 145l10 -4q-72 -106 -160 -164q-34 10 -52 42t-13 69q-56 -66 -119 -111q-33 10 -49.5 40t-13.5 65q-48 -57 -119 -109q-43 13 -52.5 57t13.5 101l-4 2 q-48 -79 -131 -154q-40 14 -54.5 53.5t-1.5 84.5zM1133 133l71 191l49 -39q-47 -121 -57 -152q-18 -63 -18 -110q87 50 151 133q10 54 47.5 101t87.5 69l33 -54q-70 -25 -103 -102t-5 -145q52 15 92.5 57t60.5 104q-32 19 -37.5 55t21.5 72l16 13l27 -39q0 -53 -6 -97 q32 -8 75 0l-6 -12q-41 -11 -71 2q-20 -75 -63 -120.5t-101 -57.5q-73 50 -70 129q-69 -86 -141 -129q-37 13 -50 49.5t-3 81.5zM1227 397l6 6q78 19 104 86l6 -6q0 -31 -16 -64t-39 -54l-10 -3zM1320 905q4 -14 19 -14q33 0 84 143q-68 -31 -102 -106q-5 -9 -1 -23z M1532.5 235q-1.5 -23 13.5 -34q10 38 10 71q-22 -14 -23.5 -37zM1585 41l107 285l43 -37q-62 -144 -82 -195l2 -4q36 63 84.5 126t93.5 103q5 5 16 5.5t17 -5.5l30 -24q16 -19 9 -43q-49 -113 -52 -119q-29 -64 -22 -108q85 42 166 141l10 -6q-73 -100 -162 -158 q-40 18 -57.5 54t0.5 77q34 73 65 152q3 14 -2 14q-16 0 -65.5 -58t-95.5 -131t-54 -110z" />
<glyph unicode="&#xa1;" d="M92.5 81.5q-14.5 53.5 3.5 94.5q7 24 20.5 61.5t23.5 62.5l10 26l49 -39q-48 -133 -56 -160q-15 -48 -2 -102q107 41 148 157q-36 17 -40.5 54.5t25.5 74.5l17 13l33 -41q0 -38 -11 -95q30 -10 68 0q15 43 51.5 79.5t85.5 58.5l33 -43q-46 -13 -79 -49.5t-44 -83.5 q64 23 106 69t48 109l12 6q9 -7 35 -39q-16 -56 -74.5 -99t-130.5 -61q-13 -55 10 -110q82 19 182 141l11 -4q-92 -126 -185 -160q-95 69 -67 174q-38 -9 -66 -2q-42 -124 -157 -172q-45 26 -59.5 79.5zM223 657q6 25 24 74t33 85l15 36l49 -41q-45 -119 -57 -154 q-21 -73 -21 -110q88 49 160 143l59 162l45 -39q-61 -144 -81 -197l4 -2q83 148 176 232q6 6 16.5 6t18.5 -6l28 -29q8 -6 10 -18t-2 -23q-40 -87 -49 -117q-29 -66 -24 -110q85 43 168 143l10 -2q-74 -108 -164 -164q-41 19 -58.5 55t-0.5 76q30 66 67 154q4 12 -2 12 q-16 0 -65.5 -57.5t-95.5 -130.5t-54 -111l-51 41l31 82q-77 -85 -136 -121q-35 12 -48.5 49t-4.5 82zM283 236q-4 -25 12 -39q13 45 18 77q-26 -13 -30 -38zM319 924l3 6q79 15 106 86l8 -4q-1 -35 -17.5 -68.5t-41.5 -52.5h-12zM465 1158q-13 49 2.5 95t49 86t75.5 60 l33 -53q-68 -25 -100.5 -102.5t-4.5 -145.5q50 12 92 56.5t62 105.5q-35 19 -41 54.5t24 74.5l17 10l26 -39q2 -39 -6 -94q28 -11 74 0l49 133l47 -39q-63 -144 -86 -197l4 -4q72 132 176 236q7 3 17.5 3.5t17.5 -3.5l31 -29q17 -21 6 -43q-6 -14 -17 -40.5t-19.5 -46.5 t-12.5 -32q-30 -65 -23 -106q80 37 158 129l135 356l52 -39q-18 -46 -77.5 -192t-62.5 -154q-19 -56 -12 -100q76 38 158 133l67 172l47 -39q-51 -121 -63 -154q-27 -75 -8 -114q87 59 143 159l49 142l47 -37q-33 -101 -94 -275q39 14 91 60.5t89 93.5l11 -4 q-76 -112 -199 -170q-28 -76 -66.5 -131t-81.5 -55q-33 0 -44.5 17t-0.5 44q9 26 22 44.5t35 32.5t35 20.5t44 19.5q27 81 49 131l-6 2q-62 -76 -115 -117q-37 13 -56 48.5t-10 72.5q-58 -73 -133 -119q-35 10 -51.5 43.5t-7.5 69.5q-60 -70 -131 -113q-40 18 -56.5 51.5 t0.5 77.5q14 37 66 154q3 14 -2 14q-16 0 -65.5 -58.5t-96 -131t-53.5 -107.5l-49 35l47 141q-39 -8 -70 2q-20 -76 -64 -121.5t-104 -56.5q-46 34 -59 83zM610 43l109 283l45 -39q-23 -36 -43 -99h2q20 32 55 78t47 53q21 14 35 0q16 -13 25 -28q14 -28 -13.5 -60.5 t-66.5 -42.5l-8 7q57 38 47 108q-86 -58 -156 -213q-21 -56 -29 -88zM665.5 1307.5q-2.5 -22.5 12.5 -33.5q8 24 12 72q-22 -16 -24.5 -38.5zM823 422q19 46 140 385q-9 1 -27 2t-25 2l-18 23l8 10q34 -10 70 -13l28 72q16 45 46.5 81.5t64.5 43.5l41 -35l12 37l8 2 q13 -15 23 -33q-9 -22 -27.5 -43t-36.5 -30l-4 4l23 59q-11 -2 -20 -5t-16.5 -6.5t-14.5 -9.5t-11.5 -10t-10 -12t-8.5 -12t-7.5 -14t-5.5 -13.5t-5.5 -14t-5.5 -13.5l-18 -52q39 -3 80 7l6 -13q-30 -11 -94 -14l-152 -412q-28 12 -43 27zM868 84q12 33 47 57q9 -10 11 -14 q-32 -22 -35 -53q0 -32 20 -35q31 -4 57.5 13t35.5 44q9 28 -2.5 53t-30 41t-31 37.5t-4.5 44.5q10 30 44 42t69 1l24 -30l12 28l11 6q12 -16 24 -34q-19 -52 -69 -82l-7 4l27 72q-34 10 -58 2t-30 -29q-9 -24 2.5 -47.5t30.5 -39t32.5 -37t8.5 -42.5q-12 -41 -44.5 -63.5 t-72.5 -22.5q-36 0 -57 25.5t-15 58.5zM1085 664q7 24 24 72t31 84l13 36l43 -43q-43 -118 -53 -149q-17 -47 -17 -117q120 83 185 246l20 63l43 -43q-43 -118 -55 -149q-16 -66 -16 -117q73 37 141 112l141 377l51 -41q-11 -27 -44.5 -111.5t-60 -151t-30.5 -81.5 q-21 -53 -14 -104q76 43 141 121l144 368l47 -41q-16 -44 -73.5 -186.5t-62.5 -157.5q-20 -59 -14 -104q86 46 162 145l10 -4q-72 -106 -160 -164q-34 10 -52 42t-13 69q-56 -66 -119 -111q-33 10 -49.5 40t-13.5 65q-48 -57 -119 -109q-43 13 -52.5 57t13.5 101l-4 2 q-48 -79 -131 -154q-40 14 -54.5 53.5t-1.5 84.5zM1133 133l71 191l49 -39q-47 -121 -57 -152q-18 -63 -18 -110q87 50 151 133q10 54 47.5 101t87.5 69l33 -54q-70 -25 -103 -102t-5 -145q52 15 92.5 57t60.5 104q-32 19 -37.5 55t21.5 72l16 13l27 -39q0 -53 -6 -97 q32 -8 75 0l-6 -12q-41 -11 -71 2q-20 -75 -63 -120.5t-101 -57.5q-73 50 -70 129q-69 -86 -141 -129q-37 13 -50 49.5t-3 81.5zM1227 397l6 6q78 19 104 86l6 -6q0 -31 -16 -64t-39 -54l-10 -3zM1320 905q4 -14 19 -14q33 0 84 143q-68 -31 -102 -106q-5 -9 -1 -23z M1532.5 235q-1.5 -23 13.5 -34q10 38 10 71q-22 -14 -23.5 -37zM1585 41l107 285l43 -37q-62 -144 -82 -195l2 -4q36 63 84.5 126t93.5 103q5 5 16 5.5t17 -5.5l30 -24q16 -19 9 -43q-49 -113 -52 -119q-29 -64 -22 -108q85 42 166 141l10 -6q-73 -100 -162 -158 q-40 18 -57.5 54t0.5 77q34 73 65 152q3 14 -2 14q-16 0 -65.5 -58t-95.5 -131t-54 -110z" />
<glyph unicode="&#xa2;" d="M92.5 81.5q-14.5 53.5 3.5 94.5q7 24 20.5 61.5t23.5 62.5l10 26l49 -39q-48 -133 -56 -160q-15 -48 -2 -102q107 41 148 157q-36 17 -40.5 54.5t25.5 74.5l17 13l33 -41q0 -38 -11 -95q30 -10 68 0q15 43 51.5 79.5t85.5 58.5l33 -43q-46 -13 -79 -49.5t-44 -83.5 q64 23 106 69t48 109l12 6q9 -7 35 -39q-16 -56 -74.5 -99t-130.5 -61q-13 -55 10 -110q82 19 182 141l11 -4q-92 -126 -185 -160q-95 69 -67 174q-38 -9 -66 -2q-42 -124 -157 -172q-45 26 -59.5 79.5zM223 657q6 25 24 74t33 85l15 36l49 -41q-45 -119 -57 -154 q-21 -73 -21 -110q88 49 160 143l59 162l45 -39q-61 -144 -81 -197l4 -2q83 148 176 232q6 6 16.5 6t18.5 -6l28 -29q8 -6 10 -18t-2 -23q-40 -87 -49 -117q-29 -66 -24 -110q85 43 168 143l10 -2q-74 -108 -164 -164q-41 19 -58.5 55t-0.5 76q30 66 67 154q4 12 -2 12 q-16 0 -65.5 -57.5t-95.5 -130.5t-54 -111l-51 41l31 82q-77 -85 -136 -121q-35 12 -48.5 49t-4.5 82zM283 236q-4 -25 12 -39q13 45 18 77q-26 -13 -30 -38zM319 924l3 6q79 15 106 86l8 -4q-1 -35 -17.5 -68.5t-41.5 -52.5h-12zM465 1158q-13 49 2.5 95t49 86t75.5 60 l33 -53q-68 -25 -100.5 -102.5t-4.5 -145.5q50 12 92 56.5t62 105.5q-35 19 -41 54.5t24 74.5l17 10l26 -39q2 -39 -6 -94q28 -11 74 0l49 133l47 -39q-63 -144 -86 -197l4 -4q72 132 176 236q7 3 17.5 3.5t17.5 -3.5l31 -29q17 -21 6 -43q-6 -14 -17 -40.5t-19.5 -46.5 t-12.5 -32q-30 -65 -23 -106q80 37 158 129l135 356l52 -39q-18 -46 -77.5 -192t-62.5 -154q-19 -56 -12 -100q76 38 158 133l67 172l47 -39q-51 -121 -63 -154q-27 -75 -8 -114q87 59 143 159l49 142l47 -37q-33 -101 -94 -275q39 14 91 60.5t89 93.5l11 -4 q-76 -112 -199 -170q-28 -76 -66.5 -131t-81.5 -55q-33 0 -44.5 17t-0.5 44q9 26 22 44.5t35 32.5t35 20.5t44 19.5q27 81 49 131l-6 2q-62 -76 -115 -117q-37 13 -56 48.5t-10 72.5q-58 -73 -133 -119q-35 10 -51.5 43.5t-7.5 69.5q-60 -70 -131 -113q-40 18 -56.5 51.5 t0.5 77.5q14 37 66 154q3 14 -2 14q-16 0 -65.5 -58.5t-96 -131t-53.5 -107.5l-49 35l47 141q-39 -8 -70 2q-20 -76 -64 -121.5t-104 -56.5q-46 34 -59 83zM610 43l109 283l45 -39q-23 -36 -43 -99h2q20 32 55 78t47 53q21 14 35 0q16 -13 25 -28q14 -28 -13.5 -60.5 t-66.5 -42.5l-8 7q57 38 47 108q-86 -58 -156 -213q-21 -56 -29 -88zM665.5 1307.5q-2.5 -22.5 12.5 -33.5q8 24 12 72q-22 -16 -24.5 -38.5zM823 422q19 46 140 385q-9 1 -27 2t-25 2l-18 23l8 10q34 -10 70 -13l28 72q16 45 46.5 81.5t64.5 43.5l41 -35l12 37l8 2 q13 -15 23 -33q-9 -22 -27.5 -43t-36.5 -30l-4 4l23 59q-11 -2 -20 -5t-16.5 -6.5t-14.5 -9.5t-11.5 -10t-10 -12t-8.5 -12t-7.5 -14t-5.5 -13.5t-5.5 -14t-5.5 -13.5l-18 -52q39 -3 80 7l6 -13q-30 -11 -94 -14l-152 -412q-28 12 -43 27zM868 84q12 33 47 57q9 -10 11 -14 q-32 -22 -35 -53q0 -32 20 -35q31 -4 57.5 13t35.5 44q9 28 -2.5 53t-30 41t-31 37.5t-4.5 44.5q10 30 44 42t69 1l24 -30l12 28l11 6q12 -16 24 -34q-19 -52 -69 -82l-7 4l27 72q-34 10 -58 2t-30 -29q-9 -24 2.5 -47.5t30.5 -39t32.5 -37t8.5 -42.5q-12 -41 -44.5 -63.5 t-72.5 -22.5q-36 0 -57 25.5t-15 58.5zM1085 664q7 24 24 72t31 84l13 36l43 -43q-43 -118 -53 -149q-17 -47 -17 -117q120 83 185 246l20 63l43 -43q-43 -118 -55 -149q-16 -66 -16 -117q73 37 141 112l141 377l51 -41q-11 -27 -44.5 -111.5t-60 -151t-30.5 -81.5 q-21 -53 -14 -104q76 43 141 121l144 368l47 -41q-16 -44 -73.5 -186.5t-62.5 -157.5q-20 -59 -14 -104q86 46 162 145l10 -4q-72 -106 -160 -164q-34 10 -52 42t-13 69q-56 -66 -119 -111q-33 10 -49.5 40t-13.5 65q-48 -57 -119 -109q-43 13 -52.5 57t13.5 101l-4 2 q-48 -79 -131 -154q-40 14 -54.5 53.5t-1.5 84.5zM1133 133l71 191l49 -39q-47 -121 -57 -152q-18 -63 -18 -110q87 50 151 133q10 54 47.5 101t87.5 69l33 -54q-70 -25 -103 -102t-5 -145q52 15 92.5 57t60.5 104q-32 19 -37.5 55t21.5 72l16 13l27 -39q0 -53 -6 -97 q32 -8 75 0l-6 -12q-41 -11 -71 2q-20 -75 -63 -120.5t-101 -57.5q-73 50 -70 129q-69 -86 -141 -129q-37 13 -50 49.5t-3 81.5zM1227 397l6 6q78 19 104 86l6 -6q0 -31 -16 -64t-39 -54l-10 -3zM1320 905q4 -14 19 -14q33 0 84 143q-68 -31 -102 -106q-5 -9 -1 -23z M1532.5 235q-1.5 -23 13.5 -34q10 38 10 71q-22 -14 -23.5 -37zM1585 41l107 285l43 -37q-62 -144 -82 -195l2 -4q36 63 84.5 126t93.5 103q5 5 16 5.5t17 -5.5l30 -24q16 -19 9 -43q-49 -113 -52 -119q-29 -64 -22 -108q85 42 166 141l10 -6q-73 -100 -162 -158 q-40 18 -57.5 54t0.5 77q34 73 65 152q3 14 -2 14q-16 0 -65.5 -58t-95.5 -131t-54 -110z" />
<glyph unicode="&#xa3;" d="M92.5 81.5q-14.5 53.5 3.5 94.5q7 24 20.5 61.5t23.5 62.5l10 26l49 -39q-48 -133 -56 -160q-15 -48 -2 -102q107 41 148 157q-36 17 -40.5 54.5t25.5 74.5l17 13l33 -41q0 -38 -11 -95q30 -10 68 0q15 43 51.5 79.5t85.5 58.5l33 -43q-46 -13 -79 -49.5t-44 -83.5 q64 23 106 69t48 109l12 6q9 -7 35 -39q-16 -56 -74.5 -99t-130.5 -61q-13 -55 10 -110q82 19 182 141l11 -4q-92 -126 -185 -160q-95 69 -67 174q-38 -9 -66 -2q-42 -124 -157 -172q-45 26 -59.5 79.5zM223 657q6 25 24 74t33 85l15 36l49 -41q-45 -119 -57 -154 q-21 -73 -21 -110q88 49 160 143l59 162l45 -39q-61 -144 -81 -197l4 -2q83 148 176 232q6 6 16.5 6t18.5 -6l28 -29q8 -6 10 -18t-2 -23q-40 -87 -49 -117q-29 -66 -24 -110q85 43 168 143l10 -2q-74 -108 -164 -164q-41 19 -58.5 55t-0.5 76q30 66 67 154q4 12 -2 12 q-16 0 -65.5 -57.5t-95.5 -130.5t-54 -111l-51 41l31 82q-77 -85 -136 -121q-35 12 -48.5 49t-4.5 82zM283 236q-4 -25 12 -39q13 45 18 77q-26 -13 -30 -38zM319 924l3 6q79 15 106 86l8 -4q-1 -35 -17.5 -68.5t-41.5 -52.5h-12zM465 1158q-13 49 2.5 95t49 86t75.5 60 l33 -53q-68 -25 -100.5 -102.5t-4.5 -145.5q50 12 92 56.5t62 105.5q-35 19 -41 54.5t24 74.5l17 10l26 -39q2 -39 -6 -94q28 -11 74 0l49 133l47 -39q-63 -144 -86 -197l4 -4q72 132 176 236q7 3 17.5 3.5t17.5 -3.5l31 -29q17 -21 6 -43q-6 -14 -17 -40.5t-19.5 -46.5 t-12.5 -32q-30 -65 -23 -106q80 37 158 129l135 356l52 -39q-18 -46 -77.5 -192t-62.5 -154q-19 -56 -12 -100q76 38 158 133l67 172l47 -39q-51 -121 -63 -154q-27 -75 -8 -114q87 59 143 159l49 142l47 -37q-33 -101 -94 -275q39 14 91 60.5t89 93.5l11 -4 q-76 -112 -199 -170q-28 -76 -66.5 -131t-81.5 -55q-33 0 -44.5 17t-0.5 44q9 26 22 44.5t35 32.5t35 20.5t44 19.5q27 81 49 131l-6 2q-62 -76 -115 -117q-37 13 -56 48.5t-10 72.5q-58 -73 -133 -119q-35 10 -51.5 43.5t-7.5 69.5q-60 -70 -131 -113q-40 18 -56.5 51.5 t0.5 77.5q14 37 66 154q3 14 -2 14q-16 0 -65.5 -58.5t-96 -131t-53.5 -107.5l-49 35l47 141q-39 -8 -70 2q-20 -76 -64 -121.5t-104 -56.5q-46 34 -59 83zM610 43l109 283l45 -39q-23 -36 -43 -99h2q20 32 55 78t47 53q21 14 35 0q16 -13 25 -28q14 -28 -13.5 -60.5 t-66.5 -42.5l-8 7q57 38 47 108q-86 -58 -156 -213q-21 -56 -29 -88zM665.5 1307.5q-2.5 -22.5 12.5 -33.5q8 24 12 72q-22 -16 -24.5 -38.5zM823 422q19 46 140 385q-9 1 -27 2t-25 2l-18 23l8 10q34 -10 70 -13l28 72q16 45 46.5 81.5t64.5 43.5l41 -35l12 37l8 2 q13 -15 23 -33q-9 -22 -27.5 -43t-36.5 -30l-4 4l23 59q-11 -2 -20 -5t-16.5 -6.5t-14.5 -9.5t-11.5 -10t-10 -12t-8.5 -12t-7.5 -14t-5.5 -13.5t-5.5 -14t-5.5 -13.5l-18 -52q39 -3 80 7l6 -13q-30 -11 -94 -14l-152 -412q-28 12 -43 27zM868 84q12 33 47 57q9 -10 11 -14 q-32 -22 -35 -53q0 -32 20 -35q31 -4 57.5 13t35.5 44q9 28 -2.5 53t-30 41t-31 37.5t-4.5 44.5q10 30 44 42t69 1l24 -30l12 28l11 6q12 -16 24 -34q-19 -52 -69 -82l-7 4l27 72q-34 10 -58 2t-30 -29q-9 -24 2.5 -47.5t30.5 -39t32.5 -37t8.5 -42.5q-12 -41 -44.5 -63.5 t-72.5 -22.5q-36 0 -57 25.5t-15 58.5zM1085 664q7 24 24 72t31 84l13 36l43 -43q-43 -118 -53 -149q-17 -47 -17 -117q120 83 185 246l20 63l43 -43q-43 -118 -55 -149q-16 -66 -16 -117q73 37 141 112l141 377l51 -41q-11 -27 -44.5 -111.5t-60 -151t-30.5 -81.5 q-21 -53 -14 -104q76 43 141 121l144 368l47 -41q-16 -44 -73.5 -186.5t-62.5 -157.5q-20 -59 -14 -104q86 46 162 145l10 -4q-72 -106 -160 -164q-34 10 -52 42t-13 69q-56 -66 -119 -111q-33 10 -49.5 40t-13.5 65q-48 -57 -119 -109q-43 13 -52.5 57t13.5 101l-4 2 q-48 -79 -131 -154q-40 14 -54.5 53.5t-1.5 84.5zM1133 133l71 191l49 -39q-47 -121 -57 -152q-18 -63 -18 -110q87 50 151 133q10 54 47.5 101t87.5 69l33 -54q-70 -25 -103 -102t-5 -145q52 15 92.5 57t60.5 104q-32 19 -37.5 55t21.5 72l16 13l27 -39q0 -53 -6 -97 q32 -8 75 0l-6 -12q-41 -11 -71 2q-20 -75 -63 -120.5t-101 -57.5q-73 50 -70 129q-69 -86 -141 -129q-37 13 -50 49.5t-3 81.5zM1227 397l6 6q78 19 104 86l6 -6q0 -31 -16 -64t-39 -54l-10 -3zM1320 905q4 -14 19 -14q33 0 84 143q-68 -31 -102 -106q-5 -9 -1 -23z M1532.5 235q-1.5 -23 13.5 -34q10 38 10 71q-22 -14 -23.5 -37zM1585 41l107 285l43 -37q-62 -144 -82 -195l2 -4q36 63 84.5 126t93.5 103q5 5 16 5.5t17 -5.5l30 -24q16 -19 9 -43q-49 -113 -52 -119q-29 -64 -22 -108q85 42 166 141l10 -6q-73 -100 -162 -158 q-40 18 -57.5 54t0.5 77q34 73 65 152q3 14 -2 14q-16 0 -65.5 -58t-95.5 -131t-54 -110z" />
<glyph unicode="&#xa4;" d="M92.5 81.5q-14.5 53.5 3.5 94.5q7 24 20.5 61.5t23.5 62.5l10 26l49 -39q-48 -133 -56 -160q-15 -48 -2 -102q107 41 148 157q-36 17 -40.5 54.5t25.5 74.5l17 13l33 -41q0 -38 -11 -95q30 -10 68 0q15 43 51.5 79.5t85.5 58.5l33 -43q-46 -13 -79 -49.5t-44 -83.5 q64 23 106 69t48 109l12 6q9 -7 35 -39q-16 -56 -74.5 -99t-130.5 -61q-13 -55 10 -110q82 19 182 141l11 -4q-92 -126 -185 -160q-95 69 -67 174q-38 -9 -66 -2q-42 -124 -157 -172q-45 26 -59.5 79.5zM223 657q6 25 24 74t33 85l15 36l49 -41q-45 -119 -57 -154 q-21 -73 -21 -110q88 49 160 143l59 162l45 -39q-61 -144 -81 -197l4 -2q83 148 176 232q6 6 16.5 6t18.5 -6l28 -29q8 -6 10 -18t-2 -23q-40 -87 -49 -117q-29 -66 -24 -110q85 43 168 143l10 -2q-74 -108 -164 -164q-41 19 -58.5 55t-0.5 76q30 66 67 154q4 12 -2 12 q-16 0 -65.5 -57.5t-95.5 -130.5t-54 -111l-51 41l31 82q-77 -85 -136 -121q-35 12 -48.5 49t-4.5 82zM283 236q-4 -25 12 -39q13 45 18 77q-26 -13 -30 -38zM319 924l3 6q79 15 106 86l8 -4q-1 -35 -17.5 -68.5t-41.5 -52.5h-12zM465 1158q-13 49 2.5 95t49 86t75.5 60 l33 -53q-68 -25 -100.5 -102.5t-4.5 -145.5q50 12 92 56.5t62 105.5q-35 19 -41 54.5t24 74.5l17 10l26 -39q2 -39 -6 -94q28 -11 74 0l49 133l47 -39q-63 -144 -86 -197l4 -4q72 132 176 236q7 3 17.5 3.5t17.5 -3.5l31 -29q17 -21 6 -43q-6 -14 -17 -40.5t-19.5 -46.5 t-12.5 -32q-30 -65 -23 -106q80 37 158 129l135 356l52 -39q-18 -46 -77.5 -192t-62.5 -154q-19 -56 -12 -100q76 38 158 133l67 172l47 -39q-51 -121 -63 -154q-27 -75 -8 -114q87 59 143 159l49 142l47 -37q-33 -101 -94 -275q39 14 91 60.5t89 93.5l11 -4 q-76 -112 -199 -170q-28 -76 -66.5 -131t-81.5 -55q-33 0 -44.5 17t-0.5 44q9 26 22 44.5t35 32.5t35 20.5t44 19.5q27 81 49 131l-6 2q-62 -76 -115 -117q-37 13 -56 48.5t-10 72.5q-58 -73 -133 -119q-35 10 -51.5 43.5t-7.5 69.5q-60 -70 -131 -113q-40 18 -56.5 51.5 t0.5 77.5q14 37 66 154q3 14 -2 14q-16 0 -65.5 -58.5t-96 -131t-53.5 -107.5l-49 35l47 141q-39 -8 -70 2q-20 -76 -64 -121.5t-104 -56.5q-46 34 -59 83zM610 43l109 283l45 -39q-23 -36 -43 -99h2q20 32 55 78t47 53q21 14 35 0q16 -13 25 -28q14 -28 -13.5 -60.5 t-66.5 -42.5l-8 7q57 38 47 108q-86 -58 -156 -213q-21 -56 -29 -88zM665.5 1307.5q-2.5 -22.5 12.5 -33.5q8 24 12 72q-22 -16 -24.5 -38.5zM823 422q19 46 140 385q-9 1 -27 2t-25 2l-18 23l8 10q34 -10 70 -13l28 72q16 45 46.5 81.5t64.5 43.5l41 -35l12 37l8 2 q13 -15 23 -33q-9 -22 -27.5 -43t-36.5 -30l-4 4l23 59q-11 -2 -20 -5t-16.5 -6.5t-14.5 -9.5t-11.5 -10t-10 -12t-8.5 -12t-7.5 -14t-5.5 -13.5t-5.5 -14t-5.5 -13.5l-18 -52q39 -3 80 7l6 -13q-30 -11 -94 -14l-152 -412q-28 12 -43 27zM868 84q12 33 47 57q9 -10 11 -14 q-32 -22 -35 -53q0 -32 20 -35q31 -4 57.5 13t35.5 44q9 28 -2.5 53t-30 41t-31 37.5t-4.5 44.5q10 30 44 42t69 1l24 -30l12 28l11 6q12 -16 24 -34q-19 -52 -69 -82l-7 4l27 72q-34 10 -58 2t-30 -29q-9 -24 2.5 -47.5t30.5 -39t32.5 -37t8.5 -42.5q-12 -41 -44.5 -63.5 t-72.5 -22.5q-36 0 -57 25.5t-15 58.5zM1085 664q7 24 24 72t31 84l13 36l43 -43q-43 -118 -53 -149q-17 -47 -17 -117q120 83 185 246l20 63l43 -43q-43 -118 -55 -149q-16 -66 -16 -117q73 37 141 112l141 377l51 -41q-11 -27 -44.5 -111.5t-60 -151t-30.5 -81.5 q-21 -53 -14 -104q76 43 141 121l144 368l47 -41q-16 -44 -73.5 -186.5t-62.5 -157.5q-20 -59 -14 -104q86 46 162 145l10 -4q-72 -106 -160 -164q-34 10 -52 42t-13 69q-56 -66 -119 -111q-33 10 -49.5 40t-13.5 65q-48 -57 -119 -109q-43 13 -52.5 57t13.5 101l-4 2 q-48 -79 -131 -154q-40 14 -54.5 53.5t-1.5 84.5zM1133 133l71 191l49 -39q-47 -121 -57 -152q-18 -63 -18 -110q87 50 151 133q10 54 47.5 101t87.5 69l33 -54q-70 -25 -103 -102t-5 -145q52 15 92.5 57t60.5 104q-32 19 -37.5 55t21.5 72l16 13l27 -39q0 -53 -6 -97 q32 -8 75 0l-6 -12q-41 -11 -71 2q-20 -75 -63 -120.5t-101 -57.5q-73 50 -70 129q-69 -86 -141 -129q-37 13 -50 49.5t-3 81.5zM1227 397l6 6q78 19 104 86l6 -6q0 -31 -16 -64t-39 -54l-10 -3zM1320 905q4 -14 19 -14q33 0 84 143q-68 -31 -102 -106q-5 -9 -1 -23z M1532.5 235q-1.5 -23 13.5 -34q10 38 10 71q-22 -14 -23.5 -37zM1585 41l107 285l43 -37q-62 -144 -82 -195l2 -4q36 63 84.5 126t93.5 103q5 5 16 5.5t17 -5.5l30 -24q16 -19 9 -43q-49 -113 -52 -119q-29 -64 -22 -108q85 42 166 141l10 -6q-73 -100 -162 -158 q-40 18 -57.5 54t0.5 77q34 73 65 152q3 14 -2 14q-16 0 -65.5 -58t-95.5 -131t-54 -110z" />
<glyph unicode="&#xa5;" d="M92.5 81.5q-14.5 53.5 3.5 94.5q7 24 20.5 61.5t23.5 62.5l10 26l49 -39q-48 -133 -56 -160q-15 -48 -2 -102q107 41 148 157q-36 17 -40.5 54.5t25.5 74.5l17 13l33 -41q0 -38 -11 -95q30 -10 68 0q15 43 51.5 79.5t85.5 58.5l33 -43q-46 -13 -79 -49.5t-44 -83.5 q64 23 106 69t48 109l12 6q9 -7 35 -39q-16 -56 -74.5 -99t-130.5 -61q-13 -55 10 -110q82 19 182 141l11 -4q-92 -126 -185 -160q-95 69 -67 174q-38 -9 -66 -2q-42 -124 -157 -172q-45 26 -59.5 79.5zM223 657q6 25 24 74t33 85l15 36l49 -41q-45 -119 -57 -154 q-21 -73 -21 -110q88 49 160 143l59 162l45 -39q-61 -144 -81 -197l4 -2q83 148 176 232q6 6 16.5 6t18.5 -6l28 -29q8 -6 10 -18t-2 -23q-40 -87 -49 -117q-29 -66 -24 -110q85 43 168 143l10 -2q-74 -108 -164 -164q-41 19 -58.5 55t-0.5 76q30 66 67 154q4 12 -2 12 q-16 0 -65.5 -57.5t-95.5 -130.5t-54 -111l-51 41l31 82q-77 -85 -136 -121q-35 12 -48.5 49t-4.5 82zM283 236q-4 -25 12 -39q13 45 18 77q-26 -13 -30 -38zM319 924l3 6q79 15 106 86l8 -4q-1 -35 -17.5 -68.5t-41.5 -52.5h-12zM465 1158q-13 49 2.5 95t49 86t75.5 60 l33 -53q-68 -25 -100.5 -102.5t-4.5 -145.5q50 12 92 56.5t62 105.5q-35 19 -41 54.5t24 74.5l17 10l26 -39q2 -39 -6 -94q28 -11 74 0l49 133l47 -39q-63 -144 -86 -197l4 -4q72 132 176 236q7 3 17.5 3.5t17.5 -3.5l31 -29q17 -21 6 -43q-6 -14 -17 -40.5t-19.5 -46.5 t-12.5 -32q-30 -65 -23 -106q80 37 158 129l135 356l52 -39q-18 -46 -77.5 -192t-62.5 -154q-19 -56 -12 -100q76 38 158 133l67 172l47 -39q-51 -121 -63 -154q-27 -75 -8 -114q87 59 143 159l49 142l47 -37q-33 -101 -94 -275q39 14 91 60.5t89 93.5l11 -4 q-76 -112 -199 -170q-28 -76 -66.5 -131t-81.5 -55q-33 0 -44.5 17t-0.5 44q9 26 22 44.5t35 32.5t35 20.5t44 19.5q27 81 49 131l-6 2q-62 -76 -115 -117q-37 13 -56 48.5t-10 72.5q-58 -73 -133 -119q-35 10 -51.5 43.5t-7.5 69.5q-60 -70 -131 -113q-40 18 -56.5 51.5 t0.5 77.5q14 37 66 154q3 14 -2 14q-16 0 -65.5 -58.5t-96 -131t-53.5 -107.5l-49 35l47 141q-39 -8 -70 2q-20 -76 -64 -121.5t-104 -56.5q-46 34 -59 83zM610 43l109 283l45 -39q-23 -36 -43 -99h2q20 32 55 78t47 53q21 14 35 0q16 -13 25 -28q14 -28 -13.5 -60.5 t-66.5 -42.5l-8 7q57 38 47 108q-86 -58 -156 -213q-21 -56 -29 -88zM665.5 1307.5q-2.5 -22.5 12.5 -33.5q8 24 12 72q-22 -16 -24.5 -38.5zM823 422q19 46 140 385q-9 1 -27 2t-25 2l-18 23l8 10q34 -10 70 -13l28 72q16 45 46.5 81.5t64.5 43.5l41 -35l12 37l8 2 q13 -15 23 -33q-9 -22 -27.5 -43t-36.5 -30l-4 4l23 59q-11 -2 -20 -5t-16.5 -6.5t-14.5 -9.5t-11.5 -10t-10 -12t-8.5 -12t-7.5 -14t-5.5 -13.5t-5.5 -14t-5.5 -13.5l-18 -52q39 -3 80 7l6 -13q-30 -11 -94 -14l-152 -412q-28 12 -43 27zM868 84q12 33 47 57q9 -10 11 -14 q-32 -22 -35 -53q0 -32 20 -35q31 -4 57.5 13t35.5 44q9 28 -2.5 53t-30 41t-31 37.5t-4.5 44.5q10 30 44 42t69 1l24 -30l12 28l11 6q12 -16 24 -34q-19 -52 -69 -82l-7 4l27 72q-34 10 -58 2t-30 -29q-9 -24 2.5 -47.5t30.5 -39t32.5 -37t8.5 -42.5q-12 -41 -44.5 -63.5 t-72.5 -22.5q-36 0 -57 25.5t-15 58.5zM1085 664q7 24 24 72t31 84l13 36l43 -43q-43 -118 -53 -149q-17 -47 -17 -117q120 83 185 246l20 63l43 -43q-43 -118 -55 -149q-16 -66 -16 -117q73 37 141 112l141 377l51 -41q-11 -27 -44.5 -111.5t-60 -151t-30.5 -81.5 q-21 -53 -14 -104q76 43 141 121l144 368l47 -41q-16 -44 -73.5 -186.5t-62.5 -157.5q-20 -59 -14 -104q86 46 162 145l10 -4q-72 -106 -160 -164q-34 10 -52 42t-13 69q-56 -66 -119 -111q-33 10 -49.5 40t-13.5 65q-48 -57 -119 -109q-43 13 -52.5 57t13.5 101l-4 2 q-48 -79 -131 -154q-40 14 -54.5 53.5t-1.5 84.5zM1133 133l71 191l49 -39q-47 -121 -57 -152q-18 -63 -18 -110q87 50 151 133q10 54 47.5 101t87.5 69l33 -54q-70 -25 -103 -102t-5 -145q52 15 92.5 57t60.5 104q-32 19 -37.5 55t21.5 72l16 13l27 -39q0 -53 -6 -97 q32 -8 75 0l-6 -12q-41 -11 -71 2q-20 -75 -63 -120.5t-101 -57.5q-73 50 -70 129q-69 -86 -141 -129q-37 13 -50 49.5t-3 81.5zM1227 397l6 6q78 19 104 86l6 -6q0 -31 -16 -64t-39 -54l-10 -3zM1320 905q4 -14 19 -14q33 0 84 143q-68 -31 -102 -106q-5 -9 -1 -23z M1532.5 235q-1.5 -23 13.5 -34q10 38 10 71q-22 -14 -23.5 -37zM1585 41l107 285l43 -37q-62 -144 -82 -195l2 -4q36 63 84.5 126t93.5 103q5 5 16 5.5t17 -5.5l30 -24q16 -19 9 -43q-49 -113 -52 -119q-29 -64 -22 -108q85 42 166 141l10 -6q-73 -100 -162 -158 q-40 18 -57.5 54t0.5 77q34 73 65 152q3 14 -2 14q-16 0 -65.5 -58t-95.5 -131t-54 -110z" />
<glyph unicode="&#xa6;" d="M92.5 81.5q-14.5 53.5 3.5 94.5q7 24 20.5 61.5t23.5 62.5l10 26l49 -39q-48 -133 -56 -160q-15 -48 -2 -102q107 41 148 157q-36 17 -40.5 54.5t25.5 74.5l17 13l33 -41q0 -38 -11 -95q30 -10 68 0q15 43 51.5 79.5t85.5 58.5l33 -43q-46 -13 -79 -49.5t-44 -83.5 q64 23 106 69t48 109l12 6q9 -7 35 -39q-16 -56 -74.5 -99t-130.5 -61q-13 -55 10 -110q82 19 182 141l11 -4q-92 -126 -185 -160q-95 69 -67 174q-38 -9 -66 -2q-42 -124 -157 -172q-45 26 -59.5 79.5zM223 657q6 25 24 74t33 85l15 36l49 -41q-45 -119 -57 -154 q-21 -73 -21 -110q88 49 160 143l59 162l45 -39q-61 -144 -81 -197l4 -2q83 148 176 232q6 6 16.5 6t18.5 -6l28 -29q8 -6 10 -18t-2 -23q-40 -87 -49 -117q-29 -66 -24 -110q85 43 168 143l10 -2q-74 -108 -164 -164q-41 19 -58.5 55t-0.5 76q30 66 67 154q4 12 -2 12 q-16 0 -65.5 -57.5t-95.5 -130.5t-54 -111l-51 41l31 82q-77 -85 -136 -121q-35 12 -48.5 49t-4.5 82zM283 236q-4 -25 12 -39q13 45 18 77q-26 -13 -30 -38zM319 924l3 6q79 15 106 86l8 -4q-1 -35 -17.5 -68.5t-41.5 -52.5h-12zM465 1158q-13 49 2.5 95t49 86t75.5 60 l33 -53q-68 -25 -100.5 -102.5t-4.5 -145.5q50 12 92 56.5t62 105.5q-35 19 -41 54.5t24 74.5l17 10l26 -39q2 -39 -6 -94q28 -11 74 0l49 133l47 -39q-63 -144 -86 -197l4 -4q72 132 176 236q7 3 17.5 3.5t17.5 -3.5l31 -29q17 -21 6 -43q-6 -14 -17 -40.5t-19.5 -46.5 t-12.5 -32q-30 -65 -23 -106q80 37 158 129l135 356l52 -39q-18 -46 -77.5 -192t-62.5 -154q-19 -56 -12 -100q76 38 158 133l67 172l47 -39q-51 -121 -63 -154q-27 -75 -8 -114q87 59 143 159l49 142l47 -37q-33 -101 -94 -275q39 14 91 60.5t89 93.5l11 -4 q-76 -112 -199 -170q-28 -76 -66.5 -131t-81.5 -55q-33 0 -44.5 17t-0.5 44q9 26 22 44.5t35 32.5t35 20.5t44 19.5q27 81 49 131l-6 2q-62 -76 -115 -117q-37 13 -56 48.5t-10 72.5q-58 -73 -133 -119q-35 10 -51.5 43.5t-7.5 69.5q-60 -70 -131 -113q-40 18 -56.5 51.5 t0.5 77.5q14 37 66 154q3 14 -2 14q-16 0 -65.5 -58.5t-96 -131t-53.5 -107.5l-49 35l47 141q-39 -8 -70 2q-20 -76 -64 -121.5t-104 -56.5q-46 34 -59 83zM610 43l109 283l45 -39q-23 -36 -43 -99h2q20 32 55 78t47 53q21 14 35 0q16 -13 25 -28q14 -28 -13.5 -60.5 t-66.5 -42.5l-8 7q57 38 47 108q-86 -58 -156 -213q-21 -56 -29 -88zM665.5 1307.5q-2.5 -22.5 12.5 -33.5q8 24 12 72q-22 -16 -24.5 -38.5zM823 422q19 46 140 385q-9 1 -27 2t-25 2l-18 23l8 10q34 -10 70 -13l28 72q16 45 46.5 81.5t64.5 43.5l41 -35l12 37l8 2 q13 -15 23 -33q-9 -22 -27.5 -43t-36.5 -30l-4 4l23 59q-11 -2 -20 -5t-16.5 -6.5t-14.5 -9.5t-11.5 -10t-10 -12t-8.5 -12t-7.5 -14t-5.5 -13.5t-5.5 -14t-5.5 -13.5l-18 -52q39 -3 80 7l6 -13q-30 -11 -94 -14l-152 -412q-28 12 -43 27zM868 84q12 33 47 57q9 -10 11 -14 q-32 -22 -35 -53q0 -32 20 -35q31 -4 57.5 13t35.5 44q9 28 -2.5 53t-30 41t-31 37.5t-4.5 44.5q10 30 44 42t69 1l24 -30l12 28l11 6q12 -16 24 -34q-19 -52 -69 -82l-7 4l27 72q-34 10 -58 2t-30 -29q-9 -24 2.5 -47.5t30.5 -39t32.5 -37t8.5 -42.5q-12 -41 -44.5 -63.5 t-72.5 -22.5q-36 0 -57 25.5t-15 58.5zM1085 664q7 24 24 72t31 84l13 36l43 -43q-43 -118 -53 -149q-17 -47 -17 -117q120 83 185 246l20 63l43 -43q-43 -118 -55 -149q-16 -66 -16 -117q73 37 141 112l141 377l51 -41q-11 -27 -44.5 -111.5t-60 -151t-30.5 -81.5 q-21 -53 -14 -104q76 43 141 121l144 368l47 -41q-16 -44 -73.5 -186.5t-62.5 -157.5q-20 -59 -14 -104q86 46 162 145l10 -4q-72 -106 -160 -164q-34 10 -52 42t-13 69q-56 -66 -119 -111q-33 10 -49.5 40t-13.5 65q-48 -57 -119 -109q-43 13 -52.5 57t13.5 101l-4 2 q-48 -79 -131 -154q-40 14 -54.5 53.5t-1.5 84.5zM1133 133l71 191l49 -39q-47 -121 -57 -152q-18 -63 -18 -110q87 50 151 133q10 54 47.5 101t87.5 69l33 -54q-70 -25 -103 -102t-5 -145q52 15 92.5 57t60.5 104q-32 19 -37.5 55t21.5 72l16 13l27 -39q0 -53 -6 -97 q32 -8 75 0l-6 -12q-41 -11 -71 2q-20 -75 -63 -120.5t-101 -57.5q-73 50 -70 129q-69 -86 -141 -129q-37 13 -50 49.5t-3 81.5zM1227 397l6 6q78 19 104 86l6 -6q0 -31 -16 -64t-39 -54l-10 -3zM1320 905q4 -14 19 -14q33 0 84 143q-68 -31 -102 -106q-5 -9 -1 -23z M1532.5 235q-1.5 -23 13.5 -34q10 38 10 71q-22 -14 -23.5 -37zM1585 41l107 285l43 -37q-62 -144 -82 -195l2 -4q36 63 84.5 126t93.5 103q5 5 16 5.5t17 -5.5l30 -24q16 -19 9 -43q-49 -113 -52 -119q-29 -64 -22 -108q85 42 166 141l10 -6q-73 -100 -162 -158 q-40 18 -57.5 54t0.5 77q34 73 65 152q3 14 -2 14q-16 0 -65.5 -58t-95.5 -131t-54 -110z" />
<glyph unicode="&#xa7;" d="M92.5 81.5q-14.5 53.5 3.5 94.5q7 24 20.5 61.5t23.5 62.5l10 26l49 -39q-48 -133 -56 -160q-15 -48 -2 -102q107 41 148 157q-36 17 -40.5 54.5t25.5 74.5l17 13l33 -41q0 -38 -11 -95q30 -10 68 0q15 43 51.5 79.5t85.5 58.5l33 -43q-46 -13 -79 -49.5t-44 -83.5 q64 23 106 69t48 109l12 6q9 -7 35 -39q-16 -56 -74.5 -99t-130.5 -61q-13 -55 10 -110q82 19 182 141l11 -4q-92 -126 -185 -160q-95 69 -67 174q-38 -9 -66 -2q-42 -124 -157 -172q-45 26 -59.5 79.5zM223 657q6 25 24 74t33 85l15 36l49 -41q-45 -119 -57 -154 q-21 -73 -21 -110q88 49 160 143l59 162l45 -39q-61 -144 -81 -197l4 -2q83 148 176 232q6 6 16.5 6t18.5 -6l28 -29q8 -6 10 -18t-2 -23q-40 -87 -49 -117q-29 -66 -24 -110q85 43 168 143l10 -2q-74 -108 -164 -164q-41 19 -58.5 55t-0.5 76q30 66 67 154q4 12 -2 12 q-16 0 -65.5 -57.5t-95.5 -130.5t-54 -111l-51 41l31 82q-77 -85 -136 -121q-35 12 -48.5 49t-4.5 82zM283 236q-4 -25 12 -39q13 45 18 77q-26 -13 -30 -38zM319 924l3 6q79 15 106 86l8 -4q-1 -35 -17.5 -68.5t-41.5 -52.5h-12zM465 1158q-13 49 2.5 95t49 86t75.5 60 l33 -53q-68 -25 -100.5 -102.5t-4.5 -145.5q50 12 92 56.5t62 105.5q-35 19 -41 54.5t24 74.5l17 10l26 -39q2 -39 -6 -94q28 -11 74 0l49 133l47 -39q-63 -144 -86 -197l4 -4q72 132 176 236q7 3 17.5 3.5t17.5 -3.5l31 -29q17 -21 6 -43q-6 -14 -17 -40.5t-19.5 -46.5 t-12.5 -32q-30 -65 -23 -106q80 37 158 129l135 356l52 -39q-18 -46 -77.5 -192t-62.5 -154q-19 -56 -12 -100q76 38 158 133l67 172l47 -39q-51 -121 -63 -154q-27 -75 -8 -114q87 59 143 159l49 142l47 -37q-33 -101 -94 -275q39 14 91 60.5t89 93.5l11 -4 q-76 -112 -199 -170q-28 -76 -66.5 -131t-81.5 -55q-33 0 -44.5 17t-0.5 44q9 26 22 44.5t35 32.5t35 20.5t44 19.5q27 81 49 131l-6 2q-62 -76 -115 -117q-37 13 -56 48.5t-10 72.5q-58 -73 -133 -119q-35 10 -51.5 43.5t-7.5 69.5q-60 -70 -131 -113q-40 18 -56.5 51.5 t0.5 77.5q14 37 66 154q3 14 -2 14q-16 0 -65.5 -58.5t-96 -131t-53.5 -107.5l-49 35l47 141q-39 -8 -70 2q-20 -76 -64 -121.5t-104 -56.5q-46 34 -59 83zM610 43l109 283l45 -39q-23 -36 -43 -99h2q20 32 55 78t47 53q21 14 35 0q16 -13 25 -28q14 -28 -13.5 -60.5 t-66.5 -42.5l-8 7q57 38 47 108q-86 -58 -156 -213q-21 -56 -29 -88zM665.5 1307.5q-2.5 -22.5 12.5 -33.5q8 24 12 72q-22 -16 -24.5 -38.5zM823 422q19 46 140 385q-9 1 -27 2t-25 2l-18 23l8 10q34 -10 70 -13l28 72q16 45 46.5 81.5t64.5 43.5l41 -35l12 37l8 2 q13 -15 23 -33q-9 -22 -27.5 -43t-36.5 -30l-4 4l23 59q-11 -2 -20 -5t-16.5 -6.5t-14.5 -9.5t-11.5 -10t-10 -12t-8.5 -12t-7.5 -14t-5.5 -13.5t-5.5 -14t-5.5 -13.5l-18 -52q39 -3 80 7l6 -13q-30 -11 -94 -14l-152 -412q-28 12 -43 27zM868 84q12 33 47 57q9 -10 11 -14 q-32 -22 -35 -53q0 -32 20 -35q31 -4 57.5 13t35.5 44q9 28 -2.5 53t-30 41t-31 37.5t-4.5 44.5q10 30 44 42t69 1l24 -30l12 28l11 6q12 -16 24 -34q-19 -52 -69 -82l-7 4l27 72q-34 10 -58 2t-30 -29q-9 -24 2.5 -47.5t30.5 -39t32.5 -37t8.5 -42.5q-12 -41 -44.5 -63.5 t-72.5 -22.5q-36 0 -57 25.5t-15 58.5zM1085 664q7 24 24 72t31 84l13 36l43 -43q-43 -118 -53 -149q-17 -47 -17 -117q120 83 185 246l20 63l43 -43q-43 -118 -55 -149q-16 -66 -16 -117q73 37 141 112l141 377l51 -41q-11 -27 -44.5 -111.5t-60 -151t-30.5 -81.5 q-21 -53 -14 -104q76 43 141 121l144 368l47 -41q-16 -44 -73.5 -186.5t-62.5 -157.5q-20 -59 -14 -104q86 46 162 145l10 -4q-72 -106 -160 -164q-34 10 -52 42t-13 69q-56 -66 -119 -111q-33 10 -49.5 40t-13.5 65q-48 -57 -119 -109q-43 13 -52.5 57t13.5 101l-4 2 q-48 -79 -131 -154q-40 14 -54.5 53.5t-1.5 84.5zM1133 133l71 191l49 -39q-47 -121 -57 -152q-18 -63 -18 -110q87 50 151 133q10 54 47.5 101t87.5 69l33 -54q-70 -25 -103 -102t-5 -145q52 15 92.5 57t60.5 104q-32 19 -37.5 55t21.5 72l16 13l27 -39q0 -53 -6 -97 q32 -8 75 0l-6 -12q-41 -11 -71 2q-20 -75 -63 -120.5t-101 -57.5q-73 50 -70 129q-69 -86 -141 -129q-37 13 -50 49.5t-3 81.5zM1227 397l6 6q78 19 104 86l6 -6q0 -31 -16 -64t-39 -54l-10 -3zM1320 905q4 -14 19 -14q33 0 84 143q-68 -31 -102 -106q-5 -9 -1 -23z M1532.5 235q-1.5 -23 13.5 -34q10 38 10 71q-22 -14 -23.5 -37zM1585 41l107 285l43 -37q-62 -144 -82 -195l2 -4q36 63 84.5 126t93.5 103q5 5 16 5.5t17 -5.5l30 -24q16 -19 9 -43q-49 -113 -52 -119q-29 -64 -22 -108q85 42 166 141l10 -6q-73 -100 -162 -158 q-40 18 -57.5 54t0.5 77q34 73 65 152q3 14 -2 14q-16 0 -65.5 -58t-95.5 -131t-54 -110z" />
<glyph unicode="&#xa8;" horiz-adv-x="364" d="M-35 1004l45 153l107 -72q-6 -74 -64 -135zM227 1004l43 153l109 -72q-38 -75 -64 -135z" />
<glyph unicode="&#xa9;" d="M92.5 81.5q-14.5 53.5 3.5 94.5q7 24 20.5 61.5t23.5 62.5l10 26l49 -39q-48 -133 -56 -160q-15 -48 -2 -102q107 41 148 157q-36 17 -40.5 54.5t25.5 74.5l17 13l33 -41q0 -38 -11 -95q30 -10 68 0q15 43 51.5 79.5t85.5 58.5l33 -43q-46 -13 -79 -49.5t-44 -83.5 q64 23 106 69t48 109l12 6q9 -7 35 -39q-16 -56 -74.5 -99t-130.5 -61q-13 -55 10 -110q82 19 182 141l11 -4q-92 -126 -185 -160q-95 69 -67 174q-38 -9 -66 -2q-42 -124 -157 -172q-45 26 -59.5 79.5zM223 657q6 25 24 74t33 85l15 36l49 -41q-45 -119 -57 -154 q-21 -73 -21 -110q88 49 160 143l59 162l45 -39q-61 -144 -81 -197l4 -2q83 148 176 232q6 6 16.5 6t18.5 -6l28 -29q8 -6 10 -18t-2 -23q-40 -87 -49 -117q-29 -66 -24 -110q85 43 168 143l10 -2q-74 -108 -164 -164q-41 19 -58.5 55t-0.5 76q30 66 67 154q4 12 -2 12 q-16 0 -65.5 -57.5t-95.5 -130.5t-54 -111l-51 41l31 82q-77 -85 -136 -121q-35 12 -48.5 49t-4.5 82zM283 236q-4 -25 12 -39q13 45 18 77q-26 -13 -30 -38zM319 924l3 6q79 15 106 86l8 -4q-1 -35 -17.5 -68.5t-41.5 -52.5h-12zM465 1158q-13 49 2.5 95t49 86t75.5 60 l33 -53q-68 -25 -100.5 -102.5t-4.5 -145.5q50 12 92 56.5t62 105.5q-35 19 -41 54.5t24 74.5l17 10l26 -39q2 -39 -6 -94q28 -11 74 0l49 133l47 -39q-63 -144 -86 -197l4 -4q72 132 176 236q7 3 17.5 3.5t17.5 -3.5l31 -29q17 -21 6 -43q-6 -14 -17 -40.5t-19.5 -46.5 t-12.5 -32q-30 -65 -23 -106q80 37 158 129l135 356l52 -39q-18 -46 -77.5 -192t-62.5 -154q-19 -56 -12 -100q76 38 158 133l67 172l47 -39q-51 -121 -63 -154q-27 -75 -8 -114q87 59 143 159l49 142l47 -37q-33 -101 -94 -275q39 14 91 60.5t89 93.5l11 -4 q-76 -112 -199 -170q-28 -76 -66.5 -131t-81.5 -55q-33 0 -44.5 17t-0.5 44q9 26 22 44.5t35 32.5t35 20.5t44 19.5q27 81 49 131l-6 2q-62 -76 -115 -117q-37 13 -56 48.5t-10 72.5q-58 -73 -133 -119q-35 10 -51.5 43.5t-7.5 69.5q-60 -70 -131 -113q-40 18 -56.5 51.5 t0.5 77.5q14 37 66 154q3 14 -2 14q-16 0 -65.5 -58.5t-96 -131t-53.5 -107.5l-49 35l47 141q-39 -8 -70 2q-20 -76 -64 -121.5t-104 -56.5q-46 34 -59 83zM610 43l109 283l45 -39q-23 -36 -43 -99h2q20 32 55 78t47 53q21 14 35 0q16 -13 25 -28q14 -28 -13.5 -60.5 t-66.5 -42.5l-8 7q57 38 47 108q-86 -58 -156 -213q-21 -56 -29 -88zM665.5 1307.5q-2.5 -22.5 12.5 -33.5q8 24 12 72q-22 -16 -24.5 -38.5zM823 422q19 46 140 385q-9 1 -27 2t-25 2l-18 23l8 10q34 -10 70 -13l28 72q16 45 46.5 81.5t64.5 43.5l41 -35l12 37l8 2 q13 -15 23 -33q-9 -22 -27.5 -43t-36.5 -30l-4 4l23 59q-11 -2 -20 -5t-16.5 -6.5t-14.5 -9.5t-11.5 -10t-10 -12t-8.5 -12t-7.5 -14t-5.5 -13.5t-5.5 -14t-5.5 -13.5l-18 -52q39 -3 80 7l6 -13q-30 -11 -94 -14l-152 -412q-28 12 -43 27zM868 84q12 33 47 57q9 -10 11 -14 q-32 -22 -35 -53q0 -32 20 -35q31 -4 57.5 13t35.5 44q9 28 -2.5 53t-30 41t-31 37.5t-4.5 44.5q10 30 44 42t69 1l24 -30l12 28l11 6q12 -16 24 -34q-19 -52 -69 -82l-7 4l27 72q-34 10 -58 2t-30 -29q-9 -24 2.5 -47.5t30.5 -39t32.5 -37t8.5 -42.5q-12 -41 -44.5 -63.5 t-72.5 -22.5q-36 0 -57 25.5t-15 58.5zM1085 664q7 24 24 72t31 84l13 36l43 -43q-43 -118 -53 -149q-17 -47 -17 -117q120 83 185 246l20 63l43 -43q-43 -118 -55 -149q-16 -66 -16 -117q73 37 141 112l141 377l51 -41q-11 -27 -44.5 -111.5t-60 -151t-30.5 -81.5 q-21 -53 -14 -104q76 43 141 121l144 368l47 -41q-16 -44 -73.5 -186.5t-62.5 -157.5q-20 -59 -14 -104q86 46 162 145l10 -4q-72 -106 -160 -164q-34 10 -52 42t-13 69q-56 -66 -119 -111q-33 10 -49.5 40t-13.5 65q-48 -57 -119 -109q-43 13 -52.5 57t13.5 101l-4 2 q-48 -79 -131 -154q-40 14 -54.5 53.5t-1.5 84.5zM1133 133l71 191l49 -39q-47 -121 -57 -152q-18 -63 -18 -110q87 50 151 133q10 54 47.5 101t87.5 69l33 -54q-70 -25 -103 -102t-5 -145q52 15 92.5 57t60.5 104q-32 19 -37.5 55t21.5 72l16 13l27 -39q0 -53 -6 -97 q32 -8 75 0l-6 -12q-41 -11 -71 2q-20 -75 -63 -120.5t-101 -57.5q-73 50 -70 129q-69 -86 -141 -129q-37 13 -50 49.5t-3 81.5zM1227 397l6 6q78 19 104 86l6 -6q0 -31 -16 -64t-39 -54l-10 -3zM1320 905q4 -14 19 -14q33 0 84 143q-68 -31 -102 -106q-5 -9 -1 -23z M1532.5 235q-1.5 -23 13.5 -34q10 38 10 71q-22 -14 -23.5 -37zM1585 41l107 285l43 -37q-62 -144 -82 -195l2 -4q36 63 84.5 126t93.5 103q5 5 16 5.5t17 -5.5l30 -24q16 -19 9 -43q-49 -113 -52 -119q-29 -64 -22 -108q85 42 166 141l10 -6q-73 -100 -162 -158 q-40 18 -57.5 54t0.5 77q34 73 65 152q3 14 -2 14q-16 0 -65.5 -58t-95.5 -131t-54 -110z" />
<glyph unicode="&#xaa;" d="M92.5 81.5q-14.5 53.5 3.5 94.5q7 24 20.5 61.5t23.5 62.5l10 26l49 -39q-48 -133 -56 -160q-15 -48 -2 -102q107 41 148 157q-36 17 -40.5 54.5t25.5 74.5l17 13l33 -41q0 -38 -11 -95q30 -10 68 0q15 43 51.5 79.5t85.5 58.5l33 -43q-46 -13 -79 -49.5t-44 -83.5 q64 23 106 69t48 109l12 6q9 -7 35 -39q-16 -56 -74.5 -99t-130.5 -61q-13 -55 10 -110q82 19 182 141l11 -4q-92 -126 -185 -160q-95 69 -67 174q-38 -9 -66 -2q-42 -124 -157 -172q-45 26 -59.5 79.5zM223 657q6 25 24 74t33 85l15 36l49 -41q-45 -119 -57 -154 q-21 -73 -21 -110q88 49 160 143l59 162l45 -39q-61 -144 -81 -197l4 -2q83 148 176 232q6 6 16.5 6t18.5 -6l28 -29q8 -6 10 -18t-2 -23q-40 -87 -49 -117q-29 -66 -24 -110q85 43 168 143l10 -2q-74 -108 -164 -164q-41 19 -58.5 55t-0.5 76q30 66 67 154q4 12 -2 12 q-16 0 -65.5 -57.5t-95.5 -130.5t-54 -111l-51 41l31 82q-77 -85 -136 -121q-35 12 -48.5 49t-4.5 82zM283 236q-4 -25 12 -39q13 45 18 77q-26 -13 -30 -38zM319 924l3 6q79 15 106 86l8 -4q-1 -35 -17.5 -68.5t-41.5 -52.5h-12zM465 1158q-13 49 2.5 95t49 86t75.5 60 l33 -53q-68 -25 -100.5 -102.5t-4.5 -145.5q50 12 92 56.5t62 105.5q-35 19 -41 54.5t24 74.5l17 10l26 -39q2 -39 -6 -94q28 -11 74 0l49 133l47 -39q-63 -144 -86 -197l4 -4q72 132 176 236q7 3 17.5 3.5t17.5 -3.5l31 -29q17 -21 6 -43q-6 -14 -17 -40.5t-19.5 -46.5 t-12.5 -32q-30 -65 -23 -106q80 37 158 129l135 356l52 -39q-18 -46 -77.5 -192t-62.5 -154q-19 -56 -12 -100q76 38 158 133l67 172l47 -39q-51 -121 -63 -154q-27 -75 -8 -114q87 59 143 159l49 142l47 -37q-33 -101 -94 -275q39 14 91 60.5t89 93.5l11 -4 q-76 -112 -199 -170q-28 -76 -66.5 -131t-81.5 -55q-33 0 -44.5 17t-0.5 44q9 26 22 44.5t35 32.5t35 20.5t44 19.5q27 81 49 131l-6 2q-62 -76 -115 -117q-37 13 -56 48.5t-10 72.5q-58 -73 -133 -119q-35 10 -51.5 43.5t-7.5 69.5q-60 -70 -131 -113q-40 18 -56.5 51.5 t0.5 77.5q14 37 66 154q3 14 -2 14q-16 0 -65.5 -58.5t-96 -131t-53.5 -107.5l-49 35l47 141q-39 -8 -70 2q-20 -76 -64 -121.5t-104 -56.5q-46 34 -59 83zM610 43l109 283l45 -39q-23 -36 -43 -99h2q20 32 55 78t47 53q21 14 35 0q16 -13 25 -28q14 -28 -13.5 -60.5 t-66.5 -42.5l-8 7q57 38 47 108q-86 -58 -156 -213q-21 -56 -29 -88zM665.5 1307.5q-2.5 -22.5 12.5 -33.5q8 24 12 72q-22 -16 -24.5 -38.5zM823 422q19 46 140 385q-9 1 -27 2t-25 2l-18 23l8 10q34 -10 70 -13l28 72q16 45 46.5 81.5t64.5 43.5l41 -35l12 37l8 2 q13 -15 23 -33q-9 -22 -27.5 -43t-36.5 -30l-4 4l23 59q-11 -2 -20 -5t-16.5 -6.5t-14.5 -9.5t-11.5 -10t-10 -12t-8.5 -12t-7.5 -14t-5.5 -13.5t-5.5 -14t-5.5 -13.5l-18 -52q39 -3 80 7l6 -13q-30 -11 -94 -14l-152 -412q-28 12 -43 27zM868 84q12 33 47 57q9 -10 11 -14 q-32 -22 -35 -53q0 -32 20 -35q31 -4 57.5 13t35.5 44q9 28 -2.5 53t-30 41t-31 37.5t-4.5 44.5q10 30 44 42t69 1l24 -30l12 28l11 6q12 -16 24 -34q-19 -52 -69 -82l-7 4l27 72q-34 10 -58 2t-30 -29q-9 -24 2.5 -47.5t30.5 -39t32.5 -37t8.5 -42.5q-12 -41 -44.5 -63.5 t-72.5 -22.5q-36 0 -57 25.5t-15 58.5zM1085 664q7 24 24 72t31 84l13 36l43 -43q-43 -118 -53 -149q-17 -47 -17 -117q120 83 185 246l20 63l43 -43q-43 -118 -55 -149q-16 -66 -16 -117q73 37 141 112l141 377l51 -41q-11 -27 -44.5 -111.5t-60 -151t-30.5 -81.5 q-21 -53 -14 -104q76 43 141 121l144 368l47 -41q-16 -44 -73.5 -186.5t-62.5 -157.5q-20 -59 -14 -104q86 46 162 145l10 -4q-72 -106 -160 -164q-34 10 -52 42t-13 69q-56 -66 -119 -111q-33 10 -49.5 40t-13.5 65q-48 -57 -119 -109q-43 13 -52.5 57t13.5 101l-4 2 q-48 -79 -131 -154q-40 14 -54.5 53.5t-1.5 84.5zM1133 133l71 191l49 -39q-47 -121 -57 -152q-18 -63 -18 -110q87 50 151 133q10 54 47.5 101t87.5 69l33 -54q-70 -25 -103 -102t-5 -145q52 15 92.5 57t60.5 104q-32 19 -37.5 55t21.5 72l16 13l27 -39q0 -53 -6 -97 q32 -8 75 0l-6 -12q-41 -11 -71 2q-20 -75 -63 -120.5t-101 -57.5q-73 50 -70 129q-69 -86 -141 -129q-37 13 -50 49.5t-3 81.5zM1227 397l6 6q78 19 104 86l6 -6q0 -31 -16 -64t-39 -54l-10 -3zM1320 905q4 -14 19 -14q33 0 84 143q-68 -31 -102 -106q-5 -9 -1 -23z M1532.5 235q-1.5 -23 13.5 -34q10 38 10 71q-22 -14 -23.5 -37zM1585 41l107 285l43 -37q-62 -144 -82 -195l2 -4q36 63 84.5 126t93.5 103q5 5 16 5.5t17 -5.5l30 -24q16 -19 9 -43q-49 -113 -52 -119q-29 -64 -22 -108q85 42 166 141l10 -6q-73 -100 -162 -158 q-40 18 -57.5 54t0.5 77q34 73 65 152q3 14 -2 14q-16 0 -65.5 -58t-95.5 -131t-54 -110z" />
<glyph unicode="&#xab;" d="M92.5 81.5q-14.5 53.5 3.5 94.5q7 24 20.5 61.5t23.5 62.5l10 26l49 -39q-48 -133 -56 -160q-15 -48 -2 -102q107 41 148 157q-36 17 -40.5 54.5t25.5 74.5l17 13l33 -41q0 -38 -11 -95q30 -10 68 0q15 43 51.5 79.5t85.5 58.5l33 -43q-46 -13 -79 -49.5t-44 -83.5 q64 23 106 69t48 109l12 6q9 -7 35 -39q-16 -56 -74.5 -99t-130.5 -61q-13 -55 10 -110q82 19 182 141l11 -4q-92 -126 -185 -160q-95 69 -67 174q-38 -9 -66 -2q-42 -124 -157 -172q-45 26 -59.5 79.5zM223 657q6 25 24 74t33 85l15 36l49 -41q-45 -119 -57 -154 q-21 -73 -21 -110q88 49 160 143l59 162l45 -39q-61 -144 -81 -197l4 -2q83 148 176 232q6 6 16.5 6t18.5 -6l28 -29q8 -6 10 -18t-2 -23q-40 -87 -49 -117q-29 -66 -24 -110q85 43 168 143l10 -2q-74 -108 -164 -164q-41 19 -58.5 55t-0.5 76q30 66 67 154q4 12 -2 12 q-16 0 -65.5 -57.5t-95.5 -130.5t-54 -111l-51 41l31 82q-77 -85 -136 -121q-35 12 -48.5 49t-4.5 82zM283 236q-4 -25 12 -39q13 45 18 77q-26 -13 -30 -38zM319 924l3 6q79 15 106 86l8 -4q-1 -35 -17.5 -68.5t-41.5 -52.5h-12zM465 1158q-13 49 2.5 95t49 86t75.5 60 l33 -53q-68 -25 -100.5 -102.5t-4.5 -145.5q50 12 92 56.5t62 105.5q-35 19 -41 54.5t24 74.5l17 10l26 -39q2 -39 -6 -94q28 -11 74 0l49 133l47 -39q-63 -144 -86 -197l4 -4q72 132 176 236q7 3 17.5 3.5t17.5 -3.5l31 -29q17 -21 6 -43q-6 -14 -17 -40.5t-19.5 -46.5 t-12.5 -32q-30 -65 -23 -106q80 37 158 129l135 356l52 -39q-18 -46 -77.5 -192t-62.5 -154q-19 -56 -12 -100q76 38 158 133l67 172l47 -39q-51 -121 -63 -154q-27 -75 -8 -114q87 59 143 159l49 142l47 -37q-33 -101 -94 -275q39 14 91 60.5t89 93.5l11 -4 q-76 -112 -199 -170q-28 -76 -66.5 -131t-81.5 -55q-33 0 -44.5 17t-0.5 44q9 26 22 44.5t35 32.5t35 20.5t44 19.5q27 81 49 131l-6 2q-62 -76 -115 -117q-37 13 -56 48.5t-10 72.5q-58 -73 -133 -119q-35 10 -51.5 43.5t-7.5 69.5q-60 -70 -131 -113q-40 18 -56.5 51.5 t0.5 77.5q14 37 66 154q3 14 -2 14q-16 0 -65.5 -58.5t-96 -131t-53.5 -107.5l-49 35l47 141q-39 -8 -70 2q-20 -76 -64 -121.5t-104 -56.5q-46 34 -59 83zM610 43l109 283l45 -39q-23 -36 -43 -99h2q20 32 55 78t47 53q21 14 35 0q16 -13 25 -28q14 -28 -13.5 -60.5 t-66.5 -42.5l-8 7q57 38 47 108q-86 -58 -156 -213q-21 -56 -29 -88zM665.5 1307.5q-2.5 -22.5 12.5 -33.5q8 24 12 72q-22 -16 -24.5 -38.5zM823 422q19 46 140 385q-9 1 -27 2t-25 2l-18 23l8 10q34 -10 70 -13l28 72q16 45 46.5 81.5t64.5 43.5l41 -35l12 37l8 2 q13 -15 23 -33q-9 -22 -27.5 -43t-36.5 -30l-4 4l23 59q-11 -2 -20 -5t-16.5 -6.5t-14.5 -9.5t-11.5 -10t-10 -12t-8.5 -12t-7.5 -14t-5.5 -13.5t-5.5 -14t-5.5 -13.5l-18 -52q39 -3 80 7l6 -13q-30 -11 -94 -14l-152 -412q-28 12 -43 27zM868 84q12 33 47 57q9 -10 11 -14 q-32 -22 -35 -53q0 -32 20 -35q31 -4 57.5 13t35.5 44q9 28 -2.5 53t-30 41t-31 37.5t-4.5 44.5q10 30 44 42t69 1l24 -30l12 28l11 6q12 -16 24 -34q-19 -52 -69 -82l-7 4l27 72q-34 10 -58 2t-30 -29q-9 -24 2.5 -47.5t30.5 -39t32.5 -37t8.5 -42.5q-12 -41 -44.5 -63.5 t-72.5 -22.5q-36 0 -57 25.5t-15 58.5zM1085 664q7 24 24 72t31 84l13 36l43 -43q-43 -118 -53 -149q-17 -47 -17 -117q120 83 185 246l20 63l43 -43q-43 -118 -55 -149q-16 -66 -16 -117q73 37 141 112l141 377l51 -41q-11 -27 -44.5 -111.5t-60 -151t-30.5 -81.5 q-21 -53 -14 -104q76 43 141 121l144 368l47 -41q-16 -44 -73.5 -186.5t-62.5 -157.5q-20 -59 -14 -104q86 46 162 145l10 -4q-72 -106 -160 -164q-34 10 -52 42t-13 69q-56 -66 -119 -111q-33 10 -49.5 40t-13.5 65q-48 -57 -119 -109q-43 13 -52.5 57t13.5 101l-4 2 q-48 -79 -131 -154q-40 14 -54.5 53.5t-1.5 84.5zM1133 133l71 191l49 -39q-47 -121 -57 -152q-18 -63 -18 -110q87 50 151 133q10 54 47.5 101t87.5 69l33 -54q-70 -25 -103 -102t-5 -145q52 15 92.5 57t60.5 104q-32 19 -37.5 55t21.5 72l16 13l27 -39q0 -53 -6 -97 q32 -8 75 0l-6 -12q-41 -11 -71 2q-20 -75 -63 -120.5t-101 -57.5q-73 50 -70 129q-69 -86 -141 -129q-37 13 -50 49.5t-3 81.5zM1227 397l6 6q78 19 104 86l6 -6q0 -31 -16 -64t-39 -54l-10 -3zM1320 905q4 -14 19 -14q33 0 84 143q-68 -31 -102 -106q-5 -9 -1 -23z M1532.5 235q-1.5 -23 13.5 -34q10 38 10 71q-22 -14 -23.5 -37zM1585 41l107 285l43 -37q-62 -144 -82 -195l2 -4q36 63 84.5 126t93.5 103q5 5 16 5.5t17 -5.5l30 -24q16 -19 9 -43q-49 -113 -52 -119q-29 -64 -22 -108q85 42 166 141l10 -6q-73 -100 -162 -158 q-40 18 -57.5 54t0.5 77q34 73 65 152q3 14 -2 14q-16 0 -65.5 -58t-95.5 -131t-54 -110z" />
<glyph unicode="&#xac;" d="M92.5 81.5q-14.5 53.5 3.5 94.5q7 24 20.5 61.5t23.5 62.5l10 26l49 -39q-48 -133 -56 -160q-15 -48 -2 -102q107 41 148 157q-36 17 -40.5 54.5t25.5 74.5l17 13l33 -41q0 -38 -11 -95q30 -10 68 0q15 43 51.5 79.5t85.5 58.5l33 -43q-46 -13 -79 -49.5t-44 -83.5 q64 23 106 69t48 109l12 6q9 -7 35 -39q-16 -56 -74.5 -99t-130.5 -61q-13 -55 10 -110q82 19 182 141l11 -4q-92 -126 -185 -160q-95 69 -67 174q-38 -9 -66 -2q-42 -124 -157 -172q-45 26 -59.5 79.5zM223 657q6 25 24 74t33 85l15 36l49 -41q-45 -119 -57 -154 q-21 -73 -21 -110q88 49 160 143l59 162l45 -39q-61 -144 -81 -197l4 -2q83 148 176 232q6 6 16.5 6t18.5 -6l28 -29q8 -6 10 -18t-2 -23q-40 -87 -49 -117q-29 -66 -24 -110q85 43 168 143l10 -2q-74 -108 -164 -164q-41 19 -58.5 55t-0.5 76q30 66 67 154q4 12 -2 12 q-16 0 -65.5 -57.5t-95.5 -130.5t-54 -111l-51 41l31 82q-77 -85 -136 -121q-35 12 -48.5 49t-4.5 82zM283 236q-4 -25 12 -39q13 45 18 77q-26 -13 -30 -38zM319 924l3 6q79 15 106 86l8 -4q-1 -35 -17.5 -68.5t-41.5 -52.5h-12zM465 1158q-13 49 2.5 95t49 86t75.5 60 l33 -53q-68 -25 -100.5 -102.5t-4.5 -145.5q50 12 92 56.5t62 105.5q-35 19 -41 54.5t24 74.5l17 10l26 -39q2 -39 -6 -94q28 -11 74 0l49 133l47 -39q-63 -144 -86 -197l4 -4q72 132 176 236q7 3 17.5 3.5t17.5 -3.5l31 -29q17 -21 6 -43q-6 -14 -17 -40.5t-19.5 -46.5 t-12.5 -32q-30 -65 -23 -106q80 37 158 129l135 356l52 -39q-18 -46 -77.5 -192t-62.5 -154q-19 -56 -12 -100q76 38 158 133l67 172l47 -39q-51 -121 -63 -154q-27 -75 -8 -114q87 59 143 159l49 142l47 -37q-33 -101 -94 -275q39 14 91 60.5t89 93.5l11 -4 q-76 -112 -199 -170q-28 -76 -66.5 -131t-81.5 -55q-33 0 -44.5 17t-0.5 44q9 26 22 44.5t35 32.5t35 20.5t44 19.5q27 81 49 131l-6 2q-62 -76 -115 -117q-37 13 -56 48.5t-10 72.5q-58 -73 -133 -119q-35 10 -51.5 43.5t-7.5 69.5q-60 -70 -131 -113q-40 18 -56.5 51.5 t0.5 77.5q14 37 66 154q3 14 -2 14q-16 0 -65.5 -58.5t-96 -131t-53.5 -107.5l-49 35l47 141q-39 -8 -70 2q-20 -76 -64 -121.5t-104 -56.5q-46 34 -59 83zM610 43l109 283l45 -39q-23 -36 -43 -99h2q20 32 55 78t47 53q21 14 35 0q16 -13 25 -28q14 -28 -13.5 -60.5 t-66.5 -42.5l-8 7q57 38 47 108q-86 -58 -156 -213q-21 -56 -29 -88zM665.5 1307.5q-2.5 -22.5 12.5 -33.5q8 24 12 72q-22 -16 -24.5 -38.5zM823 422q19 46 140 385q-9 1 -27 2t-25 2l-18 23l8 10q34 -10 70 -13l28 72q16 45 46.5 81.5t64.5 43.5l41 -35l12 37l8 2 q13 -15 23 -33q-9 -22 -27.5 -43t-36.5 -30l-4 4l23 59q-11 -2 -20 -5t-16.5 -6.5t-14.5 -9.5t-11.5 -10t-10 -12t-8.5 -12t-7.5 -14t-5.5 -13.5t-5.5 -14t-5.5 -13.5l-18 -52q39 -3 80 7l6 -13q-30 -11 -94 -14l-152 -412q-28 12 -43 27zM868 84q12 33 47 57q9 -10 11 -14 q-32 -22 -35 -53q0 -32 20 -35q31 -4 57.5 13t35.5 44q9 28 -2.5 53t-30 41t-31 37.5t-4.5 44.5q10 30 44 42t69 1l24 -30l12 28l11 6q12 -16 24 -34q-19 -52 -69 -82l-7 4l27 72q-34 10 -58 2t-30 -29q-9 -24 2.5 -47.5t30.5 -39t32.5 -37t8.5 -42.5q-12 -41 -44.5 -63.5 t-72.5 -22.5q-36 0 -57 25.5t-15 58.5zM1085 664q7 24 24 72t31 84l13 36l43 -43q-43 -118 -53 -149q-17 -47 -17 -117q120 83 185 246l20 63l43 -43q-43 -118 -55 -149q-16 -66 -16 -117q73 37 141 112l141 377l51 -41q-11 -27 -44.5 -111.5t-60 -151t-30.5 -81.5 q-21 -53 -14 -104q76 43 141 121l144 368l47 -41q-16 -44 -73.5 -186.5t-62.5 -157.5q-20 -59 -14 -104q86 46 162 145l10 -4q-72 -106 -160 -164q-34 10 -52 42t-13 69q-56 -66 -119 -111q-33 10 -49.5 40t-13.5 65q-48 -57 -119 -109q-43 13 -52.5 57t13.5 101l-4 2 q-48 -79 -131 -154q-40 14 -54.5 53.5t-1.5 84.5zM1133 133l71 191l49 -39q-47 -121 -57 -152q-18 -63 -18 -110q87 50 151 133q10 54 47.5 101t87.5 69l33 -54q-70 -25 -103 -102t-5 -145q52 15 92.5 57t60.5 104q-32 19 -37.5 55t21.5 72l16 13l27 -39q0 -53 -6 -97 q32 -8 75 0l-6 -12q-41 -11 -71 2q-20 -75 -63 -120.5t-101 -57.5q-73 50 -70 129q-69 -86 -141 -129q-37 13 -50 49.5t-3 81.5zM1227 397l6 6q78 19 104 86l6 -6q0 -31 -16 -64t-39 -54l-10 -3zM1320 905q4 -14 19 -14q33 0 84 143q-68 -31 -102 -106q-5 -9 -1 -23z M1532.5 235q-1.5 -23 13.5 -34q10 38 10 71q-22 -14 -23.5 -37zM1585 41l107 285l43 -37q-62 -144 -82 -195l2 -4q36 63 84.5 126t93.5 103q5 5 16 5.5t17 -5.5l30 -24q16 -19 9 -43q-49 -113 -52 -119q-29 -64 -22 -108q85 42 166 141l10 -6q-73 -100 -162 -158 q-40 18 -57.5 54t0.5 77q34 73 65 152q3 14 -2 14q-16 0 -65.5 -58t-95.5 -131t-54 -110z" />
<glyph unicode="&#xad;" d="M92.5 81.5q-14.5 53.5 3.5 94.5q7 24 20.5 61.5t23.5 62.5l10 26l49 -39q-48 -133 -56 -160q-15 -48 -2 -102q107 41 148 157q-36 17 -40.5 54.5t25.5 74.5l17 13l33 -41q0 -38 -11 -95q30 -10 68 0q15 43 51.5 79.5t85.5 58.5l33 -43q-46 -13 -79 -49.5t-44 -83.5 q64 23 106 69t48 109l12 6q9 -7 35 -39q-16 -56 -74.5 -99t-130.5 -61q-13 -55 10 -110q82 19 182 141l11 -4q-92 -126 -185 -160q-95 69 -67 174q-38 -9 -66 -2q-42 -124 -157 -172q-45 26 -59.5 79.5zM223 657q6 25 24 74t33 85l15 36l49 -41q-45 -119 -57 -154 q-21 -73 -21 -110q88 49 160 143l59 162l45 -39q-61 -144 -81 -197l4 -2q83 148 176 232q6 6 16.5 6t18.5 -6l28 -29q8 -6 10 -18t-2 -23q-40 -87 -49 -117q-29 -66 -24 -110q85 43 168 143l10 -2q-74 -108 -164 -164q-41 19 -58.5 55t-0.5 76q30 66 67 154q4 12 -2 12 q-16 0 -65.5 -57.5t-95.5 -130.5t-54 -111l-51 41l31 82q-77 -85 -136 -121q-35 12 -48.5 49t-4.5 82zM283 236q-4 -25 12 -39q13 45 18 77q-26 -13 -30 -38zM319 924l3 6q79 15 106 86l8 -4q-1 -35 -17.5 -68.5t-41.5 -52.5h-12zM465 1158q-13 49 2.5 95t49 86t75.5 60 l33 -53q-68 -25 -100.5 -102.5t-4.5 -145.5q50 12 92 56.5t62 105.5q-35 19 -41 54.5t24 74.5l17 10l26 -39q2 -39 -6 -94q28 -11 74 0l49 133l47 -39q-63 -144 -86 -197l4 -4q72 132 176 236q7 3 17.5 3.5t17.5 -3.5l31 -29q17 -21 6 -43q-6 -14 -17 -40.5t-19.5 -46.5 t-12.5 -32q-30 -65 -23 -106q80 37 158 129l135 356l52 -39q-18 -46 -77.5 -192t-62.5 -154q-19 -56 -12 -100q76 38 158 133l67 172l47 -39q-51 -121 -63 -154q-27 -75 -8 -114q87 59 143 159l49 142l47 -37q-33 -101 -94 -275q39 14 91 60.5t89 93.5l11 -4 q-76 -112 -199 -170q-28 -76 -66.5 -131t-81.5 -55q-33 0 -44.5 17t-0.5 44q9 26 22 44.5t35 32.5t35 20.5t44 19.5q27 81 49 131l-6 2q-62 -76 -115 -117q-37 13 -56 48.5t-10 72.5q-58 -73 -133 -119q-35 10 -51.5 43.5t-7.5 69.5q-60 -70 -131 -113q-40 18 -56.5 51.5 t0.5 77.5q14 37 66 154q3 14 -2 14q-16 0 -65.5 -58.5t-96 -131t-53.5 -107.5l-49 35l47 141q-39 -8 -70 2q-20 -76 -64 -121.5t-104 -56.5q-46 34 -59 83zM610 43l109 283l45 -39q-23 -36 -43 -99h2q20 32 55 78t47 53q21 14 35 0q16 -13 25 -28q14 -28 -13.5 -60.5 t-66.5 -42.5l-8 7q57 38 47 108q-86 -58 -156 -213q-21 -56 -29 -88zM665.5 1307.5q-2.5 -22.5 12.5 -33.5q8 24 12 72q-22 -16 -24.5 -38.5zM823 422q19 46 140 385q-9 1 -27 2t-25 2l-18 23l8 10q34 -10 70 -13l28 72q16 45 46.5 81.5t64.5 43.5l41 -35l12 37l8 2 q13 -15 23 -33q-9 -22 -27.5 -43t-36.5 -30l-4 4l23 59q-11 -2 -20 -5t-16.5 -6.5t-14.5 -9.5t-11.5 -10t-10 -12t-8.5 -12t-7.5 -14t-5.5 -13.5t-5.5 -14t-5.5 -13.5l-18 -52q39 -3 80 7l6 -13q-30 -11 -94 -14l-152 -412q-28 12 -43 27zM868 84q12 33 47 57q9 -10 11 -14 q-32 -22 -35 -53q0 -32 20 -35q31 -4 57.5 13t35.5 44q9 28 -2.5 53t-30 41t-31 37.5t-4.5 44.5q10 30 44 42t69 1l24 -30l12 28l11 6q12 -16 24 -34q-19 -52 -69 -82l-7 4l27 72q-34 10 -58 2t-30 -29q-9 -24 2.5 -47.5t30.5 -39t32.5 -37t8.5 -42.5q-12 -41 -44.5 -63.5 t-72.5 -22.5q-36 0 -57 25.5t-15 58.5zM1085 664q7 24 24 72t31 84l13 36l43 -43q-43 -118 -53 -149q-17 -47 -17 -117q120 83 185 246l20 63l43 -43q-43 -118 -55 -149q-16 -66 -16 -117q73 37 141 112l141 377l51 -41q-11 -27 -44.5 -111.5t-60 -151t-30.5 -81.5 q-21 -53 -14 -104q76 43 141 121l144 368l47 -41q-16 -44 -73.5 -186.5t-62.5 -157.5q-20 -59 -14 -104q86 46 162 145l10 -4q-72 -106 -160 -164q-34 10 -52 42t-13 69q-56 -66 -119 -111q-33 10 -49.5 40t-13.5 65q-48 -57 -119 -109q-43 13 -52.5 57t13.5 101l-4 2 q-48 -79 -131 -154q-40 14 -54.5 53.5t-1.5 84.5zM1133 133l71 191l49 -39q-47 -121 -57 -152q-18 -63 -18 -110q87 50 151 133q10 54 47.5 101t87.5 69l33 -54q-70 -25 -103 -102t-5 -145q52 15 92.5 57t60.5 104q-32 19 -37.5 55t21.5 72l16 13l27 -39q0 -53 -6 -97 q32 -8 75 0l-6 -12q-41 -11 -71 2q-20 -75 -63 -120.5t-101 -57.5q-73 50 -70 129q-69 -86 -141 -129q-37 13 -50 49.5t-3 81.5zM1227 397l6 6q78 19 104 86l6 -6q0 -31 -16 -64t-39 -54l-10 -3zM1320 905q4 -14 19 -14q33 0 84 143q-68 -31 -102 -106q-5 -9 -1 -23z M1532.5 235q-1.5 -23 13.5 -34q10 38 10 71q-22 -14 -23.5 -37zM1585 41l107 285l43 -37q-62 -144 -82 -195l2 -4q36 63 84.5 126t93.5 103q5 5 16 5.5t17 -5.5l30 -24q16 -19 9 -43q-49 -113 -52 -119q-29 -64 -22 -108q85 42 166 141l10 -6q-73 -100 -162 -158 q-40 18 -57.5 54t0.5 77q34 73 65 152q3 14 -2 14q-16 0 -65.5 -58t-95.5 -131t-54 -110z" />
<glyph unicode="&#xae;" d="M92.5 81.5q-14.5 53.5 3.5 94.5q7 24 20.5 61.5t23.5 62.5l10 26l49 -39q-48 -133 -56 -160q-15 -48 -2 -102q107 41 148 157q-36 17 -40.5 54.5t25.5 74.5l17 13l33 -41q0 -38 -11 -95q30 -10 68 0q15 43 51.5 79.5t85.5 58.5l33 -43q-46 -13 -79 -49.5t-44 -83.5 q64 23 106 69t48 109l12 6q9 -7 35 -39q-16 -56 -74.5 -99t-130.5 -61q-13 -55 10 -110q82 19 182 141l11 -4q-92 -126 -185 -160q-95 69 -67 174q-38 -9 -66 -2q-42 -124 -157 -172q-45 26 -59.5 79.5zM223 657q6 25 24 74t33 85l15 36l49 -41q-45 -119 -57 -154 q-21 -73 -21 -110q88 49 160 143l59 162l45 -39q-61 -144 -81 -197l4 -2q83 148 176 232q6 6 16.5 6t18.5 -6l28 -29q8 -6 10 -18t-2 -23q-40 -87 -49 -117q-29 -66 -24 -110q85 43 168 143l10 -2q-74 -108 -164 -164q-41 19 -58.5 55t-0.5 76q30 66 67 154q4 12 -2 12 q-16 0 -65.5 -57.5t-95.5 -130.5t-54 -111l-51 41l31 82q-77 -85 -136 -121q-35 12 -48.5 49t-4.5 82zM283 236q-4 -25 12 -39q13 45 18 77q-26 -13 -30 -38zM319 924l3 6q79 15 106 86l8 -4q-1 -35 -17.5 -68.5t-41.5 -52.5h-12zM465 1158q-13 49 2.5 95t49 86t75.5 60 l33 -53q-68 -25 -100.5 -102.5t-4.5 -145.5q50 12 92 56.5t62 105.5q-35 19 -41 54.5t24 74.5l17 10l26 -39q2 -39 -6 -94q28 -11 74 0l49 133l47 -39q-63 -144 -86 -197l4 -4q72 132 176 236q7 3 17.5 3.5t17.5 -3.5l31 -29q17 -21 6 -43q-6 -14 -17 -40.5t-19.5 -46.5 t-12.5 -32q-30 -65 -23 -106q80 37 158 129l135 356l52 -39q-18 -46 -77.5 -192t-62.5 -154q-19 -56 -12 -100q76 38 158 133l67 172l47 -39q-51 -121 -63 -154q-27 -75 -8 -114q87 59 143 159l49 142l47 -37q-33 -101 -94 -275q39 14 91 60.5t89 93.5l11 -4 q-76 -112 -199 -170q-28 -76 -66.5 -131t-81.5 -55q-33 0 -44.5 17t-0.5 44q9 26 22 44.5t35 32.5t35 20.5t44 19.5q27 81 49 131l-6 2q-62 -76 -115 -117q-37 13 -56 48.5t-10 72.5q-58 -73 -133 -119q-35 10 -51.5 43.5t-7.5 69.5q-60 -70 -131 -113q-40 18 -56.5 51.5 t0.5 77.5q14 37 66 154q3 14 -2 14q-16 0 -65.5 -58.5t-96 -131t-53.5 -107.5l-49 35l47 141q-39 -8 -70 2q-20 -76 -64 -121.5t-104 -56.5q-46 34 -59 83zM610 43l109 283l45 -39q-23 -36 -43 -99h2q20 32 55 78t47 53q21 14 35 0q16 -13 25 -28q14 -28 -13.5 -60.5 t-66.5 -42.5l-8 7q57 38 47 108q-86 -58 -156 -213q-21 -56 -29 -88zM665.5 1307.5q-2.5 -22.5 12.5 -33.5q8 24 12 72q-22 -16 -24.5 -38.5zM823 422q19 46 140 385q-9 1 -27 2t-25 2l-18 23l8 10q34 -10 70 -13l28 72q16 45 46.5 81.5t64.5 43.5l41 -35l12 37l8 2 q13 -15 23 -33q-9 -22 -27.5 -43t-36.5 -30l-4 4l23 59q-11 -2 -20 -5t-16.5 -6.5t-14.5 -9.5t-11.5 -10t-10 -12t-8.5 -12t-7.5 -14t-5.5 -13.5t-5.5 -14t-5.5 -13.5l-18 -52q39 -3 80 7l6 -13q-30 -11 -94 -14l-152 -412q-28 12 -43 27zM868 84q12 33 47 57q9 -10 11 -14 q-32 -22 -35 -53q0 -32 20 -35q31 -4 57.5 13t35.5 44q9 28 -2.5 53t-30 41t-31 37.5t-4.5 44.5q10 30 44 42t69 1l24 -30l12 28l11 6q12 -16 24 -34q-19 -52 -69 -82l-7 4l27 72q-34 10 -58 2t-30 -29q-9 -24 2.5 -47.5t30.5 -39t32.5 -37t8.5 -42.5q-12 -41 -44.5 -63.5 t-72.5 -22.5q-36 0 -57 25.5t-15 58.5zM1085 664q7 24 24 72t31 84l13 36l43 -43q-43 -118 -53 -149q-17 -47 -17 -117q120 83 185 246l20 63l43 -43q-43 -118 -55 -149q-16 -66 -16 -117q73 37 141 112l141 377l51 -41q-11 -27 -44.5 -111.5t-60 -151t-30.5 -81.5 q-21 -53 -14 -104q76 43 141 121l144 368l47 -41q-16 -44 -73.5 -186.5t-62.5 -157.5q-20 -59 -14 -104q86 46 162 145l10 -4q-72 -106 -160 -164q-34 10 -52 42t-13 69q-56 -66 -119 -111q-33 10 -49.5 40t-13.5 65q-48 -57 -119 -109q-43 13 -52.5 57t13.5 101l-4 2 q-48 -79 -131 -154q-40 14 -54.5 53.5t-1.5 84.5zM1133 133l71 191l49 -39q-47 -121 -57 -152q-18 -63 -18 -110q87 50 151 133q10 54 47.5 101t87.5 69l33 -54q-70 -25 -103 -102t-5 -145q52 15 92.5 57t60.5 104q-32 19 -37.5 55t21.5 72l16 13l27 -39q0 -53 -6 -97 q32 -8 75 0l-6 -12q-41 -11 -71 2q-20 -75 -63 -120.5t-101 -57.5q-73 50 -70 129q-69 -86 -141 -129q-37 13 -50 49.5t-3 81.5zM1227 397l6 6q78 19 104 86l6 -6q0 -31 -16 -64t-39 -54l-10 -3zM1320 905q4 -14 19 -14q33 0 84 143q-68 -31 -102 -106q-5 -9 -1 -23z M1532.5 235q-1.5 -23 13.5 -34q10 38 10 71q-22 -14 -23.5 -37zM1585 41l107 285l43 -37q-62 -144 -82 -195l2 -4q36 63 84.5 126t93.5 103q5 5 16 5.5t17 -5.5l30 -24q16 -19 9 -43q-49 -113 -52 -119q-29 -64 -22 -108q85 42 166 141l10 -6q-73 -100 -162 -158 q-40 18 -57.5 54t0.5 77q34 73 65 152q3 14 -2 14q-16 0 -65.5 -58t-95.5 -131t-54 -110z" />
<glyph unicode="&#xaf;" horiz-adv-x="974" d="M487 1341l37 29h492l-19 -53q-139 -21 -423 -35q-9 0 -14.5 -0.5t-14 -1t-15.5 -0.5z" />
<glyph unicode="&#xb0;" d="M92.5 81.5q-14.5 53.5 3.5 94.5q7 24 20.5 61.5t23.5 62.5l10 26l49 -39q-48 -133 -56 -160q-15 -48 -2 -102q107 41 148 157q-36 17 -40.5 54.5t25.5 74.5l17 13l33 -41q0 -38 -11 -95q30 -10 68 0q15 43 51.5 79.5t85.5 58.5l33 -43q-46 -13 -79 -49.5t-44 -83.5 q64 23 106 69t48 109l12 6q9 -7 35 -39q-16 -56 -74.5 -99t-130.5 -61q-13 -55 10 -110q82 19 182 141l11 -4q-92 -126 -185 -160q-95 69 -67 174q-38 -9 -66 -2q-42 -124 -157 -172q-45 26 -59.5 79.5zM223 657q6 25 24 74t33 85l15 36l49 -41q-45 -119 -57 -154 q-21 -73 -21 -110q88 49 160 143l59 162l45 -39q-61 -144 -81 -197l4 -2q83 148 176 232q6 6 16.5 6t18.5 -6l28 -29q8 -6 10 -18t-2 -23q-40 -87 -49 -117q-29 -66 -24 -110q85 43 168 143l10 -2q-74 -108 -164 -164q-41 19 -58.5 55t-0.5 76q30 66 67 154q4 12 -2 12 q-16 0 -65.5 -57.5t-95.5 -130.5t-54 -111l-51 41l31 82q-77 -85 -136 -121q-35 12 -48.5 49t-4.5 82zM283 236q-4 -25 12 -39q13 45 18 77q-26 -13 -30 -38zM319 924l3 6q79 15 106 86l8 -4q-1 -35 -17.5 -68.5t-41.5 -52.5h-12zM465 1158q-13 49 2.5 95t49 86t75.5 60 l33 -53q-68 -25 -100.5 -102.5t-4.5 -145.5q50 12 92 56.5t62 105.5q-35 19 -41 54.5t24 74.5l17 10l26 -39q2 -39 -6 -94q28 -11 74 0l49 133l47 -39q-63 -144 -86 -197l4 -4q72 132 176 236q7 3 17.5 3.5t17.5 -3.5l31 -29q17 -21 6 -43q-6 -14 -17 -40.5t-19.5 -46.5 t-12.5 -32q-30 -65 -23 -106q80 37 158 129l135 356l52 -39q-18 -46 -77.5 -192t-62.5 -154q-19 -56 -12 -100q76 38 158 133l67 172l47 -39q-51 -121 -63 -154q-27 -75 -8 -114q87 59 143 159l49 142l47 -37q-33 -101 -94 -275q39 14 91 60.5t89 93.5l11 -4 q-76 -112 -199 -170q-28 -76 -66.5 -131t-81.5 -55q-33 0 -44.5 17t-0.5 44q9 26 22 44.5t35 32.5t35 20.5t44 19.5q27 81 49 131l-6 2q-62 -76 -115 -117q-37 13 -56 48.5t-10 72.5q-58 -73 -133 -119q-35 10 -51.5 43.5t-7.5 69.5q-60 -70 -131 -113q-40 18 -56.5 51.5 t0.5 77.5q14 37 66 154q3 14 -2 14q-16 0 -65.5 -58.5t-96 -131t-53.5 -107.5l-49 35l47 141q-39 -8 -70 2q-20 -76 -64 -121.5t-104 -56.5q-46 34 -59 83zM610 43l109 283l45 -39q-23 -36 -43 -99h2q20 32 55 78t47 53q21 14 35 0q16 -13 25 -28q14 -28 -13.5 -60.5 t-66.5 -42.5l-8 7q57 38 47 108q-86 -58 -156 -213q-21 -56 -29 -88zM665.5 1307.5q-2.5 -22.5 12.5 -33.5q8 24 12 72q-22 -16 -24.5 -38.5zM823 422q19 46 140 385q-9 1 -27 2t-25 2l-18 23l8 10q34 -10 70 -13l28 72q16 45 46.5 81.5t64.5 43.5l41 -35l12 37l8 2 q13 -15 23 -33q-9 -22 -27.5 -43t-36.5 -30l-4 4l23 59q-11 -2 -20 -5t-16.5 -6.5t-14.5 -9.5t-11.5 -10t-10 -12t-8.5 -12t-7.5 -14t-5.5 -13.5t-5.5 -14t-5.5 -13.5l-18 -52q39 -3 80 7l6 -13q-30 -11 -94 -14l-152 -412q-28 12 -43 27zM868 84q12 33 47 57q9 -10 11 -14 q-32 -22 -35 -53q0 -32 20 -35q31 -4 57.5 13t35.5 44q9 28 -2.5 53t-30 41t-31 37.5t-4.5 44.5q10 30 44 42t69 1l24 -30l12 28l11 6q12 -16 24 -34q-19 -52 -69 -82l-7 4l27 72q-34 10 -58 2t-30 -29q-9 -24 2.5 -47.5t30.5 -39t32.5 -37t8.5 -42.5q-12 -41 -44.5 -63.5 t-72.5 -22.5q-36 0 -57 25.5t-15 58.5zM1085 664q7 24 24 72t31 84l13 36l43 -43q-43 -118 -53 -149q-17 -47 -17 -117q120 83 185 246l20 63l43 -43q-43 -118 -55 -149q-16 -66 -16 -117q73 37 141 112l141 377l51 -41q-11 -27 -44.5 -111.5t-60 -151t-30.5 -81.5 q-21 -53 -14 -104q76 43 141 121l144 368l47 -41q-16 -44 -73.5 -186.5t-62.5 -157.5q-20 -59 -14 -104q86 46 162 145l10 -4q-72 -106 -160 -164q-34 10 -52 42t-13 69q-56 -66 -119 -111q-33 10 -49.5 40t-13.5 65q-48 -57 -119 -109q-43 13 -52.5 57t13.5 101l-4 2 q-48 -79 -131 -154q-40 14 -54.5 53.5t-1.5 84.5zM1133 133l71 191l49 -39q-47 -121 -57 -152q-18 -63 -18 -110q87 50 151 133q10 54 47.5 101t87.5 69l33 -54q-70 -25 -103 -102t-5 -145q52 15 92.5 57t60.5 104q-32 19 -37.5 55t21.5 72l16 13l27 -39q0 -53 -6 -97 q32 -8 75 0l-6 -12q-41 -11 -71 2q-20 -75 -63 -120.5t-101 -57.5q-73 50 -70 129q-69 -86 -141 -129q-37 13 -50 49.5t-3 81.5zM1227 397l6 6q78 19 104 86l6 -6q0 -31 -16 -64t-39 -54l-10 -3zM1320 905q4 -14 19 -14q33 0 84 143q-68 -31 -102 -106q-5 -9 -1 -23z M1532.5 235q-1.5 -23 13.5 -34q10 38 10 71q-22 -14 -23.5 -37zM1585 41l107 285l43 -37q-62 -144 -82 -195l2 -4q36 63 84.5 126t93.5 103q5 5 16 5.5t17 -5.5l30 -24q16 -19 9 -43q-49 -113 -52 -119q-29 -64 -22 -108q85 42 166 141l10 -6q-73 -100 -162 -158 q-40 18 -57.5 54t0.5 77q34 73 65 152q3 14 -2 14q-16 0 -65.5 -58t-95.5 -131t-54 -110z" />
</font>
</defs>
</svg>
